<?xml version="1.0" encoding="UTF-8" standalone="no"?>
<!-- Created with Inkscape (http://www.inkscape.org/) -->

<svg
   width="52.562138"
   height="50.364082"
   viewBox="0 0 13.907065 13.325497"
   version="1.1"
   id="svg1"
   inkscape:version="1.3.2 (091e20e, 2023-11-25, custom)"
   sodipodi:docname="PLANTALUTADORstar.svg"
   xmlns:inkscape="http://www.inkscape.org/namespaces/inkscape"
   xmlns:sodipodi="http://sodipodi.sourceforge.net/DTD/sodipodi-0.dtd"
   xmlns="http://www.w3.org/2000/svg"
   xmlns:svg="http://www.w3.org/2000/svg">
  <sodipodi:namedview
     id="namedview1"
     pagecolor="#ffffff"
     bordercolor="#000000"
     borderopacity="0.25"
     inkscape:showpageshadow="2"
     inkscape:pageopacity="0.0"
     inkscape:pagecheckerboard="0"
     inkscape:deskcolor="#d1d1d1"
     inkscape:document-units="px"
     inkscape:zoom="4.2736508"
     inkscape:cx="36.970732"
     inkscape:cy="35.917769"
     inkscape:window-width="1920"
     inkscape:window-height="1017"
     inkscape:window-x="1072"
     inkscape:window-y="239"
     inkscape:window-maximized="1"
     inkscape:current-layer="layer1" />
  <defs
     id="defs1" />
  <g
     inkscape:label="Camada 1"
     inkscape:groupmode="layer"
     id="layer1"
     transform="translate(-14.153715,-31.624876)">
    <g
       id="g70"
       transform="rotate(7.3255228,-220.13685,51.873624)"
       inkscape:transform-center-x="3.4730624"
       inkscape:transform-center-y="-5.8365064">
      <g
         id="g68">
        <path
           style="fill:#332231;fill-opacity:1;stroke:#000000;stroke-width:0.264583;stroke-linecap:round;stroke-linejoin:round;stroke-dasharray:none"
           d="M 23.032861,4.1122628 C 22.081159,2.7563778 20.831135,1.6135799 18.73009,1.0786544 l 0.433372,2.1359079 C 18.12517,1.8958827 16.773302,1.5806453 15.325019,1.5739374 l 1.826356,2.1978183 C 15.24389,3.1155367 13.466628,3.0778731 11.888993,3.9884421 l 2.878833,1.7025352 c -1.135024,-0.040813 -2.270047,0.086325 -3.405071,1.6715804 l 3.28125,0.2476415 C 12.14173,8.9529254 11.91567,10.691515 11.207979,12.346343 l 5.448113,-2.228774 c -0.732315,0.898023 -1.615746,1.628141 -1.640625,3.312205 z"
           id="path58"
           sodipodi:nodetypes="ccccccccccccc" />
        <path
           style="fill:#a0689b;fill-opacity:1;stroke:none;stroke-width:0.264583;stroke-linecap:round;stroke-linejoin:round;stroke-dasharray:none"
           d="m 22.957751,4.3313054 1.423939,4.89092 c 0,0 0.164246,2.3140976 -0.588149,3.0026526 -1.308842,1.197788 -3.732861,1.401398 -5.293337,0.557194 -0.775247,-0.419402 -1.207252,-2.352595 -1.207252,-2.352595 l 0.340507,-5.5409781 z"
           id="path59"
           sodipodi:nodetypes="ccssccc" />
        <path
           style="fill:#4b0b0b;fill-opacity:1;stroke:#000000;stroke-width:0.264583;stroke-linecap:round;stroke-linejoin:round;stroke-dasharray:none"
           d="m 19.187485,9.9940344 c 0,0 -0.05021,0.5061756 0.337169,0.8298896 0.743175,0.621036 2.081954,0.841408 2.889298,0.306441 0.711895,-0.47172 0.831768,-1.8276996 0.831768,-1.8276996 -1.268477,0.67574 -2.522283,1.0032276 -4.058235,0.691369 z"
           id="path60"
           sodipodi:nodetypes="csscc" />
        <path
           style="fill:none;stroke:#000000;stroke-width:0.265;stroke-linecap:round;stroke-linejoin:round;stroke-dasharray:none"
           d="m 20.632109,7.8032504 c 0,0 1.106197,0.0934 1.104528,0.511543 -0.0018,0.43991 -1.030685,0.8245 -1.030685,0.8245 l 2.744505,0.0297 c 0,0 -1.157541,0.723012 -2.47917,0.9081336 -1.14559,0.16046 -2.137062,-0.1956076 -2.137062,-0.1956076"
           id="path61"
           sodipodi:nodetypes="csccsc" />
        <path
           style="fill:#ffffff;fill-opacity:1;stroke:#000000;stroke-width:0.264583;stroke-linecap:round;stroke-linejoin:round"
           d="m 22.982369,9.4362804 c 0,0 0.108393,0.5885346 -0.222695,0.6730136 -0.22133,0.05647 -0.466947,-0.3637066 -0.466947,-0.3637066 z"
           id="path62"
           sodipodi:nodetypes="cscc" />
        <path
           style="fill:#ffffff;fill-opacity:1;stroke:#000000;stroke-width:0.264583;stroke-linecap:round;stroke-linejoin:round"
           d="m 21.786078,9.9300624 c 0,0 0.03174,0.5743596 -0.308949,0.6005816 -0.274376,0.02111 -0.397732,-0.429683 -0.397732,-0.429683 z"
           id="path63"
           sodipodi:nodetypes="cscc" />
        <path
           style="fill:#ffffff;fill-opacity:1;stroke:#000000;stroke-width:0.264583;stroke-linecap:round;stroke-linejoin:round"
           d="m 20.287565,10.186696 c 0,0 -0.173638,0.548418 -0.50155,0.452381 -0.264091,-0.07733 -0.219877,-0.542622 -0.219877,-0.542622 z"
           id="path64"
           sodipodi:nodetypes="cscc" />
        <g
           id="g65"
           transform="translate(-1.0944312,-4.5528336)">
          <path
             style="fill:#ffffff;fill-opacity:1;stroke:#000000;stroke-width:0.264584;stroke-linecap:round;stroke-linejoin:round;stroke-dasharray:none"
             d="m 18.955547,10.846802 1.906998,-0.20893 0.06219,1.230366 -1.927724,0.1625 z"
             id="path65" />
          <circle
             style="fill:#000000;fill-opacity:1;stroke:#000000;stroke-width:0.264583;stroke-linecap:round;stroke-linejoin:round;stroke-dasharray:none"
             id="circle65"
             cx="20.214144"
             cy="11.393028"
             r="0.31738505" />
        </g>
        <g
           id="g66"
           transform="translate(2.0794193,-4.7717199)">
          <path
             style="fill:#ffffff;fill-opacity:1;stroke:#000000;stroke-width:0.264584;stroke-linecap:round;stroke-linejoin:round;stroke-dasharray:none"
             d="m 18.955547,10.846802 1.906998,-0.20893 0.06219,1.230366 -1.927724,0.1625 z"
             id="path66" />
          <circle
             style="fill:#000000;fill-opacity:1;stroke:#000000;stroke-width:0.264583;stroke-linecap:round;stroke-linejoin:round;stroke-dasharray:none"
             id="circle66"
             cx="20.214144"
             cy="11.393028"
             r="0.31738505" />
        </g>
        <path
           style="fill:#651945;fill-opacity:1;stroke:#000000;stroke-width:0.264583;stroke-linecap:round;stroke-linejoin:round;stroke-dasharray:none"
           d="m 20.476809,11.305474 c 0,0 0.772625,-0.495809 1.280485,-0.437773 0.240668,0.0275 0.700435,0.25172 0.700435,0.25172 -1.120921,0.572206 -1.405021,0.240621 -1.98092,0.186053 z"
           id="path67"
           sodipodi:nodetypes="cscc" />
        <path
           style="fill:#808080;fill-opacity:1;stroke:#000000;stroke-width:0.264583;stroke-linecap:round;stroke-linejoin:round;stroke-dasharray:none"
           d="M 17.554677,5.7785964 23.004945,5.1657153 22.983056,4.2026159 17.379568,4.8154972 Z"
           id="path68" />
        <ellipse
           style="fill:#808080;fill-opacity:1;stroke:#000000;stroke-width:0.264583;stroke-linecap:round;stroke-linejoin:round;stroke-dasharray:none"
           id="ellipse68"
           cx="19.412735"
           cy="7.9088149"
           rx="0.70043594"
           ry="0.24077486"
           transform="rotate(-8.4237505)" />
      </g>
      <path
         style="fill:none;fill-opacity:1;stroke:#000000;stroke-width:0.529167;stroke-linecap:round;stroke-linejoin:round;stroke-dasharray:none;stroke-opacity:1"
         d="m 23.185436,13.248821 c 0.911829,-0.992504 1.026249,-2.488635 1.176297,-3.9622644 L 23.216391,4.9837853 23.154481,4.0551298 C 22.240752,2.5262945 20.453562,1.7877337 18.696934,1.0215212 L 19.254127,3.28125 C 18.448316,1.8691909 16.910457,1.6284105 15.291863,1.5168042 l 1.826356,2.2287737 C 15.423089,2.8339061 13.663843,3.2045677 11.886792,3.931309 L 14.73467,5.6647995 C 12.687356,5.5366308 11.930094,6.3847177 11.391509,7.3982899 l 3.188385,0.2166864 C 12.519779,8.65107 11.825107,10.462144 11.267689,12.35112 l 5.417158,-2.197818 c -0.744014,0.903271 -1.785558,1.6125 -1.640625,3.095519 l 2.352594,-2.507371 c 0.532684,1.238939 1.221231,2.376228 2.693101,3.002654"
         id="path69"
         sodipodi:nodetypes="ccccccccccccccccc" />
      <path
         style="fill:none;fill-opacity:1;stroke:#000000;stroke-width:0.264583;stroke-linecap:round;stroke-linejoin:round;stroke-dasharray:none;stroke-opacity:1"
         d="M 17.319428,10.493809 17.582547,5.835053"
         id="path70" />
    </g>
  </g>
</svg>
