<?xml version="1.0" encoding="UTF-8" standalone="no"?>
<!-- Created with Inkscape (http://www.inkscape.org/) -->

<svg
   width="98.656441"
   height="88.321815"
   viewBox="0 0 26.102849 23.36848"
   version="1.1"
   id="svg1"
   inkscape:version="1.3.2 (091e20e, 2023-11-25, custom)"
   sodipodi:docname="PLANTALUTADORstar.svg"
   xmlns:inkscape="http://www.inkscape.org/namespaces/inkscape"
   xmlns:sodipodi="http://sodipodi.sourceforge.net/DTD/sodipodi-0.dtd"
   xmlns="http://www.w3.org/2000/svg"
   xmlns:svg="http://www.w3.org/2000/svg">
  <sodipodi:namedview
     id="namedview1"
     pagecolor="#ffffff"
     bordercolor="#000000"
     borderopacity="0.25"
     inkscape:showpageshadow="2"
     inkscape:pageopacity="0.0"
     inkscape:pagecheckerboard="0"
     inkscape:deskcolor="#d1d1d1"
     inkscape:document-units="px"
     inkscape:zoom="4.2736508"
     inkscape:cx="36.970732"
     inkscape:cy="35.917769"
     inkscape:window-width="1920"
     inkscape:window-height="1017"
     inkscape:window-x="1072"
     inkscape:window-y="239"
     inkscape:window-maximized="1"
     inkscape:current-layer="layer1" />
  <defs
     id="defs1" />
  <g
     inkscape:label="Camada 1"
     inkscape:groupmode="layer"
     id="layer1"
     transform="translate(-9.0695258,-0.79350823)">
    <g
       id="g41"
       transform="rotate(4.2934638,-3.2245576,-58.781524)"
       inkscape:transform-center-x="-4.0950414"
       inkscape:transform-center-y="3.7721993">
      <path
         style="fill:#d1c9d0;fill-opacity:1;stroke:#000000;stroke-width:0.264583;stroke-linecap:round;stroke-linejoin:round;stroke-dasharray:none;stroke-opacity:1"
         d="m 29.477999,9.8708675 -0.36819,-1.7352932 7.386593,-1.0673648 0.0035,1.1356748 z"
         id="path36"
         sodipodi:nodetypes="ccccc" />
      <path
         style="fill:#a0689b;fill-opacity:1;stroke:#000000;stroke-width:0.264583;stroke-linecap:round;stroke-linejoin:round;stroke-dasharray:none;stroke-opacity:1"
         d="m 30.538102,9.503098 c 0,0 -1.293131,2.34952 -1.042637,3.560588 0.274914,1.329138 2.600595,3.133141 2.600595,3.133141 l 4.137579,-0.04964 -0.02206,-3.306267 -2.886985,0.117658 c 0,0 2.106838,-1.509928 2.211421,-2.657627 C 35.593465,9.6704726 34.60508,8.6454771 34.60508,8.6454771 Z"
         id="path37"
         sodipodi:nodetypes="csccccscc" />
      <path
         style="fill:#2d202c;fill-opacity:1;stroke:#000000;stroke-width:0.264583;stroke-linecap:round;stroke-linejoin:round;stroke-dasharray:none;stroke-opacity:1"
         d="m 36.173014,12.33849 0.05471,4.290715 1.314046,2.19e-4 c 0,0 0.88186,0.817602 1.357692,0.655789 1.156068,-0.393135 1.836759,-2.068218 1.643463,-3.273907 -0.184688,-1.151998 -1.303255,-2.445631 -2.469444,-2.48047 -0.284798,-0.0085 -0.638157,0.568682 -0.638157,0.568682 0,0 -0.03819,-0.735235 -0.309792,-0.756248 -0.347047,-0.02685 -0.539768,0.89393 -0.539768,0.89393 z"
         id="path38"
         sodipodi:nodetypes="cccssscscc" />
      <path
         style="fill:#2d202c;fill-opacity:1;stroke:#000000;stroke-width:0.264583;stroke-linecap:round;stroke-linejoin:round;stroke-dasharray:none;stroke-opacity:1"
         d="m 40.046513,12.910834 c 0,0 -0.720585,0.724722 -1.339659,0.548149"
         id="path39" />
      <path
         style="fill:#2d202c;fill-opacity:1;stroke:#000000;stroke-width:0.264583;stroke-linecap:round;stroke-linejoin:round;stroke-dasharray:none;stroke-opacity:1"
         d="m 40.353078,15.550646 c 0,0 -1.017317,0.362252 -1.42343,0.0034"
         id="path40" />
      <path
         style="fill:none;fill-opacity:1;stroke:#000000;stroke-width:0.529167;stroke-linecap:round;stroke-linejoin:round;stroke-dasharray:none;stroke-opacity:1"
         d="M 34.683683,8.69653 36.487058,8.2594925 36.599107,6.9430529 29.136741,8.145832 29.394774,9.878846 30.528579,9.4847634 C 29.907209,10.657313 29.452623,11.84807 29.40906,13.0837 c 0.55639,1.095712 1.420586,2.163052 2.676642,3.194275 l 4.054953,-0.07255 0.106159,0.399117 1.331367,-0.01319 1.16934,0.704549 c 1.946467,-0.792408 2.905333,-5.020946 -0.627079,-5.83295 l -0.691054,0.642366 c -0.27703,-1.14801 -0.569192,-0.681364 -0.864217,0.09061 l -0.430056,0.107185 0.01642,0.495011 -2.814348,0.124324 C 35.371413,11.296468 36.21667,9.8334866 34.683683,8.69653 Z"
         id="path41"
         sodipodi:nodetypes="ccccccccccccccccccc" />
    </g>
    <g
       id="g29">
      <path
         style="fill:#a0689b;fill-opacity:1;stroke:#000000;stroke-width:0.529167;stroke-linecap:round;stroke-linejoin:round;stroke-dasharray:none"
         d="m 14.610849,13.806014 12.629717,-2.909788 c 0,0 0.432083,5.808663 -0.371462,8.543632 -0.484898,1.650415 -2.600236,4.457547 -2.600236,4.457547 h -5.881486 c 0,0 -1.798228,-2.271599 -2.352595,-3.590801 -0.859372,-2.04501 -1.423938,-6.50059 -1.423938,-6.50059 z"
         id="path14"
         sodipodi:nodetypes="ccsccsc" />
      <path
         style="fill:none;fill-opacity:1;stroke:#000000;stroke-width:0.264583;stroke-linecap:round;stroke-linejoin:round;stroke-dasharray:none;stroke-opacity:1"
         d="m 21.166299,14.840487 0.393995,3.852397"
         id="path17" />
      <path
         style="fill:none;fill-opacity:1;stroke:#000000;stroke-width:0.264583;stroke-linecap:round;stroke-linejoin:round;stroke-dasharray:none;stroke-opacity:1"
         d="m 21.954289,19.525108 c 0.432835,-0.180267 0.885988,-0.279262 1.400872,-0.131332"
         id="path18"
         sodipodi:nodetypes="cc" />
      <path
         style="fill:none;fill-opacity:1;stroke:#000000;stroke-width:0.264583;stroke-linecap:round;stroke-linejoin:round;stroke-dasharray:none;stroke-opacity:1"
         d="m 22.026366,20.80417 c 0.408266,-0.168213 0.822724,-0.342616 1.335206,-0.109443"
         id="path19"
         sodipodi:nodetypes="cc" />
      <path
         style="fill:none;fill-opacity:1;stroke:#000000;stroke-width:0.264583;stroke-linecap:round;stroke-linejoin:round;stroke-dasharray:none;stroke-opacity:1"
         d="m 22.216953,22.479616 c 0.412339,-0.221393 0.837938,-0.296931 1.291429,-0.06566"
         id="path21"
         sodipodi:nodetypes="cc" />
      <path
         style="fill:none;fill-opacity:1;stroke:#000000;stroke-width:0.264583;stroke-linecap:round;stroke-linejoin:round;stroke-dasharray:none;stroke-opacity:1"
         d="m 19.477874,19.710839 c 0.466957,-0.245221 0.933915,-0.298799 1.400872,-0.131332"
         id="path22"
         sodipodi:nodetypes="cc" />
      <path
         style="fill:none;fill-opacity:1;stroke:#000000;stroke-width:0.264583;stroke-linecap:round;stroke-linejoin:round;stroke-dasharray:none;stroke-opacity:1"
         d="m 19.549951,20.989901 c 0.378851,-0.168917 0.792555,-0.268126 1.335206,-0.109443"
         id="path23"
         sodipodi:nodetypes="cc" />
      <path
         style="fill:none;fill-opacity:1;stroke:#000000;stroke-width:0.264583;stroke-linecap:round;stroke-linejoin:round;stroke-dasharray:none;stroke-opacity:1"
         d="m 19.740538,22.665347 c 0.403151,-0.295142 0.848173,-0.171572 1.291429,-0.06566"
         id="path25"
         sodipodi:nodetypes="cc" />
      <path
         style="fill:none;fill-opacity:1;stroke:#000000;stroke-width:0.264583;stroke-linecap:round;stroke-linejoin:round;stroke-dasharray:none;stroke-opacity:1"
         d="m 20.52329,18.635023 c 0,0 -1.950177,-0.634581 -3.544369,0.216687"
         id="path26" />
      <path
         style="fill:none;fill-opacity:1;stroke:#000000;stroke-width:0.264583;stroke-linecap:round;stroke-linejoin:round;stroke-dasharray:none;stroke-opacity:1"
         d="m 26.214332,18.087807 c 0,0 -1.950177,-0.634581 -3.544369,0.216687"
         id="path27" />
      <path
         style="fill:none;fill-opacity:1;stroke:#000000;stroke-width:0.264583;stroke-linecap:round;stroke-linejoin:round;stroke-dasharray:none;stroke-opacity:1"
         d="m 19.254128,15.044222 c 0,0 -1.950177,-0.634581 -3.544369,0.216687"
         id="path28" />
      <path
         style="fill:none;fill-opacity:1;stroke:#000000;stroke-width:0.264583;stroke-linecap:round;stroke-linejoin:round;stroke-dasharray:none;stroke-opacity:1"
         d="m 26.431019,14.620826 c 0,0 -1.950177,-0.634581 -3.544369,0.216687"
         id="path29" />
    </g>
    <g
       id="g16"
       transform="rotate(7.3255228,18.94526,9.3782736)"
       inkscape:transform-center-x="3.4730624"
       inkscape:transform-center-y="-5.8365064">
      <g
         id="g13">
        <path
           style="fill:#332231;fill-opacity:1;stroke:#000000;stroke-width:0.264583;stroke-linecap:round;stroke-linejoin:round;stroke-dasharray:none"
           d="M 23.032861,4.1122628 C 22.081159,2.7563778 20.831135,1.6135799 18.73009,1.0786544 l 0.433372,2.1359079 C 18.12517,1.8958827 16.773302,1.5806453 15.325019,1.5739374 l 1.826356,2.1978183 C 15.24389,3.1155367 13.466628,3.0778731 11.888993,3.9884421 l 2.878833,1.7025352 c -1.135024,-0.040813 -2.270047,0.086325 -3.405071,1.6715804 l 3.28125,0.2476415 C 12.14173,8.9529254 11.91567,10.691515 11.207979,12.346343 l 5.448113,-2.228774 c -0.732315,0.898023 -1.615746,1.628141 -1.640625,3.312205 z"
           id="path13"
           sodipodi:nodetypes="ccccccccccccc" />
        <path
           style="fill:#a0689b;fill-opacity:1;stroke:none;stroke-width:0.264583;stroke-linecap:round;stroke-linejoin:round;stroke-dasharray:none"
           d="m 22.957751,4.3313054 1.423939,4.89092 c 0,0 0.164246,2.3140976 -0.588149,3.0026526 -1.308842,1.197788 -3.732861,1.401398 -5.293337,0.557194 -0.775247,-0.419402 -1.207252,-2.352595 -1.207252,-2.352595 l 0.340507,-5.5409781 z"
           id="path12"
           sodipodi:nodetypes="ccssccc" />
        <path
           style="fill:#4b0b0b;fill-opacity:1;stroke:#000000;stroke-width:0.264583;stroke-linecap:round;stroke-linejoin:round;stroke-dasharray:none"
           d="m 19.187485,9.9940344 c 0,0 -0.05021,0.5061756 0.337169,0.8298896 0.743175,0.621036 2.081954,0.841408 2.889298,0.306441 0.711895,-0.47172 0.831768,-1.8276996 0.831768,-1.8276996 -1.268477,0.67574 -2.522283,1.0032276 -4.058235,0.691369 z"
           id="path8"
           sodipodi:nodetypes="csscc" />
        <path
           style="fill:none;stroke:#000000;stroke-width:0.265;stroke-linecap:round;stroke-linejoin:round;stroke-dasharray:none"
           d="m 20.632109,7.8032504 c 0,0 1.106197,0.0934 1.104528,0.511543 -0.0018,0.43991 -1.030685,0.8245 -1.030685,0.8245 l 2.744505,0.0297 c 0,0 -1.157541,0.723012 -2.47917,0.9081336 -1.14559,0.16046 -2.137062,-0.1956076 -2.137062,-0.1956076"
           id="path2"
           sodipodi:nodetypes="csccsc" />
        <path
           style="fill:#ffffff;fill-opacity:1;stroke:#000000;stroke-width:0.264583;stroke-linecap:round;stroke-linejoin:round"
           d="m 22.982369,9.4362804 c 0,0 0.108393,0.5885346 -0.222695,0.6730136 -0.22133,0.05647 -0.466947,-0.3637066 -0.466947,-0.3637066 z"
           id="path3"
           sodipodi:nodetypes="cscc" />
        <path
           style="fill:#ffffff;fill-opacity:1;stroke:#000000;stroke-width:0.264583;stroke-linecap:round;stroke-linejoin:round"
           d="m 21.786078,9.9300624 c 0,0 0.03174,0.5743596 -0.308949,0.6005816 -0.274376,0.02111 -0.397732,-0.429683 -0.397732,-0.429683 z"
           id="path4"
           sodipodi:nodetypes="cscc" />
        <path
           style="fill:#ffffff;fill-opacity:1;stroke:#000000;stroke-width:0.264583;stroke-linecap:round;stroke-linejoin:round"
           d="m 20.287565,10.186696 c 0,0 -0.173638,0.548418 -0.50155,0.452381 -0.264091,-0.07733 -0.219877,-0.542622 -0.219877,-0.542622 z"
           id="path5"
           sodipodi:nodetypes="cscc" />
        <g
           id="g6"
           transform="translate(-1.0944312,-4.5528336)">
          <path
             style="fill:#ffffff;fill-opacity:1;stroke:#000000;stroke-width:0.264584;stroke-linecap:round;stroke-linejoin:round;stroke-dasharray:none"
             d="m 18.955547,10.846802 1.906998,-0.20893 0.06219,1.230366 -1.927724,0.1625 z"
             id="path1" />
          <circle
             style="fill:#000000;fill-opacity:1;stroke:#000000;stroke-width:0.264583;stroke-linecap:round;stroke-linejoin:round;stroke-dasharray:none"
             id="path6"
             cx="20.214144"
             cy="11.393028"
             r="0.31738505" />
        </g>
        <g
           id="g7"
           transform="translate(2.0794193,-4.7717199)">
          <path
             style="fill:#ffffff;fill-opacity:1;stroke:#000000;stroke-width:0.264584;stroke-linecap:round;stroke-linejoin:round;stroke-dasharray:none"
             d="m 18.955547,10.846802 1.906998,-0.20893 0.06219,1.230366 -1.927724,0.1625 z"
             id="path7" />
          <circle
             style="fill:#000000;fill-opacity:1;stroke:#000000;stroke-width:0.264583;stroke-linecap:round;stroke-linejoin:round;stroke-dasharray:none"
             id="circle7"
             cx="20.214144"
             cy="11.393028"
             r="0.31738505" />
        </g>
        <path
           style="fill:#651945;fill-opacity:1;stroke:#000000;stroke-width:0.264583;stroke-linecap:round;stroke-linejoin:round;stroke-dasharray:none"
           d="m 20.476809,11.305474 c 0,0 0.772625,-0.495809 1.280485,-0.437773 0.240668,0.0275 0.700435,0.25172 0.700435,0.25172 -1.120921,0.572206 -1.405021,0.240621 -1.98092,0.186053 z"
           id="path9"
           sodipodi:nodetypes="cscc" />
        <path
           style="fill:#808080;fill-opacity:1;stroke:#000000;stroke-width:0.264583;stroke-linecap:round;stroke-linejoin:round;stroke-dasharray:none"
           d="M 17.554677,5.7785964 23.004945,5.1657153 22.983056,4.2026159 17.379568,4.8154972 Z"
           id="path10" />
        <ellipse
           style="fill:#808080;fill-opacity:1;stroke:#000000;stroke-width:0.264583;stroke-linecap:round;stroke-linejoin:round;stroke-dasharray:none"
           id="path11"
           cx="19.412735"
           cy="7.9088149"
           rx="0.70043594"
           ry="0.24077486"
           transform="rotate(-8.4237505)" />
      </g>
      <path
         style="fill:none;fill-opacity:1;stroke:#000000;stroke-width:0.529167;stroke-linecap:round;stroke-linejoin:round;stroke-dasharray:none;stroke-opacity:1"
         d="m 23.185436,13.248821 c 0.911829,-0.992504 1.026249,-2.488635 1.176297,-3.9622644 L 23.216391,4.9837853 23.154481,4.0551298 C 22.240752,2.5262945 20.453562,1.7877337 18.696934,1.0215212 L 19.254127,3.28125 C 18.448316,1.8691909 16.910457,1.6284105 15.291863,1.5168042 l 1.826356,2.2287737 C 15.423089,2.8339061 13.663843,3.2045677 11.886792,3.931309 L 14.73467,5.6647995 C 12.687356,5.5366308 11.930094,6.3847177 11.391509,7.3982899 l 3.188385,0.2166864 C 12.519779,8.65107 11.825107,10.462144 11.267689,12.35112 l 5.417158,-2.197818 c -0.744014,0.903271 -1.785558,1.6125 -1.640625,3.095519 l 2.352594,-2.507371 c 0.532684,1.238939 1.221231,2.376228 2.693101,3.002654"
         id="path15"
         sodipodi:nodetypes="ccccccccccccccccc" />
      <path
         style="fill:none;fill-opacity:1;stroke:#000000;stroke-width:0.264583;stroke-linecap:round;stroke-linejoin:round;stroke-dasharray:none;stroke-opacity:1"
         d="M 17.319428,10.493809 17.582547,5.835053"
         id="path16" />
    </g>
    <g
       id="g35"
       transform="rotate(-1.8996949,-50.753598,-178.15565)"
       inkscape:transform-center-x="0.065861845"
       inkscape:transform-center-y="4.2530416">
      <g
         id="g34"
         transform="translate(0.16684312,1.8292003)"
         inkscape:transform-center-x="-1.5476272"
         inkscape:transform-center-y="3.776205">
        <path
           style="fill:#d1c9d0;fill-opacity:1;stroke:#000000;stroke-width:0.264583;stroke-linecap:round;stroke-linejoin:round;stroke-dasharray:none;stroke-opacity:1"
           d="m 10.550316,14.643489 -0.48155,-1.707313 -7.3545762,1.75109 0.525327,1.006877 z"
           id="path30" />
        <path
           style="fill:#a0689b;fill-opacity:1;stroke:#000000;stroke-width:0.264583;stroke-linecap:round;stroke-linejoin:round;stroke-dasharray:none;stroke-opacity:1"
           d="m 5.5378217,15.43148 c 0,0 -1.370306,2.305362 -1.1600971,3.524068 0.2307027,1.337521 2.4953031,3.217628 2.4953031,3.217628 l 4.1369503,0.08755 0.08755,-3.305182 -2.8892983,0.02189 c 0,0 2.1557343,-1.439256 2.2983053,-2.582858 0.07832,-0.628227 -0.8755447,-1.685424 -0.8755447,-1.685424 z"
           id="path31"
           sodipodi:nodetypes="csccccscc" />
        <path
           style="fill:#2d202c;fill-opacity:1;stroke:#000000;stroke-width:0.264583;stroke-linecap:round;stroke-linejoin:round;stroke-dasharray:none;stroke-opacity:1"
           d="m 11.075644,18.45211 -0.08756,4.29017 1.313317,0.04378 c 0,0 0.854272,0.846386 1.335206,0.700436 1.168465,-0.354596 1.904311,-2.006193 1.75109,-3.217627 -0.146398,-1.157488 -1.221467,-2.48749 -2.38586,-2.560969 -0.28436,-0.01794 -0.656658,0.547215 -0.656658,0.547215 0,0 -0.0138,-0.736097 -0.284552,-0.766102 -0.345966,-0.03834 -0.569105,0.875545 -0.569105,0.875545 z"
           id="path32"
           sodipodi:nodetypes="cccssscscc" />
        <path
           style="fill:#2d202c;fill-opacity:1;stroke:#000000;stroke-width:0.264583;stroke-linecap:round;stroke-linejoin:round;stroke-dasharray:none;stroke-opacity:1"
           d="m 14.928041,19.152546 c 0,0 -0.744213,0.700436 -1.357094,0.503438"
           id="path33" />
        <path
           style="fill:#2d202c;fill-opacity:1;stroke:#000000;stroke-width:0.264583;stroke-linecap:round;stroke-linejoin:round;stroke-dasharray:none;stroke-opacity:1"
           d="m 15.146928,21.801069 c 0,0 -1.028766,0.328329 -1.422761,-0.04378"
           id="path34" />
      </g>
      <path
         style="fill:none;fill-opacity:1;stroke:#000000;stroke-width:0.529167;stroke-linecap:round;stroke-linejoin:round;stroke-dasharray:none;stroke-opacity:1"
         d="M 9.874705,16.591981 10.74145,16.46816 10.246167,14.641804 2.9097877,16.530071 3.3741156,17.551592 5.6957547,17.24204 c -0.6598983,1.151307 -1.1537081,2.32634 -1.2382077,3.559847 0.5197615,1.113554 1.3481007,2.208955 2.5692806,3.281249 l 4.0551294,0.06191 0.09287,0.402417 1.331073,0.03095 1.145342,0.742925 c 1.971665,-0.727447 3.070179,-4.921875 -0.433373,-5.850531 L 12.5059,20.089911 c -0.238821,-1.156562 -0.546292,-0.699858 -0.866745,0.06191 l -0.433373,0.09287 v 0.495283 l -2.816922,0.03096 c 2.087009,-1.557646 2.980299,-2.991803 1.485845,-4.178953 z"
         id="path35"
         sodipodi:nodetypes="ccccccccccccccccccc" />
    </g>
  </g>
</svg>
