<?xml version="1.0" encoding="UTF-8" standalone="no"?>
<!-- Created with Inkscape (http://www.inkscape.org/) -->

<svg
   width="60.864056"
   height="72.340836"
   viewBox="0 0 16.103614 19.140179"
   version="1.1"
   id="svg1"
   inkscape:version="1.3.2 (091e20e, 2023-11-25, custom)"
   sodipodi:docname="plantaLUTADORAchatCOMPLETA.svg"
   xmlns:inkscape="http://www.inkscape.org/namespaces/inkscape"
   xmlns:sodipodi="http://sodipodi.sourceforge.net/DTD/sodipodi-0.dtd"
   xmlns="http://www.w3.org/2000/svg"
   xmlns:svg="http://www.w3.org/2000/svg">
  <sodipodi:namedview
     id="namedview1"
     pagecolor="#ffffff"
     bordercolor="#000000"
     borderopacity="0.25"
     inkscape:showpageshadow="2"
     inkscape:pageopacity="0.0"
     inkscape:pagecheckerboard="0"
     inkscape:deskcolor="#d1d1d1"
     inkscape:document-units="px"
     inkscape:zoom="5.1606349"
     inkscape:cx="73.053027"
     inkscape:cy="54.741326"
     inkscape:window-width="1920"
     inkscape:window-height="1017"
     inkscape:window-x="1072"
     inkscape:window-y="239"
     inkscape:window-maximized="1"
     inkscape:current-layer="layer1" />
  <defs
     id="defs1" />
  <g
     inkscape:label="Camada 1"
     inkscape:groupmode="layer"
     id="layer1"
     transform="translate(-2.6893077,-34.764446)">
    <g
       id="g33"
       transform="translate(-6.3574217,33.581542)">
      <path
         style="fill:#eaeaea;fill-opacity:1;stroke:#000000;stroke-width:0.529167;stroke-linecap:round;stroke-linejoin:round;stroke-dasharray:none"
         d="M 9.9395347,3.4062705 C 7.658092,6.818494 12.239533,18.034877 13.57397,19.418309 15.313232,21.221428 22.203915,18.762752 24.255665,17.599767 26.482464,16.337558 22.155363,2.908458 21.286065,2.1643396 19.430501,0.57597834 10.937434,1.9137698 9.9395347,3.4062705 Z"
         id="path21"
         sodipodi:nodetypes="sssss" />
      <text
         xml:space="preserve"
         style="font-weight:bold;font-size:2.35562px;font-family:Calibri;-inkscape-font-specification:'Calibri Bold';text-align:center;text-anchor:middle;fill:#000000;fill-opacity:1;stroke:none;stroke-width:0.529167;stroke-linecap:round;stroke-linejoin:round;stroke-dasharray:none"
         x="11.733389"
         y="6.5518255"
         id="text21"
         transform="rotate(-8.8099794)"><tspan
           sodipodi:role="line"
           id="tspan21"
           style="fill:#000000;fill-opacity:1;stroke:none;stroke-width:0.529167"
           x="11.733389"
           y="6.5518255">msg</tspan></text>
      <path
         style="fill:none;fill-opacity:1;stroke:#000000;stroke-width:0.529167;stroke-linecap:round;stroke-linejoin:round;stroke-dasharray:none;stroke-opacity:1"
         d="M 18.552489,4.4772496 20.011674,2.6645978"
         id="path22"
         sodipodi:nodetypes="cc" />
      <path
         style="fill:none;fill-opacity:1;stroke:#000000;stroke-width:0.529167;stroke-linecap:round;stroke-linejoin:round;stroke-dasharray:none;stroke-opacity:1"
         d="m 18.398414,2.8005468 1.803589,1.5770069"
         id="path23"
         sodipodi:nodetypes="cc" />
      <path
         style="fill:#ffffff;fill-opacity:1;stroke:#000000;stroke-width:0.264583;stroke-linecap:round;stroke-linejoin:round;stroke-dasharray:none;stroke-opacity:1"
         d="m 11.151952,6.509429 9.155895,-1.3946065 c 0.58499,-0.023981 1.05809,0.1571703 1.234899,0.8815211 l 2.468608,9.6937994 c 0.100723,0.395523 0.03183,1.001373 -0.424099,1.112859 l -8.482517,2.074192 c -0.517864,0.124254 -0.921115,-0.0076 -1.069093,-0.694606 L 10.630662,7.5652319 C 10.303304,6.5689983 10.794065,6.6246327 11.151952,6.509429 Z"
         id="path24"
         sodipodi:nodetypes="cccsscccc" />
      <path
         id="path25"
         style="fill:#ffffff;fill-opacity:1;stroke:#000000;stroke-width:0.264582;stroke-linecap:round;stroke-linejoin:round;stroke-dasharray:none;stroke-opacity:1"
         d="m 22.430358,14.252954 a 0.9997558,1.0638428 0 0 0 -0.358634,0.07338 l -6.747392,1.721342 a 0.9997558,1.0638428 0 0 0 -0.02015,-5.16e-4 0.9997558,1.0638428 0 0 0 -0.999939,1.064017 0.9997558,1.0638428 0 0 0 0.999939,1.064018 0.9997558,1.0638428 0 0 0 0.197921,-0.02377 l 0.0067,0.02377 7.232633,-1.830896 -0.0036,-0.01705 A 0.9997558,1.0638428 0 0 0 23.4303,15.316975 0.9997558,1.0638428 0 0 0 22.430361,14.252957 Z" />
      <text
         xml:space="preserve"
         style="font-weight:bold;font-size:1.66355px;font-family:Calibri;-inkscape-font-specification:'Calibri Bold';text-align:center;text-anchor:middle;fill:#000000;fill-opacity:1;stroke:none;stroke-width:0.529167;stroke-linecap:round;stroke-linejoin:round;stroke-dasharray:none"
         x="13.313923"
         y="19.708807"
         id="text25"
         transform="rotate(-8.8099794)"><tspan
           sodipodi:role="line"
           id="tspan25"
           style="fill:#000000;fill-opacity:1;stroke:none;stroke-width:0.529167"
           x="13.313923"
           y="19.708807">1</tspan></text>
      <path
         style="fill:#ffffff;fill-opacity:1;stroke:#000000;stroke-width:0.264583;stroke-linecap:round;stroke-linejoin:round;stroke-dasharray:none;stroke-opacity:1"
         d="m 21.552428,16.241359 -0.271898,-1.214477 1.504501,0.163139 z"
         id="path26" />
      <path
         style="fill:#ffffff;fill-opacity:1;stroke:#000000;stroke-width:0.264583;stroke-linecap:round;stroke-linejoin:round;stroke-dasharray:none;stroke-opacity:1"
         d="m 22.576576,15.2444 -1.069464,0.317214"
         id="path27" />
      <path
         style="fill:#ffffff;fill-opacity:1;stroke:#000000;stroke-width:0.264583;stroke-linecap:round;stroke-linejoin:round;stroke-dasharray:none;stroke-opacity:1"
         d="m 21.498049,12.217272 -3.262774,0.725061"
         id="path28" />
      <path
         style="fill:#ffffff;fill-opacity:1;stroke:#000000;stroke-width:0.264583;stroke-linecap:round;stroke-linejoin:round;stroke-dasharray:none;stroke-opacity:1"
         d="m 21.679314,13.341116 -6.45304,1.305109"
         id="path29" />
      <path
         style="fill:#ffffff;fill-opacity:1;stroke:#000000;stroke-width:0.264583;stroke-linecap:round;stroke-linejoin:round;stroke-dasharray:none;stroke-opacity:1"
         d="M 13.014839,11.020922 19.576638,9.6433067"
         id="path30" />
      <path
         style="fill:#ffffff;fill-opacity:1;stroke:#000000;stroke-width:0.264583;stroke-linecap:round;stroke-linejoin:round;stroke-dasharray:none;stroke-opacity:1"
         d="m 12.724815,10.259608 6.70681,-1.1600967"
         id="path31" />
      <path
         style="fill:#ffffff;fill-opacity:1;stroke:#000000;stroke-width:0.264583;stroke-linecap:round;stroke-linejoin:round;stroke-dasharray:none;stroke-opacity:1"
         d="M 12.398537,9.3170294 14.682478,9.0270051"
         id="path32" />
      <path
         style="fill:#ffffff;fill-opacity:1;stroke:#000000;stroke-width:0.264583;stroke-linecap:round;stroke-linejoin:round;stroke-dasharray:none;stroke-opacity:1"
         d="M 11.927248,7.3956187 20.519217,6.0905096"
         id="path33" />
    </g>
  </g>
</svg>
