<?xml version="1.0" encoding="UTF-8" standalone="no"?>
<!-- Created with Inkscape (http://www.inkscape.org/) -->

<svg
   width="18.042824"
   height="31.529282"
   viewBox="0 0 4.7738303 8.3421223"
   version="1.1"
   id="svg1"
   inkscape:version="1.3.2 (091e20e, 2023-11-25, custom)"
   sodipodi:docname="plantaLUTADORAchatCOMPLETA.svg"
   xmlns:inkscape="http://www.inkscape.org/namespaces/inkscape"
   xmlns:sodipodi="http://sodipodi.sourceforge.net/DTD/sodipodi-0.dtd"
   xmlns="http://www.w3.org/2000/svg"
   xmlns:svg="http://www.w3.org/2000/svg">
  <sodipodi:namedview
     id="namedview1"
     pagecolor="#ffffff"
     bordercolor="#000000"
     borderopacity="0.25"
     inkscape:showpageshadow="2"
     inkscape:pageopacity="0.0"
     inkscape:pagecheckerboard="0"
     inkscape:deskcolor="#d1d1d1"
     inkscape:document-units="px"
     inkscape:zoom="5.1606349"
     inkscape:cx="73.053027"
     inkscape:cy="54.741326"
     inkscape:window-width="1920"
     inkscape:window-height="1017"
     inkscape:window-x="1072"
     inkscape:window-y="239"
     inkscape:window-maximized="1"
     inkscape:current-layer="layer1" />
  <defs
     id="defs1" />
  <g
     inkscape:label="Camada 1"
     inkscape:groupmode="layer"
     id="layer1"
     transform="translate(4.565157,-52.616428)">
    <path
       id="path19"
       style="fill:#5daf57;fill-opacity:1;stroke:#000000;stroke-width:0.529167;stroke-linecap:round;stroke-linejoin:round"
       d="m -1.0671687,52.882924 a 1.0651209,0.87773797 2.3239816 0 0 -1.11716,0.818124 1.0651209,0.87773797 2.3239816 0 0 0.009,0.15504 c -0.759977,0.442568 -1.8043935,1.158166 -2.0339151,1.85841 -0.3746986,1.14316 0.5445032,3.158015 1.0446469,4.123442 a 0.74604164,0.61030351 2.3595418 0 0 -0.05931,0.20482 0.74604164,0.61030351 2.3595418 0 0 0.7076072,0.649863 0.74604164,0.61030351 2.3595418 0 0 0.782409,-0.568332 0.74604164,0.61030351 2.3595418 0 0 -0.557073,-0.628833 c -0.270639,-0.991951 -0.584316,-2.518347 -0.254098,-3.396727 0.191622,-0.509715 0.891849,-1.084317 1.422566,-1.463722 a 1.0651209,0.87773797 2.3239816 0 0 1.06513304,-0.817576 1.0651209,0.87773797 2.3239816 0 0 -1.00981804,-0.934509 z"
       inkscape:transform-center-x="-0.30442837"
       inkscape:transform-center-y="-3.4972563" />
  </g>
</svg>
