<?xml version="1.0" encoding="UTF-8" standalone="no"?>
<!-- Created with Inkscape (http://www.inkscape.org/) -->

<svg
   width="150"
   height="100"
   viewBox="0 0 39.687499 26.458333"
   version="1.1"
   id="svg1"
   inkscape:version="1.3.2 (091e20e, 2023-11-25, custom)"
   sodipodi:docname="atiradorMORANGOcompleto.svg"
   xmlns:inkscape="http://www.inkscape.org/namespaces/inkscape"
   xmlns:sodipodi="http://sodipodi.sourceforge.net/DTD/sodipodi-0.dtd"
   xmlns="http://www.w3.org/2000/svg"
   xmlns:svg="http://www.w3.org/2000/svg">
  <sodipodi:namedview
     id="namedview1"
     pagecolor="#ffffff"
     bordercolor="#000000"
     borderopacity="0.25"
     inkscape:showpageshadow="2"
     inkscape:pageopacity="0.0"
     inkscape:pagecheckerboard="0"
     inkscape:deskcolor="#d1d1d1"
     inkscape:document-units="px"
     inkscape:zoom="2.5803175"
     inkscape:cx="56.969734"
     inkscape:cy="163.73954"
     inkscape:window-width="1920"
     inkscape:window-height="1017"
     inkscape:window-x="1072"
     inkscape:window-y="239"
     inkscape:window-maximized="1"
     inkscape:current-layer="layer1" />
  <defs
     id="defs1" />
  <g
     inkscape:label="Camada 1"
     inkscape:groupmode="layer"
     id="layer1">
    <path
       id="path2"
       style="fill:#6ba567;fill-opacity:1;stroke:#000000;stroke-width:0.529167;stroke-linecap:round;stroke-linejoin:round"
       inkscape:transform-center-x="-0.39810491"
       inkscape:transform-center-y="-2.4670525"
       d="m 10.317358,13.220457 c -0.7049102,0.01098 -1.2819692,0.257784 -1.3182662,0.577586 -0.0033,0.03646 7.17e-4,0.07321 0.01189,0.109462 -0.4862882,0.703639 -1.1884414,2.667766 -1.1732125,3.62874 0.028974,1.828274 2.7602167,2.681147 3.4142617,3.361702 -0.03721,0.165298 0.141283,0.368514 0.269234,0.497401 0.236299,0.810594 0.708219,1.812985 1.235067,2.361575 -0.04475,0.04567 -0.07096,0.09447 -0.07752,0.144397 -0.02693,0.237341 0.387541,0.442631 0.925525,0.458474 0.537977,0.01592 0.99609,-0.163578 1.023194,-0.400916 0.02306,-0.203677 -0.281283,-0.389148 -0.728638,-0.443834 -0.344579,-0.681297 -0.758521,-1.491197 -1.100708,-2.118366 0.155652,-0.179462 0.274209,-0.35168 0.270268,-0.461135 1.078824,-0.78281 4.280593,-1.950127 5.276878,-2.030763 0.741281,0.0058 1.153997,-0.356718 1.193288,-0.685679 0.039,-0.341417 0.02797,-0.727102 -0.740284,-0.749731 -0.768115,-0.02263 -1.422175,0.235888 -1.460892,0.577252 -0.0033,0.03649 7.17e-4,0.07284 0.01188,0.109129 -1.04127,0.08308 -4.101728,1.205721 -5.384167,2.05149 -0.885171,-0.703169 -2.7249405,-1.628191 -2.7486645,-2.176589 -0.04274,-0.987967 0.8759045,-3.194821 1.1711465,-3.574176 0.74128,0.0058 1.027628,-0.211275 1.066919,-0.540001 0.039,-0.341175 -0.226315,-0.672406 -0.994572,-0.695019 -0.04801,-0.0014 -0.09563,-0.0017 -0.142627,-9.99e-4 z"
       sodipodi:nodetypes="sccscccccccccccccccsccss" />
    <path
       style="fill:#a75924;fill-opacity:1;stroke:#000000;stroke-width:0.529167;stroke-linecap:round;stroke-linejoin:round"
       d="m 8.3264091,25.539052 c 0,0 2.2195689,-2.285076 3.3812129,-2.2994 0.734012,-0.0091 1.999511,0.922852 1.999511,0.922852 0,0 1.649867,-1.232459 2.563477,-1.07666 0.95418,0.162717 2.697115,2.564544 2.697115,2.564544"
       id="path1"
       sodipodi:nodetypes="cscsc" />
    <g
       id="g14"
       transform="translate(-0.03625303,3.0452547)">
      <path
         style="fill:#da1b37;fill-opacity:1;stroke:#000000;stroke-width:0.529167;stroke-linecap:round;stroke-linejoin:round;stroke-dasharray:none"
         d="M 23.31303,18.211684 C 20.097576,18.685312 16.2027,13.557929 17.33274,10.510556 18.480705,7.4148465 24.908585,6.0179582 27.039794,8.5397017 29.269983,11.178563 26.731193,17.708196 23.31303,18.211684 Z"
         id="path3"
         sodipodi:nodetypes="ssss" />
      <path
         style="fill:#1d8327;fill-opacity:1;stroke:#000000;stroke-width:0.529167;stroke-linecap:round;stroke-linejoin:round;stroke-dasharray:none"
         d="m 22.005591,7.7944021 2.03017,-2.4652062 -0.181265,1.1238439 1.957663,0.072506 L 23.3107,7.9031612 19.322866,9.0995113 16.422624,8.5919687 17.836492,8.4469567 16.85766,7.2143534 20.08418,7.7581489 20.301699,6.1992686 21.099265,7.5043778 22.513133,5.582967 Z"
         id="path4" />
      <path
         style="fill:#ffebee;fill-opacity:1;stroke:#000000;stroke-width:0.264583;stroke-linecap:round;stroke-linejoin:round;stroke-dasharray:none"
         d="m 20.881747,15.026882 c 0,0 2.043897,-1.931561 3.353406,-2.138929 0.83229,-0.131798 2.447078,0.634428 2.447078,0.634428 0,0 -1.332726,1.566751 -2.265813,1.848905 -1.13313,0.342645 -3.534671,-0.344404 -3.534671,-0.344404 z"
         id="path5"
         sodipodi:nodetypes="cscsc" />
      <path
         style="fill:none;fill-opacity:1;stroke:#000000;stroke-width:0.264583;stroke-linecap:round;stroke-linejoin:round;stroke-dasharray:none"
         d="m 21.28053,14.954376 5.232532,-1.368097"
         id="path6"
         sodipodi:nodetypes="cc" />
      <path
         style="fill:none;fill-opacity:1;stroke:#000000;stroke-width:0.264583;stroke-linecap:round;stroke-linejoin:round;stroke-dasharray:none"
         d="m 22.449691,13.866786 0.344403,1.522627"
         id="path7" />
      <path
         style="fill:none;fill-opacity:1;stroke:#000000;stroke-width:0.264583;stroke-linecap:round;stroke-linejoin:round;stroke-dasharray:none"
         d="m 23.365079,13.32299 0.616302,2.111739"
         id="path8" />
      <path
         style="fill:none;fill-opacity:1;stroke:#000000;stroke-width:0.264583;stroke-linecap:round;stroke-linejoin:round;stroke-dasharray:none"
         d="m 24.470797,12.924206 0.580049,2.08455"
         id="path9" />
      <path
         style="fill:none;fill-opacity:1;stroke:#000000;stroke-width:0.264583;stroke-linecap:round;stroke-linejoin:round;stroke-dasharray:none"
         d="m 25.630894,13.196104 0.217518,0.996958"
         id="path10" />
      <path
         style="fill:none;fill-opacity:1;stroke:#000000;stroke-width:0.264583;stroke-linecap:round;stroke-linejoin:round;stroke-dasharray:none"
         d="m 23.327636,11.510009 c 1.391745,-0.590193 1.434291,0.816154 0.2948,1.12793"
         id="path11"
         sodipodi:nodetypes="cc" />
      <path
         style="fill:#aaaaaa;fill-opacity:1;stroke:#000000;stroke-width:0.264583;stroke-linecap:round;stroke-linejoin:round;stroke-dasharray:none"
         d="m 20.17456,11.715088 c 0,0 0.398594,-1.236782 0.935669,-1.397095 0.49349,-0.147302 1.42273,0.602417 1.42273,0.602417 0,0 -0.41088,1.015917 -0.871582,1.179199 -0.482503,0.171009 -1.486817,-0.384521 -1.486817,-0.384521 z"
         id="path12"
         sodipodi:nodetypes="cscsc" />
      <path
         style="fill:#aaaaaa;fill-opacity:1;stroke:#000000;stroke-width:0.264583;stroke-linecap:round;stroke-linejoin:round;stroke-dasharray:none"
         d="m 23.564219,10.464358 c 0,0 0.398594,-1.2367816 0.935669,-1.3970946 0.49349,-0.147302 1.42273,0.602417 1.42273,0.602417 0,0 -0.41088,1.0159166 -0.871582,1.1791986 -0.482503,0.171009 -1.486817,-0.384521 -1.486817,-0.384521 z"
         id="path13"
         sodipodi:nodetypes="cscsc" />
      <ellipse
         style="fill:#00d675;fill-opacity:1;stroke:#000000;stroke-width:0.264583;stroke-linecap:round;stroke-linejoin:round;stroke-dasharray:none"
         id="path14"
         cx="21.571655"
         cy="11.202393"
         rx="0.3717041"
         ry="0.65368652" />
      <ellipse
         style="fill:#00d675;fill-opacity:1;stroke:#000000;stroke-width:0.264583;stroke-linecap:round;stroke-linejoin:round;stroke-dasharray:none"
         id="ellipse14"
         cx="24.955444"
         cy="9.9847412"
         rx="0.3717041"
         ry="0.65368652" />
    </g>
    <g
       id="g26"
       transform="translate(-11.492211,-4.2416048)">
      <path
         style="fill:#da1b37;fill-opacity:1;stroke:#000000;stroke-width:0.529167;stroke-linecap:round;stroke-linejoin:round;stroke-dasharray:none"
         d="M 23.31303,18.211684 C 20.097576,18.685312 16.2027,13.557929 17.33274,10.510556 18.480705,7.4148465 24.908585,6.0179582 27.039794,8.5397017 29.269983,11.178563 26.731193,17.708196 23.31303,18.211684 Z"
         id="path15"
         sodipodi:nodetypes="ssss" />
      <path
         style="fill:#1d8327;fill-opacity:1;stroke:#000000;stroke-width:0.529167;stroke-linecap:round;stroke-linejoin:round;stroke-dasharray:none"
         d="m 22.005591,7.7944021 2.03017,-2.4652062 -0.181265,1.1238439 1.957663,0.072506 L 23.3107,7.9031612 19.322866,9.0995113 16.422624,8.5919687 17.836492,8.4469567 16.85766,7.2143534 20.08418,7.7581489 20.301699,6.1992686 21.099265,7.5043778 22.513133,5.582967 Z"
         id="path16" />
      <path
         style="fill:#ffebee;fill-opacity:1;stroke:#000000;stroke-width:0.264583;stroke-linecap:round;stroke-linejoin:round;stroke-dasharray:none"
         d="m 20.881747,15.026882 c 0,0 2.043897,-1.931561 3.353406,-2.138929 0.83229,-0.131798 2.447078,0.634428 2.447078,0.634428 0,0 -1.332726,1.566751 -2.265813,1.848905 -1.13313,0.342645 -3.534671,-0.344404 -3.534671,-0.344404 z"
         id="path17"
         sodipodi:nodetypes="cscsc" />
      <path
         style="fill:none;fill-opacity:1;stroke:#000000;stroke-width:0.264583;stroke-linecap:round;stroke-linejoin:round;stroke-dasharray:none"
         d="m 21.28053,14.954376 5.232532,-1.368097"
         id="path18"
         sodipodi:nodetypes="cc" />
      <path
         style="fill:none;fill-opacity:1;stroke:#000000;stroke-width:0.264583;stroke-linecap:round;stroke-linejoin:round;stroke-dasharray:none"
         d="m 22.449691,13.866786 0.344403,1.522627"
         id="path19" />
      <path
         style="fill:none;fill-opacity:1;stroke:#000000;stroke-width:0.264583;stroke-linecap:round;stroke-linejoin:round;stroke-dasharray:none"
         d="m 23.365079,13.32299 0.616302,2.111739"
         id="path20" />
      <path
         style="fill:none;fill-opacity:1;stroke:#000000;stroke-width:0.264583;stroke-linecap:round;stroke-linejoin:round;stroke-dasharray:none"
         d="m 24.470797,12.924206 0.580049,2.08455"
         id="path21" />
      <path
         style="fill:none;fill-opacity:1;stroke:#000000;stroke-width:0.264583;stroke-linecap:round;stroke-linejoin:round;stroke-dasharray:none"
         d="m 25.630894,13.196104 0.217518,0.996958"
         id="path22" />
      <path
         style="fill:none;fill-opacity:1;stroke:#000000;stroke-width:0.264583;stroke-linecap:round;stroke-linejoin:round;stroke-dasharray:none"
         d="m 23.327636,11.510009 c 1.391745,-0.590193 1.434291,0.816154 0.2948,1.12793"
         id="path23"
         sodipodi:nodetypes="cc" />
      <path
         style="fill:#aaaaaa;fill-opacity:1;stroke:#000000;stroke-width:0.264583;stroke-linecap:round;stroke-linejoin:round;stroke-dasharray:none"
         d="m 20.17456,11.715088 c 0,0 0.398594,-1.236782 0.935669,-1.397095 0.49349,-0.147302 1.42273,0.602417 1.42273,0.602417 0,0 -0.41088,1.015917 -0.871582,1.179199 -0.482503,0.171009 -1.486817,-0.384521 -1.486817,-0.384521 z"
         id="path24"
         sodipodi:nodetypes="cscsc" />
      <path
         style="fill:#aaaaaa;fill-opacity:1;stroke:#000000;stroke-width:0.264583;stroke-linecap:round;stroke-linejoin:round;stroke-dasharray:none"
         d="m 23.564219,10.464358 c 0,0 0.398594,-1.2367816 0.935669,-1.3970946 0.49349,-0.147302 1.42273,0.602417 1.42273,0.602417 0,0 -0.41088,1.0159166 -0.871582,1.1791986 -0.482503,0.171009 -1.486817,-0.384521 -1.486817,-0.384521 z"
         id="path25"
         sodipodi:nodetypes="cscsc" />
      <ellipse
         style="fill:#00ffff;fill-opacity:1;stroke:#000000;stroke-width:0.264583;stroke-linecap:round;stroke-linejoin:round;stroke-dasharray:none"
         id="ellipse25"
         cx="21.571655"
         cy="11.202393"
         rx="0.3717041"
         ry="0.65368652" />
      <ellipse
         style="fill:#00ffff;fill-opacity:1;stroke:#000000;stroke-width:0.264583;stroke-linecap:round;stroke-linejoin:round;stroke-dasharray:none"
         id="ellipse26"
         cx="24.955444"
         cy="9.9847412"
         rx="0.3717041"
         ry="0.65368652" />
    </g>
    <g
       id="g38">
      <path
         style="fill:#da1b37;fill-opacity:1;stroke:#000000;stroke-width:0.396875;stroke-linecap:round;stroke-linejoin:round;stroke-dasharray:none"
         d="M 34.059764,11.710737 C 31.901575,12.02941 29.287363,8.5795387 30.045837,6.5291666 30.816343,4.446272 35.130688,3.5063999 36.56114,5.2031114 38.058026,6.9786235 36.354009,11.371974 34.059764,11.710737 Z"
         id="path26"
         sodipodi:nodetypes="ssss" />
      <path
         style="fill:#1d8327;fill-opacity:1;stroke:#000000;stroke-width:0.396875;stroke-linecap:round;stroke-linejoin:round;stroke-dasharray:none"
         d="m 33.18222,4.7016495 1.362635,-1.6586713 -0.121664,0.7561589 1.313969,0.048784 -1.67896,0.9269046 -2.676605,0.8049435 -1.946621,-0.3414913 0.948978,-0.097569 -0.656985,-0.8293358 2.165616,0.3658834 0.145998,-1.0488656 0.53532,0.8781201 0.948978,-1.292788 z"
         id="path27" />
      <path
         style="fill:#ffebee;fill-opacity:1;stroke:#000000;stroke-width:0.264583;stroke-linecap:round;stroke-linejoin:round;stroke-dasharray:none"
         d="m 32.427904,9.5678983 c 0,0 1.371849,-1.2996174 2.250782,-1.4391413 0.558626,-0.088678 1.64246,0.4268638 1.64246,0.4268638 0,0 -0.894516,1.0541613 -1.520797,1.2440038 -0.760548,0.2305424 -2.372445,-0.2317263 -2.372445,-0.2317263 z"
         id="path28"
         sodipodi:nodetypes="cscsc" />
      <path
         style="fill:none;fill-opacity:1;stroke:#000000;stroke-width:0.264583;stroke-linecap:round;stroke-linejoin:round;stroke-dasharray:none"
         d="M 32.695565,9.5191139 36.207601,8.5986135"
         id="path29"
         sodipodi:nodetypes="cc" />
      <path
         style="fill:none;fill-opacity:1;stroke:#000000;stroke-width:0.264583;stroke-linecap:round;stroke-linejoin:round;stroke-dasharray:none"
         d="M 33.480297,8.7873478 33.711458,9.811821"
         id="path30" />
      <path
         style="fill:none;fill-opacity:1;stroke:#000000;stroke-width:0.264583;stroke-linecap:round;stroke-linejoin:round;stroke-dasharray:none"
         d="m 34.094698,8.4214641 0.413658,1.420847"
         id="path31" />
      <path
         style="fill:none;fill-opacity:1;stroke:#000000;stroke-width:0.264583;stroke-linecap:round;stroke-linejoin:round;stroke-dasharray:none"
         d="m 34.836848,8.1531492 0.389325,1.4025533"
         id="path32" />
      <path
         style="fill:none;fill-opacity:1;stroke:#000000;stroke-width:0.264583;stroke-linecap:round;stroke-linejoin:round;stroke-dasharray:none"
         d="m 35.615497,8.336091 0.145996,0.6707859"
         id="path33" />
      <path
         style="fill:none;fill-opacity:1;stroke:#000000;stroke-width:0.264583;stroke-linecap:round;stroke-linejoin:round;stroke-dasharray:none"
         d="m 34.069567,7.2016312 c 0.934129,-0.3971011 0.962685,0.5491351 0.197868,0.7589082"
         id="path34"
         sodipodi:nodetypes="cc" />
      <path
         style="fill:none;fill-opacity:1;stroke:#000000;stroke-width:0.396875;stroke-linecap:round;stroke-linejoin:round;stroke-dasharray:none"
         d="m 31.428221,7.305908 c 0,0 1.743165,0.5255128 1.704713,-0.5767821"
         id="path37" />
      <path
         style="fill:none;fill-opacity:1;stroke:#000000;stroke-width:0.396875;stroke-linecap:round;stroke-linejoin:round;stroke-dasharray:none"
         d="m 34.337767,6.6394041 c 0,0 1.743165,0.5255128 1.704713,-0.5767821"
         id="path38" />
    </g>
  </g>
</svg>
