<?xml version="1.0" encoding="UTF-8" standalone="no"?>
<!-- Created with Inkscape (http://www.inkscape.org/) -->

<svg
   width="46.27647"
   height="44.10672"
   viewBox="0 0 12.243982 11.669903"
   version="1.1"
   id="svg1"
   inkscape:version="1.3.2 (091e20e, 2023-11-25, custom)"
   sodipodi:docname="atiradorMORANGOcompleto.svg"
   xmlns:inkscape="http://www.inkscape.org/namespaces/inkscape"
   xmlns:sodipodi="http://sodipodi.sourceforge.net/DTD/sodipodi-0.dtd"
   xmlns="http://www.w3.org/2000/svg"
   xmlns:svg="http://www.w3.org/2000/svg">
  <sodipodi:namedview
     id="namedview1"
     pagecolor="#ffffff"
     bordercolor="#000000"
     borderopacity="0.25"
     inkscape:showpageshadow="2"
     inkscape:pageopacity="0.0"
     inkscape:pagecheckerboard="0"
     inkscape:deskcolor="#d1d1d1"
     inkscape:document-units="px"
     inkscape:zoom="5.1606349"
     inkscape:cx="80.610236"
     inkscape:cy="46.409018"
     inkscape:window-width="1920"
     inkscape:window-height="1017"
     inkscape:window-x="1072"
     inkscape:window-y="239"
     inkscape:window-maximized="1"
     inkscape:current-layer="layer1" />
  <defs
     id="defs1" />
  <g
     inkscape:label="Camada 1"
     inkscape:groupmode="layer"
     id="layer1"
     transform="translate(-1.6999285,-50.006107)">
    <path
       id="path39"
       style="fill:#6ba567;fill-opacity:1;stroke:#000000;stroke-width:0.529167;stroke-linecap:round;stroke-linejoin:round"
       inkscape:transform-center-x="-0.39810491"
       inkscape:transform-center-y="-2.4670525"
       d="m 4.4443667,50.271056 c -0.7049102,0.01098 -1.2819692,0.257784 -1.3182662,0.577586 -0.0033,0.03646 7.17e-4,0.07321 0.01189,0.109462 -0.4862882,0.703639 -1.1884414,2.667766 -1.1732125,3.62874 0.028974,1.828274 2.7602171,2.681147 3.4142621,3.361702 -0.03721,0.165298 0.141283,0.368514 0.269234,0.497401 0.236299,0.810594 0.708219,1.812985 1.235067,2.361575 -0.04475,0.04567 -0.07096,0.09447 -0.07752,0.144397 -0.02693,0.237341 0.387541,0.442631 0.925525,0.458474 0.537977,0.01592 0.99609,-0.163578 1.023194,-0.400916 0.02306,-0.203677 -0.281283,-0.389148 -0.728638,-0.443834 -0.344579,-0.681297 -0.758521,-1.491197 -1.100708,-2.118366 0.155652,-0.179462 0.274209,-0.35168 0.270268,-0.461135 1.078824,-0.78281 4.2805929,-1.950127 5.2768779,-2.030763 0.741281,0.0058 1.153997,-0.356718 1.193288,-0.685679 0.039,-0.341417 0.02797,-0.727102 -0.740284,-0.749731 -0.768115,-0.02263 -1.422175,0.235888 -1.460892,0.577252 -0.0033,0.03649 7.17e-4,0.07284 0.01188,0.109129 -1.04127,0.08308 -4.1017279,1.205721 -5.3841669,2.05149 -0.885171,-0.703169 -2.7249409,-1.628191 -2.7486649,-2.176589 -0.04274,-0.987967 0.8759045,-3.194821 1.1711465,-3.574176 0.7412804,0.0058 1.0276284,-0.211275 1.0669194,-0.540001 0.039,-0.341175 -0.226315,-0.672406 -0.994572,-0.695019 -0.04801,-0.0014 -0.09563,-0.0017 -0.1426274,-9.99e-4 z"
       sodipodi:nodetypes="sccscccccccccccccccsccss" />
  </g>
</svg>
