<?xml version="1.0" encoding="UTF-8" standalone="no"?>
<!-- Created with Inkscape (http://www.inkscape.org/) -->

<svg
   width="45.328655"
   height="50.808723"
   viewBox="0 0 11.993206 13.443141"
   version="1.1"
   id="svg1"
   inkscape:version="1.3.2 (091e20e, 2023-11-25, custom)"
   sodipodi:docname="atiradorMORANGOcompleto.svg"
   xmlns:inkscape="http://www.inkscape.org/namespaces/inkscape"
   xmlns:sodipodi="http://sodipodi.sourceforge.net/DTD/sodipodi-0.dtd"
   xmlns="http://www.w3.org/2000/svg"
   xmlns:svg="http://www.w3.org/2000/svg">
  <sodipodi:namedview
     id="namedview1"
     pagecolor="#ffffff"
     bordercolor="#000000"
     borderopacity="0.25"
     inkscape:showpageshadow="2"
     inkscape:pageopacity="0.0"
     inkscape:pagecheckerboard="0"
     inkscape:deskcolor="#d1d1d1"
     inkscape:document-units="px"
     inkscape:zoom="5.1606349"
     inkscape:cx="80.610236"
     inkscape:cy="46.409018"
     inkscape:window-width="1920"
     inkscape:window-height="1017"
     inkscape:window-x="1072"
     inkscape:window-y="239"
     inkscape:window-maximized="1"
     inkscape:current-layer="layer1" />
  <defs
     id="defs1" />
  <g
     inkscape:label="Camada 1"
     inkscape:groupmode="layer"
     id="layer1"
     transform="translate(-1.5482351,-33.233284)">
    <g
       id="g63"
       transform="translate(-14.609971,28.168606)">
      <path
         style="fill:#da1b37;fill-opacity:1;stroke:#000000;stroke-width:0.529167;stroke-linecap:round;stroke-linejoin:round;stroke-dasharray:none"
         d="M 23.31303,18.211684 C 20.097576,18.685312 16.2027,13.557929 17.33274,10.510556 18.480705,7.4148465 24.908585,6.0179582 27.039794,8.5397017 29.269983,11.178563 26.731193,17.708196 23.31303,18.211684 Z"
         id="path52"
         sodipodi:nodetypes="ssss" />
      <path
         style="fill:#1d8327;fill-opacity:1;stroke:#000000;stroke-width:0.529167;stroke-linecap:round;stroke-linejoin:round;stroke-dasharray:none"
         d="m 22.005591,7.7944021 2.03017,-2.4652062 -0.181265,1.1238439 1.957663,0.072506 L 23.3107,7.9031612 19.322866,9.0995113 16.422624,8.5919687 17.836492,8.4469567 16.85766,7.2143534 20.08418,7.7581489 20.301699,6.1992686 21.099265,7.5043778 22.513133,5.582967 Z"
         id="path53" />
      <path
         style="fill:#ffebee;fill-opacity:1;stroke:#000000;stroke-width:0.264583;stroke-linecap:round;stroke-linejoin:round;stroke-dasharray:none"
         d="m 20.881747,15.026882 c 0,0 2.043897,-1.931561 3.353406,-2.138929 0.83229,-0.131798 2.447078,0.634428 2.447078,0.634428 0,0 -1.332726,1.566751 -2.265813,1.848905 -1.13313,0.342645 -3.534671,-0.344404 -3.534671,-0.344404 z"
         id="path54"
         sodipodi:nodetypes="cscsc" />
      <path
         style="fill:none;fill-opacity:1;stroke:#000000;stroke-width:0.264583;stroke-linecap:round;stroke-linejoin:round;stroke-dasharray:none"
         d="m 21.28053,14.954376 5.232532,-1.368097"
         id="path55"
         sodipodi:nodetypes="cc" />
      <path
         style="fill:none;fill-opacity:1;stroke:#000000;stroke-width:0.264583;stroke-linecap:round;stroke-linejoin:round;stroke-dasharray:none"
         d="m 22.449691,13.866786 0.344403,1.522627"
         id="path56" />
      <path
         style="fill:none;fill-opacity:1;stroke:#000000;stroke-width:0.264583;stroke-linecap:round;stroke-linejoin:round;stroke-dasharray:none"
         d="m 23.365079,13.32299 0.616302,2.111739"
         id="path57" />
      <path
         style="fill:none;fill-opacity:1;stroke:#000000;stroke-width:0.264583;stroke-linecap:round;stroke-linejoin:round;stroke-dasharray:none"
         d="m 24.470797,12.924206 0.580049,2.08455"
         id="path58" />
      <path
         style="fill:none;fill-opacity:1;stroke:#000000;stroke-width:0.264583;stroke-linecap:round;stroke-linejoin:round;stroke-dasharray:none"
         d="m 25.630894,13.196104 0.217518,0.996958"
         id="path59" />
      <path
         style="fill:none;fill-opacity:1;stroke:#000000;stroke-width:0.264583;stroke-linecap:round;stroke-linejoin:round;stroke-dasharray:none"
         d="m 23.327636,11.510009 c 1.391745,-0.590193 1.434291,0.816154 0.2948,1.12793"
         id="path60"
         sodipodi:nodetypes="cc" />
      <path
         style="fill:#aaaaaa;fill-opacity:1;stroke:#000000;stroke-width:0.264583;stroke-linecap:round;stroke-linejoin:round;stroke-dasharray:none"
         d="m 20.17456,11.715088 c 0,0 0.398594,-1.236782 0.935669,-1.397095 0.49349,-0.147302 1.42273,0.602417 1.42273,0.602417 0,0 -0.41088,1.015917 -0.871582,1.179199 -0.482503,0.171009 -1.486817,-0.384521 -1.486817,-0.384521 z"
         id="path61"
         sodipodi:nodetypes="cscsc" />
      <path
         style="fill:#aaaaaa;fill-opacity:1;stroke:#000000;stroke-width:0.264583;stroke-linecap:round;stroke-linejoin:round;stroke-dasharray:none"
         d="m 23.564219,10.464358 c 0,0 0.398594,-1.2367816 0.935669,-1.3970946 0.49349,-0.147302 1.42273,0.602417 1.42273,0.602417 0,0 -0.41088,1.0159166 -0.871582,1.1791986 -0.482503,0.171009 -1.486817,-0.384521 -1.486817,-0.384521 z"
         id="path62"
         sodipodi:nodetypes="cscsc" />
      <ellipse
         style="fill:#00ffff;fill-opacity:1;stroke:#000000;stroke-width:0.264583;stroke-linecap:round;stroke-linejoin:round;stroke-dasharray:none"
         id="ellipse62"
         cx="21.571655"
         cy="11.202393"
         rx="0.3717041"
         ry="0.65368652" />
      <ellipse
         style="fill:#00ffff;fill-opacity:1;stroke:#000000;stroke-width:0.264583;stroke-linecap:round;stroke-linejoin:round;stroke-dasharray:none"
         id="ellipse63"
         cx="24.955444"
         cy="9.9847412"
         rx="0.3717041"
         ry="0.65368652" />
    </g>
  </g>
</svg>
