<?xml version="1.0" encoding="UTF-8" standalone="no"?>
<!-- Created with Inkscape (http://www.inkscape.org/) -->

<svg
   width="30.583786"
   height="34.340378"
   viewBox="0 0 8.0919598 9.0858915"
   version="1.1"
   id="svg1"
   inkscape:version="1.3.2 (091e20e, 2023-11-25, custom)"
   sodipodi:docname="atiradorMORANGOcompleto.svg"
   xmlns:inkscape="http://www.inkscape.org/namespaces/inkscape"
   xmlns:sodipodi="http://sodipodi.sourceforge.net/DTD/sodipodi-0.dtd"
   xmlns="http://www.w3.org/2000/svg"
   xmlns:svg="http://www.w3.org/2000/svg">
  <sodipodi:namedview
     id="namedview1"
     pagecolor="#ffffff"
     bordercolor="#000000"
     borderopacity="0.25"
     inkscape:showpageshadow="2"
     inkscape:pageopacity="0.0"
     inkscape:pagecheckerboard="0"
     inkscape:deskcolor="#d1d1d1"
     inkscape:document-units="px"
     inkscape:zoom="5.1606349"
     inkscape:cx="80.610236"
     inkscape:cy="46.409018"
     inkscape:window-width="1920"
     inkscape:window-height="1017"
     inkscape:window-x="1072"
     inkscape:window-y="239"
     inkscape:window-maximized="1"
     inkscape:current-layer="layer1" />
  <defs
     id="defs1" />
  <g
     inkscape:label="Camada 1"
     inkscape:groupmode="layer"
     id="layer1"
     transform="translate(-29.59919,-36.342392)">
    <g
       id="g73"
       transform="translate(0.36253033,33.497802)">
      <path
         style="fill:#da1b37;fill-opacity:1;stroke:#000000;stroke-width:0.396875;stroke-linecap:round;stroke-linejoin:round;stroke-dasharray:none"
         d="M 34.059764,11.710737 C 31.901575,12.02941 29.287363,8.5795387 30.045837,6.5291666 30.816343,4.446272 35.130688,3.5063999 36.56114,5.2031114 38.058026,6.9786235 36.354009,11.371974 34.059764,11.710737 Z"
         id="path63"
         sodipodi:nodetypes="ssss" />
      <path
         style="fill:#1d8327;fill-opacity:1;stroke:#000000;stroke-width:0.396875;stroke-linecap:round;stroke-linejoin:round;stroke-dasharray:none"
         d="m 33.18222,4.7016495 1.362635,-1.6586713 -0.121664,0.7561589 1.313969,0.048784 -1.67896,0.9269046 -2.676605,0.8049435 -1.946621,-0.3414913 0.948978,-0.097569 -0.656985,-0.8293358 2.165616,0.3658834 0.145998,-1.0488656 0.53532,0.8781201 0.948978,-1.292788 z"
         id="path64" />
      <path
         style="fill:#ffebee;fill-opacity:1;stroke:#000000;stroke-width:0.264583;stroke-linecap:round;stroke-linejoin:round;stroke-dasharray:none"
         d="m 32.427904,9.5678983 c 0,0 1.371849,-1.2996174 2.250782,-1.4391413 0.558626,-0.088678 1.64246,0.4268638 1.64246,0.4268638 0,0 -0.894516,1.0541613 -1.520797,1.2440038 -0.760548,0.2305424 -2.372445,-0.2317263 -2.372445,-0.2317263 z"
         id="path65"
         sodipodi:nodetypes="cscsc" />
      <path
         style="fill:none;fill-opacity:1;stroke:#000000;stroke-width:0.264583;stroke-linecap:round;stroke-linejoin:round;stroke-dasharray:none"
         d="M 32.695565,9.5191139 36.207601,8.5986135"
         id="path66"
         sodipodi:nodetypes="cc" />
      <path
         style="fill:none;fill-opacity:1;stroke:#000000;stroke-width:0.264583;stroke-linecap:round;stroke-linejoin:round;stroke-dasharray:none"
         d="M 33.480297,8.7873478 33.711458,9.811821"
         id="path67" />
      <path
         style="fill:none;fill-opacity:1;stroke:#000000;stroke-width:0.264583;stroke-linecap:round;stroke-linejoin:round;stroke-dasharray:none"
         d="m 34.094698,8.4214641 0.413658,1.420847"
         id="path68" />
      <path
         style="fill:none;fill-opacity:1;stroke:#000000;stroke-width:0.264583;stroke-linecap:round;stroke-linejoin:round;stroke-dasharray:none"
         d="m 34.836848,8.1531492 0.389325,1.4025533"
         id="path69" />
      <path
         style="fill:none;fill-opacity:1;stroke:#000000;stroke-width:0.264583;stroke-linecap:round;stroke-linejoin:round;stroke-dasharray:none"
         d="m 35.615497,8.336091 0.145996,0.6707859"
         id="path70" />
      <path
         style="fill:none;fill-opacity:1;stroke:#000000;stroke-width:0.264583;stroke-linecap:round;stroke-linejoin:round;stroke-dasharray:none"
         d="m 34.069567,7.2016312 c 0.934129,-0.3971011 0.962685,0.5491351 0.197868,0.7589082"
         id="path71"
         sodipodi:nodetypes="cc" />
      <path
         style="fill:none;fill-opacity:1;stroke:#000000;stroke-width:0.396875;stroke-linecap:round;stroke-linejoin:round;stroke-dasharray:none"
         d="m 31.428221,7.305908 c 0,0 1.743165,0.5255128 1.704713,-0.5767821"
         id="path72" />
      <path
         style="fill:none;fill-opacity:1;stroke:#000000;stroke-width:0.396875;stroke-linecap:round;stroke-linejoin:round;stroke-dasharray:none"
         d="m 34.337767,6.6394041 c 0,0 1.743165,0.5255128 1.704713,-0.5767821"
         id="path73" />
    </g>
  </g>
</svg>
