<?xml version="1.0" encoding="UTF-8" standalone="no"?>
<!-- Created with Inkscape (http://www.inkscape.org/) -->

<svg
   width="43.740433"
   height="24.809616"
   viewBox="0 0 11.572989 6.5642108"
   version="1.1"
   id="svg1"
   inkscape:version="1.3.2 (091e20e, 2023-11-25, custom)"
   sodipodi:docname="PLANTAatiradorFF.svg"
   xmlns:inkscape="http://www.inkscape.org/namespaces/inkscape"
   xmlns:sodipodi="http://sodipodi.sourceforge.net/DTD/sodipodi-0.dtd"
   xmlns="http://www.w3.org/2000/svg"
   xmlns:svg="http://www.w3.org/2000/svg">
  <sodipodi:namedview
     id="namedview1"
     pagecolor="#ffffff"
     bordercolor="#000000"
     borderopacity="0.25"
     inkscape:showpageshadow="2"
     inkscape:pageopacity="0.0"
     inkscape:pagecheckerboard="0"
     inkscape:deskcolor="#d1d1d1"
     inkscape:document-units="px"
     inkscape:zoom="4.2736508"
     inkscape:cx="86.109048"
     inkscape:cy="53.233175"
     inkscape:window-width="1920"
     inkscape:window-height="1017"
     inkscape:window-x="1072"
     inkscape:window-y="239"
     inkscape:window-maximized="1"
     inkscape:current-layer="layer1" />
  <defs
     id="defs1" />
  <g
     inkscape:label="Camada 1"
     inkscape:groupmode="layer"
     id="layer1"
     transform="translate(-22.847111,-48.119388)">
    <path
       style="fill:#dad4c7;fill-opacity:1;stroke:#000000;stroke-width:0.529167;stroke-linecap:round;stroke-linejoin:round;stroke-dasharray:none;stroke-opacity:1"
       d="m 24.243102,48.448656 c 0.94024,-0.213904 2.007178,0.08113 2.693895,1.054126 0.467404,0.662257 -0.119567,2.428817 -0.119567,2.428817 0,0 3.044747,-0.349505 4.550844,-0.160641 0.417638,0.05237 1.211871,0.354759 1.211871,0.354759 l 1.575377,0.492238 -0.141133,0.546963 -1.59699,-0.245544 -0.158705,0.747405 -1.424369,0.652057 -0.30824,-1.269953 c 0,0 -3.098094,1.74703 -4.634028,1.287544 -1.02776,-0.307466 -1.706927,-1.432117 -2.118268,-2.422887 -0.435369,-1.048639 -0.975839,-2.034816 -0.442216,-2.841625 0,0 0.09435,-0.437353 0.91153,-0.62326 z"
       id="path11"
       sodipodi:nodetypes="sscscccccccssss"
       inkscape:transform-center-x="-5.388688"
       inkscape:transform-center-y="1.1097512" />
  </g>
</svg>
