<?xml version="1.0" encoding="UTF-8" standalone="no"?>
<!-- Created with Inkscape (http://www.inkscape.org/) -->

<svg
   width="43.709599"
   height="24.828293"
   viewBox="0 0 11.564831 6.5691524"
   version="1.1"
   id="svg1"
   inkscape:version="1.3.2 (091e20e, 2023-11-25, custom)"
   sodipodi:docname="PLANTAatiradorFF.svg"
   xmlns:inkscape="http://www.inkscape.org/namespaces/inkscape"
   xmlns:sodipodi="http://sodipodi.sourceforge.net/DTD/sodipodi-0.dtd"
   xmlns="http://www.w3.org/2000/svg"
   xmlns:svg="http://www.w3.org/2000/svg">
  <sodipodi:namedview
     id="namedview1"
     pagecolor="#ffffff"
     bordercolor="#000000"
     borderopacity="0.25"
     inkscape:showpageshadow="2"
     inkscape:pageopacity="0.0"
     inkscape:pagecheckerboard="0"
     inkscape:deskcolor="#d1d1d1"
     inkscape:document-units="px"
     inkscape:zoom="4.2736508"
     inkscape:cx="86.109048"
     inkscape:cy="53.233175"
     inkscape:window-width="1920"
     inkscape:window-height="1017"
     inkscape:window-x="1072"
     inkscape:window-y="239"
     inkscape:window-maximized="1"
     inkscape:current-layer="layer1" />
  <defs
     id="defs1" />
  <g
     inkscape:label="Camada 1"
     inkscape:groupmode="layer"
     id="layer1"
     transform="translate(3.8311196,-48.928035)">
    <path
       style="fill:#dad4c7;fill-opacity:1;stroke:#000000;stroke-width:0.529167;stroke-linecap:round;stroke-linejoin:round;stroke-dasharray:none;stroke-opacity:1"
       d="m -2.4310602,49.255628 c 0.94086,-0.211156 2.00692995,0.08699 2.69080195,1.061992 0.465467,0.663619 -0.126661,2.428455 -0.126661,2.428455 0,0 3.04575405,-0.340606 4.55129305,-0.147349 0.417484,0.05359 1.210829,0.358299 1.210829,0.358299 l 1.573931,0.49684 -0.14273,0.546549 -1.596265,-0.250208 -0.160888,0.746937 -1.426268,0.647894 -0.30453,-1.270849 c 0,0 -3.10318405,1.737972 -4.63776805,1.274002 -1.02685995,-0.310463 -1.70273695,-1.437098 -2.11118195,-2.429064 -0.432304,-1.049906 -0.9698901,-2.037659 -0.433912,-2.842905 0,0 0.09563,-0.437076 0.913347,-0.620595 z"
       id="path27"
       sodipodi:nodetypes="sscscccccccssss"
       inkscape:transform-center-x="-4.5985641"
       inkscape:transform-center-y="1.5738876" />
  </g>
</svg>
