<?xml version="1.0" encoding="UTF-8" standalone="no"?>
<!-- Created with Inkscape (http://www.inkscape.org/) -->

<svg
   width="81.627701"
   height="81.817673"
   viewBox="0 0 21.597329 21.647592"
   version="1.1"
   id="svg1"
   inkscape:version="1.3.2 (091e20e, 2023-11-25, custom)"
   sodipodi:docname="PLANTAatiradorFF.svg"
   xmlns:inkscape="http://www.inkscape.org/namespaces/inkscape"
   xmlns:sodipodi="http://sodipodi.sourceforge.net/DTD/sodipodi-0.dtd"
   xmlns="http://www.w3.org/2000/svg"
   xmlns:svg="http://www.w3.org/2000/svg">
  <sodipodi:namedview
     id="namedview1"
     pagecolor="#ffffff"
     bordercolor="#000000"
     borderopacity="0.25"
     inkscape:showpageshadow="2"
     inkscape:pageopacity="0.0"
     inkscape:pagecheckerboard="0"
     inkscape:deskcolor="#d1d1d1"
     inkscape:document-units="px"
     inkscape:zoom="4.2736508"
     inkscape:cx="86.109048"
     inkscape:cy="53.233175"
     inkscape:window-width="1920"
     inkscape:window-height="1017"
     inkscape:window-x="1072"
     inkscape:window-y="239"
     inkscape:window-maximized="1"
     inkscape:current-layer="layer1" />
  <defs
     id="defs1" />
  <g
     inkscape:label="Camada 1"
     inkscape:groupmode="layer"
     id="layer1"
     transform="translate(-9.7741414,-2.5298741)">
    <path
       style="fill:#dad4c7;fill-opacity:1;stroke:#000000;stroke-width:0.529167;stroke-linecap:round;stroke-linejoin:round;stroke-dasharray:none;stroke-opacity:1"
       d="m 21.194472,10.990042 c 0.94024,-0.213904 2.007178,0.08113 2.693895,1.054126 0.467404,0.662257 -0.119567,2.428817 -0.119567,2.428817 0,0 3.044747,-0.349505 4.550844,-0.160641 0.417638,0.05237 1.211871,0.354759 1.211871,0.354759 l 1.575377,0.492238 -0.141133,0.546963 -1.59699,-0.245544 -0.158705,0.747405 -1.424369,0.652057 -0.30824,-1.269953 c 0,0 -3.098094,1.74703 -4.634028,1.287544 -1.02776,-0.307466 -1.706927,-1.432117 -2.118268,-2.422887 -0.435369,-1.048639 -0.975839,-2.034816 -0.442216,-2.841625 0,0 0.09435,-0.437353 0.91153,-0.62326 z"
       id="path13"
       sodipodi:nodetypes="sscscccccccssss"
       inkscape:transform-center-x="-5.388688"
       inkscape:transform-center-y="1.1097512" />
    <g
       id="g13"
       transform="translate(-12.536851,-0.61910376)">
      <g
         id="g12"
         transform="translate(9.9985258,0.71196932)">
        <ellipse
           style="fill:#dad4c7;fill-opacity:1;stroke:#000000;stroke-width:0.529167;stroke-linecap:round;stroke-linejoin:round;stroke-dasharray:none;stroke-opacity:1"
           id="path9"
           cx="19.780365"
           cy="17.56707"
           rx="5.7886205"
           ry="6.2374706" />
        <g
           id="g10"
           style="stroke:none">
          <path
             style="fill:#4c524a;fill-opacity:1;stroke:none;stroke-width:0.264583;stroke-linecap:round;stroke-linejoin:round;stroke-dasharray:none;stroke-opacity:1"
             d="m 15.208064,13.606816 -0.04002,2.304151 8.791274,-0.247642 0.297369,-2.325395 c 0,0 1.701218,3.283531 1.479894,4.973164 -0.410728,3.135585 -3.111605,5.599801 -5.665443,5.650422 -3.04235,0.0603 -6.33608,-2.819569 -6.234171,-6.5647 0.0331,-1.216334 1.371098,-3.79 1.371097,-3.79 z"
             id="path10"
             sodipodi:nodetypes="ccccsssc" />
        </g>
        <g
           id="g11">
          <ellipse
             style="fill:none;fill-opacity:1;stroke:#000000;stroke-width:0.529167;stroke-linecap:round;stroke-linejoin:round;stroke-dasharray:none;stroke-opacity:1"
             id="ellipse10"
             cx="19.764887"
             cy="17.582546"
             rx="5.7886205"
             ry="6.2374706" />
        </g>
      </g>
      <path
         style="fill:none;fill-opacity:1;stroke:#000000;stroke-width:0.264583;stroke-linecap:round;stroke-linejoin:round;stroke-dasharray:none;stroke-opacity:1"
         d="m 25.135613,14.79658 0.03096,1.795401 8.760317,-0.247642 0.247642,-1.702535"
         id="path12" />
    </g>
    <g
       id="g8"
       inkscape:transform-center-x="0.39331259"
       inkscape:transform-center-y="-5.8089056"
       transform="rotate(-2.6086933,18.306797,73.492933)">
      <g
         id="g7"
         transform="translate(0.5262382,-1.8573113)">
        <ellipse
           style="fill:#dad4c7;fill-opacity:1;stroke:none;stroke-width:0.264583;stroke-linecap:round;stroke-linejoin:round;stroke-dasharray:none"
           id="path7"
           cx="19.197422"
           cy="11.444636"
           rx="5.458878"
           ry="6.106926" />
        <g
           id="g4"
           transform="translate(2.7240566,1.0524764)">
          <g
             id="g1">
            <circle
               style="fill:#fffdf3;fill-opacity:1;stroke:#000000;stroke-width:0.264583;stroke-linecap:round;stroke-linejoin:round;stroke-dasharray:none"
               id="path1"
               cx="14.731044"
               cy="8.3395653"
               r="1.0287653" />
            <circle
               style="fill:#818181;fill-opacity:1;stroke:#000000;stroke-width:0.264583;stroke-linecap:round;stroke-linejoin:round;stroke-dasharray:none"
               id="circle1"
               cx="15.10315"
               cy="8.3505096"
               r="0.6347701" />
          </g>
          <g
             id="g3"
             transform="translate(4.2099056)">
            <circle
               style="fill:#fffdf3;fill-opacity:1;stroke:#000000;stroke-width:0.264583;stroke-linecap:round;stroke-linejoin:round;stroke-dasharray:none"
               id="circle2"
               cx="14.731044"
               cy="8.3395653"
               r="1.0287653" />
            <circle
               style="fill:#818181;fill-opacity:1;stroke:#000000;stroke-width:0.264583;stroke-linecap:round;stroke-linejoin:round;stroke-dasharray:none"
               id="circle3"
               cx="15.10315"
               cy="8.3505096"
               r="0.6347701" />
          </g>
          <path
             style="fill:none;stroke:#000000;stroke-width:0.265;stroke-linecap:round;stroke-linejoin:round;stroke-dasharray:none"
             d="m 16.857372,9.2250631 c 0,0 1.092855,0.195096 1.052599,0.611304 -0.04235,0.4378709 -1.102385,0.7258509 -1.102385,0.7258509 l 2.730049,0.28289 c 0,0 -1.219332,0.613087 -2.552406,0.675436 -1.15551,0.05404 -2.109886,-0.392018 -2.109886,-0.392018"
             id="path2"
             sodipodi:nodetypes="csccsc" />
          <path
             style="fill:#ffffff;fill-opacity:1;stroke:#000000;stroke-width:0.264583;stroke-linecap:round;stroke-linejoin:round"
             d="m 19.046875,11.068045 c 0,0 0.05361,0.596028 -0.283862,0.649587 -0.225597,0.0358 -0.431384,-0.405252 -0.431384,-0.405252 z"
             id="path3"
             sodipodi:nodetypes="cscc" />
          <path
             style="fill:#ffffff;fill-opacity:1;stroke:#000000;stroke-width:0.264583;stroke-linecap:round;stroke-linejoin:round"
             d="m 17.810116,11.449305 c 0,0 -0.02141,0.574838 -0.363063,0.569503 -0.275153,-0.0043 -0.356375,-0.464558 -0.356375,-0.464558 z"
             id="path4"
             sodipodi:nodetypes="cscc" />
          <path
             style="fill:#ffffff;fill-opacity:1;stroke:#000000;stroke-width:0.264583;stroke-linecap:round;stroke-linejoin:round"
             d="m 16.294313,11.566535 c 0,0 -0.223515,0.53005 -0.541163,0.404158 -0.255827,-0.101374 -0.168856,-0.5606 -0.168856,-0.5606 z"
             id="path5"
             sodipodi:nodetypes="cscc" />
        </g>
        <path
           style="fill:#4c683b;fill-opacity:1;stroke:#000000;stroke-width:0.264583;stroke-linecap:round;stroke-linejoin:round;stroke-dasharray:none"
           d="m 24.733196,10.834316 c 0,0 -0.515261,-3.6634911 -1.888267,-4.7051885 -1.884451,-1.4297293 -4.960603,-2.142085 -7.026828,-0.9905662 -2.106699,1.174075 -2.44843,4.3085366 -2.569281,6.7172767 -0.06034,1.20256 0.77388,3.34316 0.77388,3.34316 l 0.804835,-2.197819 0.526239,0.681014 -0.154776,-3.188384 0.402417,0.495283 0.650059,-3.7455779 0.216686,0.2785967 1.145342,-0.6191038 1.362028,0.7119694 1.454894,-0.7738798 0.402418,0.6810142 1.238207,-0.4952831 0.71197,0.9905662 0.216686,-0.309552 0.433373,2.7859671 0.557193,-0.185731 0.06191,1.919221 z"
           id="path6"
           sodipodi:nodetypes="cssscccccccccccccccccc" />
      </g>
      <path
         style="fill:none;fill-opacity:1;stroke:#000000;stroke-width:0.529167;stroke-linecap:round;stroke-linejoin:round;stroke-dasharray:none;stroke-opacity:1"
         d="m 24.083136,13.589328 c 0.924651,-1.539477 0.960023,-3.022052 0.959611,-4.0241743 l 0.278597,-0.495284 C 25.084332,7.3812305 24.974733,5.6120752 23.556898,4.4885024 20.456613,2.4566608 17.63994,1.947574 15.075177,4.364682 c -1.220801,1.583247 -1.40861,3.6330068 -1.362029,5.78862 l 0.77388,3.126474 0.433373,-0.711969 c 0.119567,0.424117 0.183581,0.862123 0.619103,1.207252"
         id="path8"
         sodipodi:nodetypes="ccccccccc" />
    </g>
    <path
       style="fill:#dad4c7;fill-opacity:1;stroke:#000000;stroke-width:0.529167;stroke-linecap:round;stroke-linejoin:round;stroke-dasharray:none;stroke-opacity:1"
       d="m 11.174201,14.644892 c 0.94086,-0.211156 2.00693,0.08699 2.690802,1.061992 0.465467,0.663619 -0.126661,2.428455 -0.126661,2.428455 0,0 3.045754,-0.340606 4.551293,-0.147349 0.417484,0.05359 1.210829,0.358299 1.210829,0.358299 l 1.573931,0.49684 -0.14273,0.546549 -1.596265,-0.250208 -0.160888,0.746937 -1.426268,0.647894 -0.30453,-1.270849 c 0,0 -3.103184,1.737972 -4.637768,1.274002 -1.02686,-0.310463 -1.702737,-1.437098 -2.111182,-2.429064 -0.432304,-1.049906 -0.9698906,-2.037659 -0.433912,-2.842905 0,0 0.09563,-0.437076 0.913347,-0.620595 z"
       id="path14"
       sodipodi:nodetypes="sscscccccccssss"
       inkscape:transform-center-x="-4.5985641"
       inkscape:transform-center-y="1.5738876" />
  </g>
</svg>
