<?xml version="1.0" encoding="UTF-8" standalone="no"?>
<!-- Created with Inkscape (http://www.inkscape.org/) -->

<svg
   width="25.259399"
   height="39.576187"
   viewBox="0 0 6.6832159 10.4712"
   version="1.1"
   id="svg1"
   inkscape:version="1.3.2 (091e20e, 2023-11-25, custom)"
   sodipodi:docname="ESQcompleto.svg"
   xmlns:inkscape="http://www.inkscape.org/namespaces/inkscape"
   xmlns:sodipodi="http://sodipodi.sourceforge.net/DTD/sodipodi-0.dtd"
   xmlns="http://www.w3.org/2000/svg"
   xmlns:svg="http://www.w3.org/2000/svg">
  <sodipodi:namedview
     id="namedview1"
     pagecolor="#ffffff"
     bordercolor="#000000"
     borderopacity="0.25"
     inkscape:showpageshadow="2"
     inkscape:pageopacity="0.0"
     inkscape:pagecheckerboard="0"
     inkscape:deskcolor="#d1d1d1"
     inkscape:document-units="px"
     inkscape:zoom="3.6491199"
     inkscape:cx="85.500067"
     inkscape:cy="87.281319"
     inkscape:window-width="1920"
     inkscape:window-height="1017"
     inkscape:window-x="1072"
     inkscape:window-y="239"
     inkscape:window-maximized="1"
     inkscape:current-layer="layer1" />
  <defs
     id="defs1" />
  <g
     inkscape:label="Camada 1"
     inkscape:groupmode="layer"
     id="layer1"
     transform="translate(-48.241364,-59.151004)">
    <g
       id="g40"
       transform="rotate(-89.882099,65.822995,31.284413)">
      <g
         id="g39"
         inkscape:transform-center-x="-2.1187446"
         inkscape:transform-center-y="3.9666446"
         transform="rotate(19.662167,36.654038,14.985634)">
        <path
           id="path37"
           style="fill:#cccccc;fill-opacity:1;stroke:#000000;stroke-width:0.529167;stroke-linecap:round;stroke-linejoin:round;stroke-dasharray:none;stroke-opacity:1"
           d="m 36.657194,14.030151 a 1.0253906,1.0253906 0 0 0 -1.025778,1.025261 1.0253906,1.0253906 0 0 0 0.476974,0.866097 v 2.627746 a 1.0253906,1.0253906 0 0 0 -0.313159,0.312126 h -2.309937 l 0.338998,-1.010274 -1.838131,-0.667143 -0.424264,1.047998 -2.026749,-0.571541 -0.423747,2.763138 3.770312,0.238229 0.195854,-0.583427 a 1.0253906,1.0253906 0 0 0 0.09198,-0.111621 h 2.631364 a 1.0253906,1.0253906 0 0 0 0.04082,0.05116 1.0253906,1.0253906 0 0 0 0.05168,0.0646 1.0253906,1.0253906 0 0 0 0.08992,0.08992 1.0253906,1.0253906 0 0 0 0.07493,0.06304 1.0253906,1.0253906 0 0 0 0.08888,0.05581 1.0253906,1.0253906 0 0 0 0.107487,0.05839 1.0253906,1.0253906 0 0 0 0.04754,0.01654 1.0253906,1.0253906 0 0 0 0.363803,0.07286 1.0253906,1.0253906 0 0 0 1.02526,-1.025777 1.0253906,1.0253906 0 0 0 -0.101803,-0.436666 1.0253906,1.0253906 0 0 0 -0.0248,-0.04496 1.0253906,1.0253906 0 0 0 -0.08527,-0.135909 1.0253906,1.0253906 0 0 0 -0.05478,-0.06408 1.0253906,1.0253906 0 0 0 -0.08733,-0.08785 1.0253906,1.0253906 0 0 0 -0.08837,-0.06925 1.0253906,1.0253906 0 0 0 -0.03514,-0.02739 v -2.630847 a 1.0253906,1.0253906 0 0 0 0.468705,-0.860929 1.0253906,1.0253906 0 0 0 -1.02526,-1.025261 z" />
        <path
           style="fill:none;fill-opacity:1;stroke:#000000;stroke-width:0.264583;stroke-linecap:round;stroke-linejoin:round;stroke-dasharray:none;stroke-opacity:1"
           d="m 29.564348,18.615933 1.758272,0.36253"
           id="path38" />
        <path
           style="fill:none;fill-opacity:1;stroke:#000000;stroke-width:0.264583;stroke-linecap:round;stroke-linejoin:round;stroke-dasharray:none;stroke-opacity:1"
           d="m 29.564348,19.377247 1.758272,0.36253"
           id="path39" />
      </g>
    </g>
  </g>
</svg>
