<?xml version="1.0" encoding="UTF-8" standalone="no"?>
<!-- Created with Inkscape (http://www.inkscape.org/) -->

<svg
   width="42.726482"
   height="54.054764"
   viewBox="0 0 11.304715 14.30199"
   version="1.1"
   id="svg1"
   inkscape:version="1.3.2 (091e20e, 2023-11-25, custom)"
   sodipodi:docname="ESQcompleto.svg"
   xmlns:inkscape="http://www.inkscape.org/namespaces/inkscape"
   xmlns:sodipodi="http://sodipodi.sourceforge.net/DTD/sodipodi-0.dtd"
   xmlns="http://www.w3.org/2000/svg"
   xmlns:svg="http://www.w3.org/2000/svg">
  <sodipodi:namedview
     id="namedview1"
     pagecolor="#ffffff"
     bordercolor="#000000"
     borderopacity="0.25"
     inkscape:showpageshadow="2"
     inkscape:pageopacity="0.0"
     inkscape:pagecheckerboard="0"
     inkscape:deskcolor="#d1d1d1"
     inkscape:document-units="px"
     inkscape:zoom="3.6491199"
     inkscape:cx="85.500067"
     inkscape:cy="87.281319"
     inkscape:window-width="1920"
     inkscape:window-height="1017"
     inkscape:window-x="1072"
     inkscape:window-y="239"
     inkscape:window-maximized="1"
     inkscape:current-layer="layer1" />
  <defs
     id="defs1" />
  <g
     inkscape:label="Camada 1"
     inkscape:groupmode="layer"
     id="layer1"
     transform="translate(-8.5888101,-56.16846)">
    <g
       id="g27"
       transform="rotate(2.5941265,-971.42511,274.72483)"
       inkscape:transform-center-x="4.3692769"
       inkscape:transform-center-y="1.6678399">
      <g
         id="g23"
         transform="rotate(-13.739354,3.6472577,22.556846)">
        <path
           style="fill:#803300;fill-opacity:1;stroke:#000000;stroke-width:0.529167;stroke-linecap:round;stroke-linejoin:round;stroke-dasharray:none;stroke-opacity:1"
           d="M 4.6014403,25.570679 3.8452149,25.916748 0.4067337,12.06264 1.2526809,11.819109 Z"
           id="path22"
           sodipodi:nodetypes="ccccc" />
        <path
           style="fill:#6668e1;fill-opacity:1;stroke:#000000;stroke-width:0.529167;stroke-linecap:round;stroke-linejoin:round;stroke-dasharray:none;stroke-opacity:1"
           d="m 1.2561035,11.85608 7.7416991,1.038208 -6.331787,4.447632 z"
           id="path23"
           sodipodi:nodetypes="cccc" />
        <text
           xml:space="preserve"
           style="font-style:normal;font-variant:normal;font-weight:normal;font-stretch:normal;font-size:2.3317px;font-family:Calibri;-inkscape-font-specification:Calibri;text-align:center;text-anchor:middle;fill:#000000;fill-opacity:1;stroke:none;stroke-width:0.529167;stroke-linecap:round;stroke-linejoin:round;stroke-dasharray:none;stroke-opacity:1"
           x="1.0986674"
           y="15.463038"
           id="text23"
           transform="rotate(-12.244275)"><tspan
             sodipodi:role="line"
             id="tspan23"
             style="fill:#000000;fill-opacity:1;stroke:none;stroke-width:0.529167"
             x="1.0986674"
             y="15.463038">666</tspan></text>
      </g>
      <g
         id="g26">
        <path
           id="path24"
           style="fill:#cccccc;fill-opacity:1;stroke:#000000;stroke-width:0.529167;stroke-linecap:round;stroke-linejoin:round;stroke-dasharray:none;stroke-opacity:1"
           d="m 7.944792,16.024068 c -0.5664083,-2.14e-4 -1.0257065,0.458853 -1.025778,1.025261 1.07e-4,0.35135 0.1800988,0.678182 0.476974,0.866097 v 2.627746 c -0.1258424,0.08003 -0.2327129,0.186549 -0.313159,0.312126 l -2.0868852,0.948486 -0.5561822,-0.87636 -2.6552161,0.335989 0.8523114,3.706532 2.3385626,-1.041072 0.2618553,-1.096629 1.8512342,-0.871582 c 0.013059,0.01748 0.026672,0.03454 0.04082,0.05116 0.016351,0.02222 0.033591,0.04377 0.05168,0.0646 0.028084,0.03181 0.058115,0.06184 0.08992,0.08992 0.023958,0.02219 0.048964,0.04323 0.07493,0.06304 0.028655,0.02011 0.05832,0.03874 0.08888,0.05581 0.034635,0.02158 0.070528,0.04108 0.107487,0.05839 0.015709,0.0059 0.03156,0.01142 0.04754,0.01654 0.1158283,0.04621 0.2391137,0.0709 0.363803,0.07286 0.5664075,-7.2e-5 1.0254734,-0.45937 1.02526,-1.025777 -0.00131,-0.151283 -0.036071,-0.300403 -0.101803,-0.436666 -0.00789,-0.01519 -0.016159,-0.03018 -0.0248,-0.04496 -0.02483,-0.04746 -0.053341,-0.0929 -0.08527,-0.135909 C 8.749582,20.76757 8.731307,20.74619 8.712176,20.72559 8.684863,20.69457 8.6557,20.66524 8.624846,20.63774 8.596676,20.61306 8.567175,20.58994 8.536476,20.56849 8.524962,20.55909 8.513246,20.54997 8.501336,20.5411 V 17.910248 C 8.7935074,17.721369 8.9699763,17.397226 8.970041,17.049319 8.9699694,16.483113 8.510987,16.02413 7.944781,16.024058 Z"
           sodipodi:nodetypes="cccccccccccccccccccccccccccccccc" />
        <path
           style="fill:none;fill-opacity:1;stroke:#000000;stroke-width:0.264583;stroke-linecap:round;stroke-linejoin:round;stroke-dasharray:none;stroke-opacity:1"
           d="M 2.1570554,22.259362 2.9908751,21.987464"
           id="path25" />
        <path
           style="fill:none;fill-opacity:1;stroke:#000000;stroke-width:0.264583;stroke-linecap:round;stroke-linejoin:round;stroke-dasharray:none;stroke-opacity:1"
           d="M 2.5377123,23.510092 3.1540137,23.292574"
           id="path26" />
      </g>
    </g>
  </g>
</svg>
