<?xml version="1.0" encoding="UTF-8" standalone="no"?>
<!-- Created with Inkscape (http://www.inkscape.org/) -->

<svg
   width="150"
   height="150"
   viewBox="0 0 39.687499 39.6875"
   version="1.1"
   id="svg1"
   inkscape:version="1.3.2 (091e20e, 2023-11-25, custom)"
   sodipodi:docname="ESQcompleto.svg"
   xmlns:inkscape="http://www.inkscape.org/namespaces/inkscape"
   xmlns:sodipodi="http://sodipodi.sourceforge.net/DTD/sodipodi-0.dtd"
   xmlns="http://www.w3.org/2000/svg"
   xmlns:svg="http://www.w3.org/2000/svg">
  <sodipodi:namedview
     id="namedview1"
     pagecolor="#ffffff"
     bordercolor="#000000"
     borderopacity="0.25"
     inkscape:showpageshadow="2"
     inkscape:pageopacity="0.0"
     inkscape:pagecheckerboard="0"
     inkscape:deskcolor="#d1d1d1"
     inkscape:document-units="px"
     inkscape:zoom="3.6491199"
     inkscape:cx="140.03376"
     inkscape:cy="74.675539"
     inkscape:window-width="1920"
     inkscape:window-height="1017"
     inkscape:window-x="1072"
     inkscape:window-y="239"
     inkscape:window-maximized="1"
     inkscape:current-layer="layer1" />
  <defs
     id="defs1" />
  <g
     inkscape:label="Camada 1"
     inkscape:groupmode="layer"
     id="layer1">
    <path
       id="path19"
       style="fill:#cccccc;fill-opacity:1;stroke:#000000;stroke-width:0.529167;stroke-linecap:round;stroke-linejoin:round;stroke-dasharray:none;stroke-opacity:1"
       d="m 19.262867,25.787931 a 1.268856,1.299283 33.45846 0 0 -1.149801,0.589111 1.268856,1.299283 33.45846 0 0 -0.138493,1.169954 l -1.185457,1.794206 a 1.268856,1.299283 33.45846 0 0 -1.02216,0.586011 1.268856,1.299283 33.45846 0 0 -0.147277,0.315743 1.299283,1.268856 77.734439 0 0 -0.07131,0.783931 1.299283,1.268856 77.734439 0 0 0.740523,0.915707 l 0.457337,2.101163 a 1.299283,1.268856 77.734439 0 0 -0.148312,0.213941 l -0.03669,-10e-4 -2.332157,1.724443 0.290421,0.978751 5.002796,-0.634069 -0.640271,-2.011247 -0.07751,-0.0021 a 1.299283,1.268856 77.734439 0 0 -0.516764,-0.536918 l -0.484208,-2.228805 a 1.299283,1.268856 77.734439 0 0 0.229443,-0.538468 1.268856,1.299283 33.45846 0 0 0.02481,-0.750342 L 19.315074,28.3547 a 1.268856,1.299283 33.45846 0 0 0.91519,-0.578259 1.268856,1.299283 33.45846 0 0 -0.342098,-1.783871 1.268856,1.299283 33.45846 0 0 -0.625285,-0.204638 z"
       inkscape:transform-center-x="1.7757183"
       inkscape:transform-center-y="3.915333" />
    <g
       id="g19"
       transform="rotate(2.5941265,-17.605846,161.81631)"
       inkscape:transform-center-x="4.3692769"
       inkscape:transform-center-y="1.6678399">
      <g
         id="g18"
         transform="rotate(-13.739354,3.6472577,22.556846)">
        <path
           style="fill:#803300;fill-opacity:1;stroke:#000000;stroke-width:0.529167;stroke-linecap:round;stroke-linejoin:round;stroke-dasharray:none;stroke-opacity:1"
           d="M 4.6014403,25.570679 3.8452149,25.916748 0.4067337,12.06264 1.2526809,11.819109 Z"
           id="path17"
           sodipodi:nodetypes="ccccc" />
        <path
           style="fill:#6668e1;fill-opacity:1;stroke:#000000;stroke-width:0.529167;stroke-linecap:round;stroke-linejoin:round;stroke-dasharray:none;stroke-opacity:1"
           d="m 1.2561035,11.85608 7.7416991,1.038208 -6.331787,4.447632 z"
           id="path18"
           sodipodi:nodetypes="cccc" />
        <text
           xml:space="preserve"
           style="font-style:normal;font-variant:normal;font-weight:normal;font-stretch:normal;font-size:2.3317px;font-family:Calibri;-inkscape-font-specification:Calibri;text-align:center;text-anchor:middle;fill:#000000;fill-opacity:1;stroke:none;stroke-width:0.529167;stroke-linecap:round;stroke-linejoin:round;stroke-dasharray:none;stroke-opacity:1"
           x="1.0986674"
           y="15.463038"
           id="text18"
           transform="rotate(-12.244275)"><tspan
             sodipodi:role="line"
             id="tspan18"
             style="fill:#000000;fill-opacity:1;stroke:none;stroke-width:0.529167"
             x="1.0986674"
             y="15.463038">666</tspan></text>
      </g>
      <g
         id="g16">
        <path
           id="path13"
           style="fill:#cccccc;fill-opacity:1;stroke:#000000;stroke-width:0.529167;stroke-linecap:round;stroke-linejoin:round;stroke-dasharray:none;stroke-opacity:1"
           d="m 7.944792,16.024068 c -0.5664083,-2.14e-4 -1.0257065,0.458853 -1.025778,1.025261 1.07e-4,0.35135 0.1800988,0.678182 0.476974,0.866097 v 2.627746 c -0.1258424,0.08003 -0.2327129,0.186549 -0.313159,0.312126 l -2.0868852,0.948486 -0.5561822,-0.87636 -2.6552161,0.335989 0.8523114,3.706532 2.3385626,-1.041072 0.2618553,-1.096629 1.8512342,-0.871582 c 0.013059,0.01748 0.026672,0.03454 0.04082,0.05116 0.016351,0.02222 0.033591,0.04377 0.05168,0.0646 0.028084,0.03181 0.058115,0.06184 0.08992,0.08992 0.023958,0.02219 0.048964,0.04323 0.07493,0.06304 0.028655,0.02011 0.05832,0.03874 0.08888,0.05581 0.034635,0.02158 0.070528,0.04108 0.107487,0.05839 0.015709,0.0059 0.03156,0.01142 0.04754,0.01654 0.1158283,0.04621 0.2391137,0.0709 0.363803,0.07286 0.5664075,-7.2e-5 1.0254734,-0.45937 1.02526,-1.025777 -0.00131,-0.151283 -0.036071,-0.300403 -0.101803,-0.436666 -0.00789,-0.01519 -0.016159,-0.03018 -0.0248,-0.04496 -0.02483,-0.04746 -0.053341,-0.0929 -0.08527,-0.135909 C 8.749582,20.76757 8.731307,20.74619 8.712176,20.72559 8.684863,20.69457 8.6557,20.66524 8.624846,20.63774 8.596676,20.61306 8.567175,20.58994 8.536476,20.56849 8.524962,20.55909 8.513246,20.54997 8.501336,20.5411 V 17.910248 C 8.7935074,17.721369 8.9699763,17.397226 8.970041,17.049319 8.9699694,16.483113 8.510987,16.02413 7.944781,16.024058 Z"
           sodipodi:nodetypes="cccccccccccccccccccccccccccccccc" />
        <path
           style="fill:none;fill-opacity:1;stroke:#000000;stroke-width:0.264583;stroke-linecap:round;stroke-linejoin:round;stroke-dasharray:none;stroke-opacity:1"
           d="M 2.1570554,22.259362 2.9908751,21.987464"
           id="path15" />
        <path
           style="fill:none;fill-opacity:1;stroke:#000000;stroke-width:0.264583;stroke-linecap:round;stroke-linejoin:round;stroke-dasharray:none;stroke-opacity:1"
           d="M 2.5377123,23.510092 3.1540137,23.292574"
           id="path16" />
      </g>
    </g>
    <path
       id="path20"
       style="fill:#cccccc;fill-opacity:1;stroke:#000000;stroke-width:0.529167;stroke-linecap:round;stroke-linejoin:round;stroke-dasharray:none;stroke-opacity:1"
       d="m 23.622414,25.783125 a 1.268856,1.299283 31.08319 0 0 -1.124398,0.636257 1.268856,1.299283 31.08319 0 0 -0.08989,1.174689 l -1.110078,1.841795 a 1.268856,1.299283 31.08319 0 0 -0.996995,0.62787 1.268856,1.299283 31.08319 0 0 -0.134065,0.321576 1.299283,1.268856 75.359169 0 0 -0.03876,0.786213 1.299283,1.268856 75.359169 0 0 0.777838,0.884229 l 0.544025,2.080404 a 1.299283,1.268856 75.359169 0 0 -0.139318,0.219904 l -0.0367,5.21e-4 -2.258684,1.819616 0.330735,0.965874 4.972219,-0.840862 -0.723076,-1.982983 -0.07753,0.0011 a 1.299283,1.268856 75.359169 0 0 -0.538573,-0.51504 L 22.403006,31.59748 a 1.299283,1.268856 75.359169 0 0 0.206929,-0.547515 1.268856,1.299283 31.08319 0 0 -0.0063,-0.750725 l 1.177328,-1.953715 a 1.268856,1.299283 31.08319 0 0 0.890438,-0.615692 1.268856,1.299283 31.08319 0 0 -0.415735,-1.76816 1.268856,1.299283 31.08319 0 0 -0.633229,-0.178548 z"
       inkscape:transform-center-x="1.5994805"
       inkscape:transform-center-y="4.1498009" />
    <g
       id="g10">
      <path
         id="path9"
         style="fill:#cccccc;fill-opacity:1;stroke:#000000;stroke-width:0.529167;stroke-linecap:round;stroke-linejoin:round;stroke-dasharray:none;stroke-opacity:1"
         d="m 21.404923,11.535477 a 1.7687988,1.6918945 0 0 0 -1.768884,1.691887 1.7687988,1.6918945 0 0 0 0.564307,1.23455 v 4.456575 h 2.460831 v -4.505668 a 1.7687988,1.6918945 0 0 0 0.51263,-1.185457 1.7687988,1.6918945 0 0 0 -1.768884,-1.691887 z" />
      <g
         id="g9"
         transform="translate(4.5629882,-0.6665039)">
        <path
           style="fill:#6668e1;fill-opacity:1;stroke:#000000;stroke-width:0.529167;stroke-linecap:round;stroke-linejoin:round;stroke-dasharray:none"
           d="m 10.434105,17.135396 v 3.024903 l 2.050781,-0.05127 0.358886,7.7417 8.356934,-0.307618 -0.615234,-7.485351 2.204589,-0.153809 -0.512695,-3.024902 z"
           id="path7" />
        <text
           xml:space="preserve"
           style="font-size:3.30809px;font-family:sans-serif;-inkscape-font-specification:sans-serif;text-align:center;text-anchor:middle;fill:#000000;fill-opacity:1;stroke:none;stroke-width:0.529167;stroke-linecap:round;stroke-linejoin:round;stroke-dasharray:none"
           x="16.672302"
           y="20.94364"
           id="text7"><tspan
             sodipodi:role="line"
             id="tspan7"
             style="font-style:normal;font-variant:normal;font-weight:normal;font-stretch:normal;font-family:Calibri;-inkscape-font-specification:Calibri;fill:#000000;stroke:none;stroke-width:0.529167"
             x="16.672302"
             y="20.94364">vote</tspan></text>
        <text
           xml:space="preserve"
           style="font-size:1.91887px;font-family:sans-serif;-inkscape-font-specification:sans-serif;text-align:center;text-anchor:middle;fill:#000000;fill-opacity:1;stroke:none;stroke-width:0.529167;stroke-linecap:round;stroke-linejoin:round;stroke-dasharray:none"
           x="16.823767"
           y="22.989492"
           id="text8"><tspan
             sodipodi:role="line"
             id="tspan8"
             style="font-style:normal;font-variant:normal;font-weight:normal;font-stretch:normal;font-family:Calibri;-inkscape-font-specification:Calibri;fill:#000000;stroke:none;stroke-width:0.529167"
             x="16.823767"
             y="22.989492">FULANO</tspan></text>
        <text
           xml:space="preserve"
           style="font-size:3.30809px;font-family:sans-serif;-inkscape-font-specification:sans-serif;text-align:center;text-anchor:middle;fill:#000000;fill-opacity:1;stroke:none;stroke-width:0.529167;stroke-linecap:round;stroke-linejoin:round;stroke-dasharray:none"
           x="16.672302"
           y="25.686071"
           id="text9"><tspan
             sodipodi:role="line"
             id="tspan9"
             style="font-style:normal;font-variant:normal;font-weight:normal;font-stretch:normal;font-family:Calibri;-inkscape-font-specification:Calibri;fill:#000000;stroke:none;stroke-width:0.529167"
             x="16.672302"
             y="25.686071">666</tspan></text>
      </g>
    </g>
    <g
       id="g6"
       transform="translate(1.4146766,-2.5467677)">
      <path
         style="fill:#cccccc;stroke:#000000;stroke-width:0.529167;stroke-linecap:round;stroke-linejoin:round;stroke-dasharray:none"
         d="M 12.919921,17.277831 12.663573,15.021972 9.0234372,12.099609 14.304198,7.0751952 21.840819,6.9213865 25.686034,10.81787 20.046386,14.560546 19.892577,17.585448 Z"
         id="path1" />
      <ellipse
         style="fill:#666666;fill-opacity:1;stroke:#000000;stroke-width:0.264583;stroke-linecap:round;stroke-linejoin:round;stroke-dasharray:none"
         id="path2"
         cx="14.44519"
         cy="11.484375"
         rx="1.1151123"
         ry="1.1022949" />
      <ellipse
         style="fill:#666666;fill-opacity:1;stroke:#000000;stroke-width:0.264583;stroke-linecap:round;stroke-linejoin:round;stroke-dasharray:none"
         id="ellipse2"
         cx="17.982788"
         cy="11.484375"
         rx="1.1151123"
         ry="1.1022949" />
      <path
         style="fill:none;fill-opacity:1;stroke:#000000;stroke-width:0.264583;stroke-linecap:round;stroke-linejoin:round;stroke-dasharray:none"
         d="m 13.868408,17.200927 -0.07691,-1.61499"
         id="path3" />
      <path
         style="fill:none;fill-opacity:1;stroke:#000000;stroke-width:0.264583;stroke-linecap:round;stroke-linejoin:round;stroke-dasharray:none"
         d="M 15.303954,17.354736 V 15.611572"
         id="path4" />
      <path
         style="fill:none;fill-opacity:1;stroke:#000000;stroke-width:0.264583;stroke-linecap:round;stroke-linejoin:round;stroke-dasharray:none"
         d="m 16.611327,17.406005 -0.0769,-1.768799"
         id="path5" />
      <path
         style="fill:none;fill-opacity:1;stroke:#000000;stroke-width:0.264583;stroke-linecap:round;stroke-linejoin:round;stroke-dasharray:none"
         d="M 18.380126,17.406005 18.354496,15.76538"
         id="path6" />
    </g>
    <g
       id="g12"
       transform="rotate(-89.882099,33.332546,21.047656)">
      <g
         id="g20"
         inkscape:transform-center-x="-2.1187446"
         inkscape:transform-center-y="3.9666446"
         transform="rotate(19.662167,36.654038,14.985634)">
        <path
           id="path10"
           style="fill:#cccccc;fill-opacity:1;stroke:#000000;stroke-width:0.529167;stroke-linecap:round;stroke-linejoin:round;stroke-dasharray:none;stroke-opacity:1"
           d="m 36.657194,14.030151 a 1.0253906,1.0253906 0 0 0 -1.025778,1.025261 1.0253906,1.0253906 0 0 0 0.476974,0.866097 v 2.627746 a 1.0253906,1.0253906 0 0 0 -0.313159,0.312126 h -2.309937 l 0.338998,-1.010274 -1.838131,-0.667143 -0.424264,1.047998 -2.026749,-0.571541 -0.423747,2.763138 3.770312,0.238229 0.195854,-0.583427 a 1.0253906,1.0253906 0 0 0 0.09198,-0.111621 h 2.631364 a 1.0253906,1.0253906 0 0 0 0.04082,0.05116 1.0253906,1.0253906 0 0 0 0.05168,0.0646 1.0253906,1.0253906 0 0 0 0.08992,0.08992 1.0253906,1.0253906 0 0 0 0.07493,0.06304 1.0253906,1.0253906 0 0 0 0.08888,0.05581 1.0253906,1.0253906 0 0 0 0.107487,0.05839 1.0253906,1.0253906 0 0 0 0.04754,0.01654 1.0253906,1.0253906 0 0 0 0.363803,0.07286 1.0253906,1.0253906 0 0 0 1.02526,-1.025777 1.0253906,1.0253906 0 0 0 -0.101803,-0.436666 1.0253906,1.0253906 0 0 0 -0.0248,-0.04496 1.0253906,1.0253906 0 0 0 -0.08527,-0.135909 1.0253906,1.0253906 0 0 0 -0.05478,-0.06408 1.0253906,1.0253906 0 0 0 -0.08733,-0.08785 1.0253906,1.0253906 0 0 0 -0.08837,-0.06925 1.0253906,1.0253906 0 0 0 -0.03514,-0.02739 v -2.630847 a 1.0253906,1.0253906 0 0 0 0.468705,-0.860929 1.0253906,1.0253906 0 0 0 -1.02526,-1.025261 z" />
        <path
           style="fill:none;fill-opacity:1;stroke:#000000;stroke-width:0.264583;stroke-linecap:round;stroke-linejoin:round;stroke-dasharray:none;stroke-opacity:1"
           d="m 29.564348,18.615933 1.758272,0.36253"
           id="path11" />
        <path
           style="fill:none;fill-opacity:1;stroke:#000000;stroke-width:0.264583;stroke-linecap:round;stroke-linejoin:round;stroke-dasharray:none;stroke-opacity:1"
           d="m 29.564348,19.377247 1.758272,0.36253"
           id="path12" />
      </g>
    </g>
  </g>
</svg>
