<?xml version="1.0" encoding="UTF-8" standalone="no"?>
<!-- Created with Inkscape (http://www.inkscape.org/) -->

<svg
   width="25.507225"
   height="44.230743"
   viewBox="0 0 6.7487865 11.702718"
   version="1.1"
   id="svg1"
   inkscape:version="1.3.2 (091e20e, 2023-11-25, custom)"
   sodipodi:docname="ESQcompleto.svg"
   xmlns:inkscape="http://www.inkscape.org/namespaces/inkscape"
   xmlns:sodipodi="http://sodipodi.sourceforge.net/DTD/sodipodi-0.dtd"
   xmlns="http://www.w3.org/2000/svg"
   xmlns:svg="http://www.w3.org/2000/svg">
  <sodipodi:namedview
     id="namedview1"
     pagecolor="#ffffff"
     bordercolor="#000000"
     borderopacity="0.25"
     inkscape:showpageshadow="2"
     inkscape:pageopacity="0.0"
     inkscape:pagecheckerboard="0"
     inkscape:deskcolor="#d1d1d1"
     inkscape:document-units="px"
     inkscape:zoom="3.6491199"
     inkscape:cx="85.500067"
     inkscape:cy="87.281319"
     inkscape:window-width="1920"
     inkscape:window-height="1017"
     inkscape:window-x="1072"
     inkscape:window-y="239"
     inkscape:window-maximized="1"
     inkscape:current-layer="layer1" />
  <defs
     id="defs1" />
  <g
     inkscape:label="Camada 1"
     inkscape:groupmode="layer"
     id="layer1"
     transform="translate(-25.275437,-72.940726)">
    <path
       id="path21"
       style="fill:#cccccc;fill-opacity:1;stroke:#000000;stroke-width:0.529167;stroke-linecap:round;stroke-linejoin:round;stroke-dasharray:none;stroke-opacity:1"
       d="m 30.573813,73.206898 a 1.268856,1.299283 33.45846 0 0 -1.149801,0.589111 1.268856,1.299283 33.45846 0 0 -0.138493,1.169954 l -1.185457,1.794206 a 1.268856,1.299283 33.45846 0 0 -1.02216,0.586011 1.268856,1.299283 33.45846 0 0 -0.147277,0.315743 1.299283,1.268856 77.734439 0 0 -0.07131,0.783931 1.299283,1.268856 77.734439 0 0 0.740523,0.915707 l 0.457337,2.101163 a 1.299283,1.268856 77.734439 0 0 -0.148312,0.213941 l -0.03669,-0.001 -2.332157,1.724443 0.290421,0.978751 5.002796,-0.634069 -0.640271,-2.011247 -0.07751,-0.0021 A 1.299283,1.268856 77.734439 0 0 29.598688,81.194525 L 29.11448,78.96572 a 1.299283,1.268856 77.734439 0 0 0.229443,-0.538468 1.268856,1.299283 33.45846 0 0 0.02481,-0.750342 l 1.257287,-1.903243 a 1.268856,1.299283 33.45846 0 0 0.91519,-0.578259 1.268856,1.299283 33.45846 0 0 -0.342098,-1.783871 1.268856,1.299283 33.45846 0 0 -0.625285,-0.204638 z"
       inkscape:transform-center-x="1.7757183"
       inkscape:transform-center-y="3.915333" />
  </g>
</svg>
