<?xml version="1.0" encoding="UTF-8" standalone="no"?>
<!-- Created with Inkscape (http://www.inkscape.org/) -->

<svg
   width="41.169983"
   height="39.022141"
   viewBox="0 0 10.892891 10.324608"
   version="1.1"
   id="svg1"
   inkscape:version="1.3.2 (091e20e, 2023-11-25, custom)"
   sodipodi:docname="PLANTAgeradorGOLDEN.svg"
   xmlns:inkscape="http://www.inkscape.org/namespaces/inkscape"
   xmlns:sodipodi="http://sodipodi.sourceforge.net/DTD/sodipodi-0.dtd"
   xmlns="http://www.w3.org/2000/svg"
   xmlns:svg="http://www.w3.org/2000/svg">
  <sodipodi:namedview
     id="namedview1"
     pagecolor="#ffffff"
     bordercolor="#000000"
     borderopacity="0.25"
     inkscape:showpageshadow="2"
     inkscape:pageopacity="0.0"
     inkscape:pagecheckerboard="0"
     inkscape:deskcolor="#d1d1d1"
     inkscape:document-units="px"
     inkscape:zoom="4.2736508"
     inkscape:cx="76.281385"
     inkscape:cy="38.023696"
     inkscape:window-width="1920"
     inkscape:window-height="1017"
     inkscape:window-x="1072"
     inkscape:window-y="239"
     inkscape:window-maximized="1"
     inkscape:current-layer="layer1" />
  <defs
     id="defs1" />
  <g
     inkscape:label="Camada 1"
     inkscape:groupmode="layer"
     id="layer1"
     transform="translate(-22.044653,-43.092037)">
    <g
       id="g32"
       inkscape:transform-center-x="0.33913002"
       inkscape:transform-center-y="-4.2971989"
       transform="rotate(0.32324773,-6944.0724,1327.9131)">
      <path
         style="fill:#d8bd2b;fill-opacity:1;stroke:none;stroke-width:0.264999;stroke-linecap:round;stroke-linejoin:round;stroke-dasharray:none"
         d="m 17.930773,13.001446 -1.520686,-6.0535655 8.13848,-0.3941857 -1.210914,6.2788142 c 0.06355,1.107424 -4.958848,2.122916 -5.40688,0.168937 z"
         id="path25"
         sodipodi:nodetypes="ccccc" />
      <ellipse
         style="fill:#d8bd2b;fill-opacity:1;stroke:#000000;stroke-width:0.264999;stroke-linecap:round;stroke-linejoin:round;stroke-dasharray:none;stroke-opacity:1"
         id="ellipse25"
         cx="20.127316"
         cy="6.089119"
         rx="5.1815934"
         ry="2.0413184" />
      <g
         id="g30"
         transform="matrix(0.90972905,0,0,0.90957665,2.3296695,0.13410032)"
         style="stroke-width:1.09932">
        <ellipse
           style="fill:#00ff00;stroke:#000000;stroke-width:0.290861;stroke-linecap:round;stroke-linejoin:round"
           id="ellipse26"
           cx="18.308758"
           cy="8.8722925"
           rx="0.96309942"
           ry="0.74421322" />
        <ellipse
           style="fill:#00ff00;stroke:#000000;stroke-width:0.290861;stroke-linecap:round;stroke-linejoin:round"
           id="ellipse27"
           cx="21.986046"
           cy="8.8722925"
           rx="0.96309942"
           ry="0.74421322" />
        <path
           style="fill:none;stroke:#000000;stroke-width:0.29132;stroke-linecap:round;stroke-linejoin:round;stroke-dasharray:none"
           d="m 19.919664,9.7663618 c 0,0 1.202488,0.2077098 1.16082,0.6655362 -0.04384,0.481656 -1.207253,0.804835 -1.207253,0.804835 l 3.002654,0.294074 c 0,0 -1.336501,0.681588 -2.801444,0.758403 -1.269814,0.06658 -2.32164,-0.417896 -2.32164,-0.417896"
           id="path27"
           sodipodi:nodetypes="csccsc" />
        <path
           style="fill:#ffffff;fill-opacity:1;stroke:#000000;stroke-width:0.290861;stroke-linecap:round;stroke-linejoin:round"
           d="m 22.337819,11.778947 c 0,0 0.06262,0.654938 -0.307996,0.715913 -0.247756,0.04076 -0.476695,-0.442856 -0.476695,-0.442856 z"
           id="path28"
           sodipodi:nodetypes="cscc" />
        <path
           style="fill:#ffffff;fill-opacity:1;stroke:#000000;stroke-width:0.290861;stroke-linecap:round;stroke-linejoin:round"
           d="m 20.980724,12.205774 c 0,0 -0.01997,0.632106 -0.39555,0.62836 -0.302478,-0.003 -0.394613,-0.508522 -0.394613,-0.508522 z"
           id="path29"
           sodipodi:nodetypes="cscc" />
        <path
           style="fill:#ffffff;fill-opacity:1;stroke:#000000;stroke-width:0.290861;stroke-linecap:round;stroke-linejoin:round"
           d="m 19.315264,12.344057 c 0,0 -0.242403,0.584121 -0.592345,0.447686 C 18.441082,12.68188 18.533833,12.17647 18.533833,12.17647 Z"
           id="path30"
           sodipodi:nodetypes="cscc" />
      </g>
      <path
         style="fill:none;fill-opacity:1;stroke:#000000;stroke-width:0.264999;stroke-linecap:round;stroke-linejoin:round;stroke-dasharray:none;stroke-opacity:1"
         d="m 19.409215,7.6095493 c 0,0 -0.102609,-1.8917024 0.591378,-2.0553964 0.924626,-0.2180962 1.914937,2.0131622 1.914937,2.0131622"
         id="path31"
         sodipodi:nodetypes="csc" />
      <path
         style="fill:none;fill-opacity:1;stroke:#000000;stroke-width:0.529167;stroke-linecap:round;stroke-linejoin:round;stroke-dasharray:none;stroke-opacity:1"
         d="M 17.789967,12.522792 16.579052,7.539159 c 0,0 -1.774064,-0.8887488 -1.605168,-1.6330546 0.402087,-1.7719523 3.308002,-1.8665748 5.125272,-1.8583039 1.853421,0.00843 4.647837,0.1768602 5.209754,1.942772 0.161815,0.5085312 -0.901147,1.3233376 -0.901147,1.3233376 l -0.901146,4.7302279"
         id="path32"
         sodipodi:nodetypes="ccssscc" />
    </g>
  </g>
</svg>
