<?xml version="1.0" encoding="UTF-8" standalone="no"?>
<!-- Created with Inkscape (http://www.inkscape.org/) -->

<svg
   width="34.179733"
   height="38.230972"
   viewBox="0 0 9.0433875 10.115278"
   version="1.1"
   id="svg1"
   inkscape:version="1.3.2 (091e20e, 2023-11-25, custom)"
   sodipodi:docname="PLANTAgeradorGOLDEN.svg"
   xmlns:inkscape="http://www.inkscape.org/namespaces/inkscape"
   xmlns:sodipodi="http://sodipodi.sourceforge.net/DTD/sodipodi-0.dtd"
   xmlns="http://www.w3.org/2000/svg"
   xmlns:svg="http://www.w3.org/2000/svg">
  <sodipodi:namedview
     id="namedview1"
     pagecolor="#ffffff"
     bordercolor="#000000"
     borderopacity="0.25"
     inkscape:showpageshadow="2"
     inkscape:pageopacity="0.0"
     inkscape:pagecheckerboard="0"
     inkscape:deskcolor="#d1d1d1"
     inkscape:document-units="px"
     inkscape:zoom="4.2736508"
     inkscape:cx="76.281385"
     inkscape:cy="38.023696"
     inkscape:window-width="1920"
     inkscape:window-height="1017"
     inkscape:window-x="1072"
     inkscape:window-y="239"
     inkscape:window-maximized="1"
     inkscape:current-layer="layer1" />
  <defs
     id="defs1" />
  <g
     inkscape:label="Camada 1"
     inkscape:groupmode="layer"
     id="layer1"
     transform="translate(-35.215225,-50.648143)">
    <g
       id="g34"
       inkscape:transform-center-x="-0.047155566"
       inkscape:transform-center-y="2.6774374"
       transform="rotate(-1.6951921,1332.3065,-280.04813)">
      <path
         style="fill:#d8bd2b;fill-opacity:1;stroke:none;stroke-width:0.529167;stroke-linecap:round;stroke-linejoin:round;stroke-dasharray:none;stroke-opacity:1"
         d="m 29.420979,13.654539 c 0.09606,-0.425105 1.252964,-0.946094 1.717088,-1.051582 0.455182,-0.10346 1.157543,-0.214839 1.393621,-0.175518 2.348999,0.391238 2.620624,6.448501 1.26999,6.978548 l -4.713299,1.849704 -1.444028,0.886355 -0.193353,-0.184118 0.628299,-1.290428 -1.11924,0.848984 -0.130943,-0.136477 0.654099,-1.49479 -1.101389,1.02825 -0.09454,-0.216528 0.799507,-2.151898 4.748257,-1.055363 c 0,0 -0.906253,-1.012301 -1.282375,-1.575319 -0.05657,-0.08468 -0.418025,-0.133953 -0.472902,-0.213458 -0.507119,-0.734709 -0.756992,-1.6118 -0.658792,-2.046362 z"
         id="path33"
         sodipodi:nodetypes="sssscccccccccccsss" />
      <path
         style="fill:none;fill-opacity:1;stroke:#000000;stroke-width:0.529167;stroke-linecap:round;stroke-linejoin:round;stroke-dasharray:none;stroke-opacity:1"
         d="m 29.758499,13.523732 c 0.520161,-0.55718 1.781774,-1.169775 2.838469,-0.867202 2.670782,0.764751 2.297695,3.901875 1.426102,6.759528 l -4.969189,1.928339 -1.396273,0.692048 -0.03922,-0.02021 0.356912,-1.207005 -0.94711,0.94432 -0.381604,-0.278041 0.765695,-1.439155 -1.013552,0.932414 -0.386312,-0.307975 1.107043,-1.985623 4.736932,-1.065913 c 0,0 -0.720781,-1.258816 -1.306578,-1.640167 -0.127678,-0.08312 -0.44215,-0.115741 -0.44215,-0.115741"
         id="path34"
         sodipodi:nodetypes="csccccccccccccsc" />
    </g>
  </g>
</svg>
