<?xml version="1.0" encoding="UTF-8" standalone="no"?>
<!-- Created with Inkscape (http://www.inkscape.org/) -->

<svg
   width="84.409645"
   height="85.375076"
   viewBox="0 0 22.333385 22.588822"
   version="1.1"
   id="svg1"
   inkscape:version="1.3.2 (091e20e, 2023-11-25, custom)"
   sodipodi:docname="PLANTAgeradorGOLDEN.svg"
   xmlns:inkscape="http://www.inkscape.org/namespaces/inkscape"
   xmlns:sodipodi="http://sodipodi.sourceforge.net/DTD/sodipodi-0.dtd"
   xmlns="http://www.w3.org/2000/svg"
   xmlns:svg="http://www.w3.org/2000/svg">
  <sodipodi:namedview
     id="namedview1"
     pagecolor="#ffffff"
     bordercolor="#000000"
     borderopacity="0.25"
     inkscape:showpageshadow="2"
     inkscape:pageopacity="0.0"
     inkscape:pagecheckerboard="0"
     inkscape:deskcolor="#d1d1d1"
     inkscape:document-units="px"
     inkscape:zoom="4.2736508"
     inkscape:cx="76.281385"
     inkscape:cy="38.023696"
     inkscape:window-width="1920"
     inkscape:window-height="1017"
     inkscape:window-x="1072"
     inkscape:window-y="239"
     inkscape:window-maximized="1"
     inkscape:current-layer="layer1" />
  <defs
     id="defs1" />
  <g
     inkscape:label="Camada 1"
     inkscape:groupmode="layer"
     id="layer1"
     transform="translate(-8.119217,-2.3907497)">
    <path
       style="fill:#d8bd2b;fill-opacity:1;stroke:#000000;stroke-width:0.529167;stroke-linecap:round;stroke-linejoin:round;stroke-dasharray:none;stroke-opacity:1"
       d="m 17.618057,14.381371 c 0,0 -0.590548,-2.181879 -1.555445,-3.109125 -0.941083,-0.904362 -2.542825,-1.06431 -2.542825,-1.06431 L 12.519414,6.0589452 14.254991,6.0961477 14.269051,5.5691874 12.229194,4.7365026 10.489948,2.6553236 10.035791,2.9796132 10.611416,4.5096924 8.7990618,4.010388 8.3837891,4.5811984 10.346714,5.9118901 9.6073845,10.860032 c 0,0 2.4806825,3.810283 4.5881815,4.962959 1.106148,0.604996 2.735564,0.314814 2.735564,0.314814 z"
       id="path19"
       sodipodi:nodetypes="csccccccccccccscc"
       inkscape:transform-center-x="4.0503009"
       inkscape:transform-center-y="-4.7887515" />
    <g
       id="g18"
       transform="translate(0.17510899,0.35021798)">
      <path
         style="fill:#d8bd2b;fill-opacity:1;stroke:#000000;stroke-width:0.529167;stroke-linecap:round;stroke-linejoin:round;stroke-dasharray:none;stroke-opacity:1"
         d="m 15.624721,12.077853 10.331431,-0.612881 0.48155,3.195739 -3.909532,9.534263 -3.212804,0.169797 -4.259749,-9.266288"
         id="path10"
         sodipodi:nodetypes="cccccc" />
      <g
         id="g15"
         transform="matrix(0.65506985,0,0,0.66119499,8.1788009,4.8620094)"
         style="stroke-width:1.51947">
        <ellipse
           style="fill:none;fill-opacity:1;stroke:#000000;stroke-width:0.402025;stroke-linecap:round;stroke-linejoin:round;stroke-dasharray:none;stroke-opacity:1"
           id="path13"
           cx="22.949972"
           cy="15.784492"
           rx="1.2691627"
           ry="1.5632371" />
        <path
           style="fill:none;fill-opacity:1;stroke:#000000;stroke-width:0.402025;stroke-linecap:round;stroke-linejoin:round;stroke-dasharray:none;stroke-opacity:1"
           d="m 21.801069,15.256371 c 0,0 0.897434,0.503438 2.166974,-0.109443"
           id="path14" />
        <path
           style="fill:none;fill-opacity:1;stroke:#000000;stroke-width:0.402025;stroke-linecap:round;stroke-linejoin:round;stroke-dasharray:none;stroke-opacity:1"
           d="m 22.873612,15.519034 0.06567,1.816756"
           id="path15" />
      </g>
      <g
         id="g17"
         transform="matrix(0.65506985,0,0,0.66119499,3.9324079,5.1246729)"
         style="stroke-width:1.51947">
        <ellipse
           style="fill:none;fill-opacity:1;stroke:#000000;stroke-width:0.402025;stroke-linecap:round;stroke-linejoin:round;stroke-dasharray:none;stroke-opacity:1"
           id="ellipse15"
           cx="22.949972"
           cy="15.784492"
           rx="1.2691627"
           ry="1.5632371" />
        <path
           style="fill:none;fill-opacity:1;stroke:#000000;stroke-width:0.402025;stroke-linecap:round;stroke-linejoin:round;stroke-dasharray:none;stroke-opacity:1"
           d="m 21.801069,15.256371 c 0,0 0.897434,0.503438 2.166974,-0.109443"
           id="path16" />
        <path
           style="fill:none;fill-opacity:1;stroke:#000000;stroke-width:0.402025;stroke-linecap:round;stroke-linejoin:round;stroke-dasharray:none;stroke-opacity:1"
           d="m 22.873612,15.519034 0.06567,1.816756"
           id="path17" />
      </g>
    </g>
    <g
       id="g9"
       inkscape:transform-center-x="0.33913002"
       inkscape:transform-center-y="-4.2971989"
       transform="rotate(0.32324773,-111.01264,68.6103)">
      <path
         style="fill:#d8bd2b;fill-opacity:1;stroke:none;stroke-width:0.264999;stroke-linecap:round;stroke-linejoin:round;stroke-dasharray:none"
         d="m 17.930773,13.001446 -1.520686,-6.0535655 8.13848,-0.3941857 -1.210914,6.2788142 c 0.06355,1.107424 -4.958848,2.122916 -5.40688,0.168937 z"
         id="path6"
         sodipodi:nodetypes="ccccc" />
      <ellipse
         style="fill:#d8bd2b;fill-opacity:1;stroke:#000000;stroke-width:0.264999;stroke-linecap:round;stroke-linejoin:round;stroke-dasharray:none;stroke-opacity:1"
         id="path7"
         cx="20.127316"
         cy="6.089119"
         rx="5.1815934"
         ry="2.0413184" />
      <g
         id="g5"
         transform="matrix(0.90972905,0,0,0.90957665,2.3296695,0.13410032)"
         style="stroke-width:1.09932">
        <ellipse
           style="fill:#00ff00;stroke:#000000;stroke-width:0.290861;stroke-linecap:round;stroke-linejoin:round"
           id="path1"
           cx="18.308758"
           cy="8.8722925"
           rx="0.96309942"
           ry="0.74421322" />
        <ellipse
           style="fill:#00ff00;stroke:#000000;stroke-width:0.290861;stroke-linecap:round;stroke-linejoin:round"
           id="ellipse1"
           cx="21.986046"
           cy="8.8722925"
           rx="0.96309942"
           ry="0.74421322" />
        <path
           style="fill:none;stroke:#000000;stroke-width:0.29132;stroke-linecap:round;stroke-linejoin:round;stroke-dasharray:none"
           d="m 19.919664,9.7663618 c 0,0 1.202488,0.2077098 1.16082,0.6655362 -0.04384,0.481656 -1.207253,0.804835 -1.207253,0.804835 l 3.002654,0.294074 c 0,0 -1.336501,0.681588 -2.801444,0.758403 -1.269814,0.06658 -2.32164,-0.417896 -2.32164,-0.417896"
           id="path2"
           sodipodi:nodetypes="csccsc" />
        <path
           style="fill:#ffffff;fill-opacity:1;stroke:#000000;stroke-width:0.290861;stroke-linecap:round;stroke-linejoin:round"
           d="m 22.337819,11.778947 c 0,0 0.06262,0.654938 -0.307996,0.715913 -0.247756,0.04076 -0.476695,-0.442856 -0.476695,-0.442856 z"
           id="path3"
           sodipodi:nodetypes="cscc" />
        <path
           style="fill:#ffffff;fill-opacity:1;stroke:#000000;stroke-width:0.290861;stroke-linecap:round;stroke-linejoin:round"
           d="m 20.980724,12.205774 c 0,0 -0.01997,0.632106 -0.39555,0.62836 -0.302478,-0.003 -0.394613,-0.508522 -0.394613,-0.508522 z"
           id="path4"
           sodipodi:nodetypes="cscc" />
        <path
           style="fill:#ffffff;fill-opacity:1;stroke:#000000;stroke-width:0.290861;stroke-linecap:round;stroke-linejoin:round"
           d="m 19.315264,12.344057 c 0,0 -0.242403,0.584121 -0.592345,0.447686 C 18.441082,12.68188 18.533833,12.17647 18.533833,12.17647 Z"
           id="path5"
           sodipodi:nodetypes="cscc" />
      </g>
      <path
         style="fill:none;fill-opacity:1;stroke:#000000;stroke-width:0.264999;stroke-linecap:round;stroke-linejoin:round;stroke-dasharray:none;stroke-opacity:1"
         d="m 19.409215,7.6095493 c 0,0 -0.102609,-1.8917024 0.591378,-2.0553964 0.924626,-0.2180962 1.914937,2.0131622 1.914937,2.0131622"
         id="path8"
         sodipodi:nodetypes="csc" />
      <path
         style="fill:none;fill-opacity:1;stroke:#000000;stroke-width:0.529167;stroke-linecap:round;stroke-linejoin:round;stroke-dasharray:none;stroke-opacity:1"
         d="M 17.789967,12.522792 16.579052,7.539159 c 0,0 -1.774064,-0.8887488 -1.605168,-1.6330546 0.402087,-1.7719523 3.308002,-1.8665748 5.125272,-1.8583039 1.853421,0.00843 4.647837,0.1768602 5.209754,1.942772 0.161815,0.5085312 -0.901147,1.3233376 -0.901147,1.3233376 l -0.901146,4.7302279"
         id="path9"
         sodipodi:nodetypes="ccssscc" />
    </g>
    <g
       id="g19"
       inkscape:transform-center-x="-0.047155566"
       inkscape:transform-center-y="2.6774374"
       transform="rotate(-1.6951921,-9.5193049,166.79773)">
      <path
         style="fill:#d8bd2b;fill-opacity:1;stroke:none;stroke-width:0.529167;stroke-linecap:round;stroke-linejoin:round;stroke-dasharray:none;stroke-opacity:1"
         d="m 29.420979,13.654539 c 0.09606,-0.425105 1.252964,-0.946094 1.717088,-1.051582 0.455182,-0.10346 1.157543,-0.214839 1.393621,-0.175518 2.348999,0.391238 2.620624,6.448501 1.26999,6.978548 l -4.713299,1.849704 -1.444028,0.886355 -0.193353,-0.184118 0.628299,-1.290428 -1.11924,0.848984 -0.130943,-0.136477 0.654099,-1.49479 -1.101389,1.02825 -0.09454,-0.216528 0.799507,-2.151898 4.748257,-1.055363 c 0,0 -0.906253,-1.012301 -1.282375,-1.575319 -0.05657,-0.08468 -0.418025,-0.133953 -0.472902,-0.213458 -0.507119,-0.734709 -0.756992,-1.6118 -0.658792,-2.046362 z"
         id="path11"
         sodipodi:nodetypes="sssscccccccccccsss" />
      <path
         style="fill:none;fill-opacity:1;stroke:#000000;stroke-width:0.529167;stroke-linecap:round;stroke-linejoin:round;stroke-dasharray:none;stroke-opacity:1"
         d="m 29.758499,13.523732 c 0.520161,-0.55718 1.781774,-1.169775 2.838469,-0.867202 2.670782,0.764751 2.297695,3.901875 1.426102,6.759528 l -4.969189,1.928339 -1.396273,0.692048 -0.03922,-0.02021 0.356912,-1.207005 -0.94711,0.94432 -0.381604,-0.278041 0.765695,-1.439155 -1.013552,0.932414 -0.386312,-0.307975 1.107043,-1.985623 4.736932,-1.065913 c 0,0 -0.720781,-1.258816 -1.306578,-1.640167 -0.127678,-0.08312 -0.44215,-0.115741 -0.44215,-0.115741"
         id="path12"
         sodipodi:nodetypes="csccccccccccccsc" />
    </g>
  </g>
</svg>
