<?xml version="1.0" encoding="UTF-8" standalone="no"?>
<!-- Created with Inkscape (http://www.inkscape.org/) -->

<svg
   width="37.195042"
   height="40.175674"
   viewBox="0 0 9.8411879 10.629814"
   version="1.1"
   id="svg1"
   inkscape:version="1.3.2 (091e20e, 2023-11-25, custom)"
   sodipodi:docname="PLANTAbarreiraSTONE.svg"
   xmlns:inkscape="http://www.inkscape.org/namespaces/inkscape"
   xmlns:sodipodi="http://sodipodi.sourceforge.net/DTD/sodipodi-0.dtd"
   xmlns="http://www.w3.org/2000/svg"
   xmlns:svg="http://www.w3.org/2000/svg">
  <sodipodi:namedview
     id="namedview1"
     pagecolor="#ffffff"
     bordercolor="#000000"
     borderopacity="0.25"
     inkscape:showpageshadow="2"
     inkscape:pageopacity="0.0"
     inkscape:pagecheckerboard="0"
     inkscape:deskcolor="#d1d1d1"
     inkscape:document-units="px"
     inkscape:zoom="4.2736508"
     inkscape:cx="65.517754"
     inkscape:cy="27.260065"
     inkscape:window-width="1920"
     inkscape:window-height="1017"
     inkscape:window-x="1072"
     inkscape:window-y="239"
     inkscape:window-maximized="1"
     inkscape:current-layer="layer1" />
  <defs
     id="defs1" />
  <g
     inkscape:label="Camada 1"
     inkscape:groupmode="layer"
     id="layer1"
     transform="translate(-13.948418,-35.035049)">
    <g
       id="g28"
       transform="translate(-0.63048077,28.721794)">
      <g
         id="g12"
         transform="matrix(-0.95753835,0.28830594,0.28830594,0.95753835,34.873527,-5.6347374)"
         inkscape:transform-center-x="0.63482204"
         inkscape:transform-center-y="-0.13133174">
        <ellipse
           style="fill:#4f6ba4;fill-opacity:1;stroke:#000000;stroke-width:0.26459;stroke-linecap:round;stroke-linejoin:round;stroke-dasharray:none;stroke-opacity:1"
           id="ellipse10"
           cx="13.521854"
           cy="14.441093"
           rx="0.59771359"
           ry="1.242993"
           transform="matrix(0.98624631,-0.16528223,0.17581878,0.98442255,0,0)" />
        <ellipse
           style="fill:#4f6ba4;fill-opacity:1;stroke:#000000;stroke-width:0.264584;stroke-linecap:round;stroke-linejoin:round;stroke-dasharray:none;stroke-opacity:1"
           id="ellipse11"
           cx="13.212645"
           cy="14.550831"
           rx="0.47299948"
           ry="1.0044304"
           transform="matrix(0.98563506,-0.16888909,0.17207286,0.98508423,0,0)" />
      </g>
      <path
         style="fill:#4f6ba4;fill-opacity:1;stroke:none;stroke-width:0.264583;stroke-linecap:round;stroke-linejoin:round;stroke-dasharray:none"
         d="m 22.473467,15.168042 c 0,0 0.840449,-1.66931 0.928656,-2.724056 C 23.573525,10.394438 23.22497,7.2825039 21.266215,6.6553655 19.778317,6.1789824 17.57272,6.1460448 15.849057,7.9245281 14.777529,9.0301353 14.729132,11.06099 15.260908,12.505896 c 0.529802,1.439542 2.135908,2.971698 2.135908,2.971698 1.123837,1.309388 4.292637,1.060305 5.076651,-0.309552 z"
         id="path21"
         sodipodi:nodetypes="csssscc" />
      <path
         style="fill:none;stroke:#000000;stroke-width:0.265;stroke-linecap:round;stroke-linejoin:round;stroke-dasharray:none"
         d="m 19.823631,10.365125 c 0,0 1.106197,0.0934 1.104527,0.511543 -0.0018,0.43991 -1.030685,0.8245 -1.030685,0.8245 l 2.744506,0.02971 c 0,0 -1.157541,0.723012 -2.47917,0.908134 -1.14559,0.16046 -2.137062,-0.195607 -2.137062,-0.195607"
         id="path22"
         sodipodi:nodetypes="csccsc" />
      <path
         style="fill:#ffffff;fill-opacity:1;stroke:#000000;stroke-width:0.264583;stroke-linecap:round;stroke-linejoin:round"
         d="m 22.17389,11.998155 c 0,0 0.108393,0.588535 -0.222695,0.673014 -0.22133,0.05647 -0.466946,-0.363707 -0.466946,-0.363707 z"
         id="path23"
         sodipodi:nodetypes="cscc" />
      <path
         style="fill:#ffffff;fill-opacity:1;stroke:#000000;stroke-width:0.264583;stroke-linecap:round;stroke-linejoin:round"
         d="m 20.9776,12.491937 c 0,0 0.03174,0.57436 -0.30895,0.600582 -0.274375,0.02111 -0.397731,-0.429683 -0.397731,-0.429683 z"
         id="path24"
         sodipodi:nodetypes="cscc" />
      <path
         style="fill:#ffffff;fill-opacity:1;stroke:#000000;stroke-width:0.264583;stroke-linecap:round;stroke-linejoin:round"
         d="m 19.479087,12.748571 c 0,0 -0.173639,0.548418 -0.50155,0.452381 C 18.713445,13.123623 18.75766,12.65833 18.75766,12.65833 Z"
         id="path25"
         sodipodi:nodetypes="cscc" />
      <path
         style="fill:#51a44f;fill-opacity:1;stroke:#000000;stroke-width:0.264583;stroke-linecap:round;stroke-linejoin:round;stroke-dasharray:none"
         d="M 16.777712,8.543632 22.071049,7.7078418 22.225825,9.8127946 20.399469,9.9985257 19.6875,9.4413326 19.223172,10.153302 16.963443,10.493809 Z"
         id="path26"
         sodipodi:nodetypes="cccccccc" />
      <g
         id="g27">
        <ellipse
           style="fill:#4f6ba4;fill-opacity:1;stroke:#000000;stroke-width:0.26459;stroke-linecap:round;stroke-linejoin:round;stroke-dasharray:none;stroke-opacity:1"
           id="ellipse26"
           cx="13.521854"
           cy="14.441093"
           rx="0.59771359"
           ry="1.242993"
           transform="matrix(0.98624631,-0.16528223,0.17581878,0.98442255,0,0)" />
        <ellipse
           style="fill:#4f6ba4;fill-opacity:1;stroke:#000000;stroke-width:0.264584;stroke-linecap:round;stroke-linejoin:round;stroke-dasharray:none;stroke-opacity:1"
           id="ellipse27"
           cx="13.212645"
           cy="14.550831"
           rx="0.47299948"
           ry="1.0044304"
           transform="matrix(0.98563506,-0.16888909,0.17207286,0.98508423,0,0)" />
      </g>
      <path
         style="fill:none;fill-opacity:1;stroke:#000000;stroke-width:0.529167;stroke-linecap:round;stroke-linejoin:round;stroke-dasharray:none;stroke-opacity:1"
         d="m 21.598304,16.519956 c 1.262763,-1.212987 1.961699,-3.271659 1.922905,-5.115983 0,0 0.736435,0.262887 0.621948,-1.061598 -0.11063,-1.2798604 -0.886489,-0.9083783 -0.886489,-0.9083783 -1.255049,-5.0847788 -8.984253,-2.6818502 -8.262956,1.7729783 0,0 -0.256709,0.20914 -0.0985,1.171041 0.142142,0.864201 0.777045,1.006878 0.777045,1.006878 0.453254,1.298859 1.934748,2.570557 3.046086,3.293593"
         id="path27"
         sodipodi:nodetypes="ccsccscc" />
      <path
         style="fill:none;fill-opacity:1;stroke:#000000;stroke-width:0.264583;stroke-linecap:round;stroke-linejoin:round;stroke-dasharray:none;stroke-opacity:1"
         d="m 23.129159,9.4990985 c 0,0 0.342613,1.7066795 0.242008,2.3412615"
         id="path28"
         sodipodi:nodetypes="cc" />
    </g>
  </g>
</svg>
