<?xml version="1.0" encoding="UTF-8" standalone="no"?>
<!-- Created with Inkscape (http://www.inkscape.org/) -->

<svg
   width="82.897995"
   height="87.834412"
   viewBox="0 0 21.933427 23.239521"
   version="1.1"
   id="svg1"
   inkscape:version="1.3.2 (091e20e, 2023-11-25, custom)"
   sodipodi:docname="PLANTAbarreiraSTONE.svg"
   xmlns:inkscape="http://www.inkscape.org/namespaces/inkscape"
   xmlns:sodipodi="http://sodipodi.sourceforge.net/DTD/sodipodi-0.dtd"
   xmlns="http://www.w3.org/2000/svg"
   xmlns:svg="http://www.w3.org/2000/svg">
  <sodipodi:namedview
     id="namedview1"
     pagecolor="#ffffff"
     bordercolor="#000000"
     borderopacity="0.25"
     inkscape:showpageshadow="2"
     inkscape:pageopacity="0.0"
     inkscape:pagecheckerboard="0"
     inkscape:deskcolor="#d1d1d1"
     inkscape:document-units="px"
     inkscape:zoom="4.2736508"
     inkscape:cx="65.517754"
     inkscape:cy="27.260065"
     inkscape:window-width="1920"
     inkscape:window-height="1017"
     inkscape:window-x="1072"
     inkscape:window-y="239"
     inkscape:window-maximized="1"
     inkscape:current-layer="layer1" />
  <defs
     id="defs1" />
  <g
     inkscape:label="Camada 1"
     inkscape:groupmode="layer"
     id="layer1"
     transform="translate(-7.2640744,-1.5415358)">
    <path
       style="fill:#4f6ba4;fill-opacity:1;stroke:#000000;stroke-width:0.529167;stroke-linecap:round;stroke-linejoin:round;stroke-dasharray:none;stroke-opacity:1"
       d="m 12.196344,12.831589 c 2.157975,-2.478109 7.245209,-3.056555 10.339033,-1.589591 1.589228,0.753548 2.402498,2.793422 2.259729,4.406234 -0.171995,1.94297 -2.952773,2.998814 -3.621757,4.852435 -0.434205,1.203093 -0.154776,3.792708 -0.154776,3.792708 l -4.82901,0.2231 c 0,0 0.02289,-2.706055 -0.619103,-3.87637 -0.627153,-1.143269 -2.390366,-1.570223 -2.971698,-2.73298 -0.773199,-1.546521 -1.564515,-3.741043 -0.402418,-5.075536 z"
       id="path12"
       sodipodi:nodetypes="ssssccsss" />
    <g
       id="g11"
       transform="translate(-2.3639713,-4.7717199)">
      <g
         id="g9"
         transform="matrix(-0.95753835,0.28830594,0.28830594,0.95753835,34.873527,-5.6347374)"
         inkscape:transform-center-x="0.63482204"
         inkscape:transform-center-y="-0.13133174">
        <ellipse
           style="fill:#4f6ba4;fill-opacity:1;stroke:#000000;stroke-width:0.26459;stroke-linecap:round;stroke-linejoin:round;stroke-dasharray:none;stroke-opacity:1"
           id="ellipse8"
           cx="13.521854"
           cy="14.441093"
           rx="0.59771359"
           ry="1.242993"
           transform="matrix(0.98624631,-0.16528223,0.17581878,0.98442255,0,0)" />
        <ellipse
           style="fill:#4f6ba4;fill-opacity:1;stroke:#000000;stroke-width:0.264584;stroke-linecap:round;stroke-linejoin:round;stroke-dasharray:none;stroke-opacity:1"
           id="ellipse9"
           cx="13.212645"
           cy="14.550831"
           rx="0.47299948"
           ry="1.0044304"
           transform="matrix(0.98563506,-0.16888909,0.17207286,0.98508423,0,0)" />
      </g>
      <path
         style="fill:#4f6ba4;fill-opacity:1;stroke:none;stroke-width:0.264583;stroke-linecap:round;stroke-linejoin:round;stroke-dasharray:none"
         d="m 22.473467,15.168042 c 0,0 0.840449,-1.66931 0.928656,-2.724056 C 23.573525,10.394438 23.22497,7.2825039 21.266215,6.6553655 19.778317,6.1789824 17.57272,6.1460448 15.849057,7.9245281 14.777529,9.0301353 14.729132,11.06099 15.260908,12.505896 c 0.529802,1.439542 2.135908,2.971698 2.135908,2.971698 1.123837,1.309388 4.292637,1.060305 5.076651,-0.309552 z"
         id="path6"
         sodipodi:nodetypes="csssscc" />
      <path
         style="fill:none;stroke:#000000;stroke-width:0.265;stroke-linecap:round;stroke-linejoin:round;stroke-dasharray:none"
         d="m 19.823631,10.365125 c 0,0 1.106197,0.0934 1.104527,0.511543 -0.0018,0.43991 -1.030685,0.8245 -1.030685,0.8245 l 2.744506,0.02971 c 0,0 -1.157541,0.723012 -2.47917,0.908134 -1.14559,0.16046 -2.137062,-0.195607 -2.137062,-0.195607"
         id="path2"
         sodipodi:nodetypes="csccsc" />
      <path
         style="fill:#ffffff;fill-opacity:1;stroke:#000000;stroke-width:0.264583;stroke-linecap:round;stroke-linejoin:round"
         d="m 22.17389,11.998155 c 0,0 0.108393,0.588535 -0.222695,0.673014 -0.22133,0.05647 -0.466946,-0.363707 -0.466946,-0.363707 z"
         id="path3"
         sodipodi:nodetypes="cscc" />
      <path
         style="fill:#ffffff;fill-opacity:1;stroke:#000000;stroke-width:0.264583;stroke-linecap:round;stroke-linejoin:round"
         d="m 20.9776,12.491937 c 0,0 0.03174,0.57436 -0.30895,0.600582 -0.274375,0.02111 -0.397731,-0.429683 -0.397731,-0.429683 z"
         id="path4"
         sodipodi:nodetypes="cscc" />
      <path
         style="fill:#ffffff;fill-opacity:1;stroke:#000000;stroke-width:0.264583;stroke-linecap:round;stroke-linejoin:round"
         d="m 19.479087,12.748571 c 0,0 -0.173639,0.548418 -0.50155,0.452381 C 18.713445,13.123623 18.75766,12.65833 18.75766,12.65833 Z"
         id="path5"
         sodipodi:nodetypes="cscc" />
      <path
         style="fill:#51a44f;fill-opacity:1;stroke:#000000;stroke-width:0.264583;stroke-linecap:round;stroke-linejoin:round;stroke-dasharray:none"
         d="M 16.777712,8.543632 22.071049,7.7078418 22.225825,9.8127946 20.399469,9.9985257 19.6875,9.4413326 19.223172,10.153302 16.963443,10.493809 Z"
         id="path1"
         sodipodi:nodetypes="cccccccc" />
      <g
         id="g7">
        <ellipse
           style="fill:#4f6ba4;fill-opacity:1;stroke:#000000;stroke-width:0.26459;stroke-linecap:round;stroke-linejoin:round;stroke-dasharray:none;stroke-opacity:1"
           id="path7"
           cx="13.521854"
           cy="14.441093"
           rx="0.59771359"
           ry="1.242993"
           transform="matrix(0.98624631,-0.16528223,0.17581878,0.98442255,0,0)" />
        <ellipse
           style="fill:#4f6ba4;fill-opacity:1;stroke:#000000;stroke-width:0.264584;stroke-linecap:round;stroke-linejoin:round;stroke-dasharray:none;stroke-opacity:1"
           id="ellipse7"
           cx="13.212645"
           cy="14.550831"
           rx="0.47299948"
           ry="1.0044304"
           transform="matrix(0.98563506,-0.16888909,0.17207286,0.98508423,0,0)" />
      </g>
      <path
         style="fill:none;fill-opacity:1;stroke:#000000;stroke-width:0.529167;stroke-linecap:round;stroke-linejoin:round;stroke-dasharray:none;stroke-opacity:1"
         d="m 21.598304,16.519956 c 1.262763,-1.212987 1.961699,-3.271659 1.922905,-5.115983 0,0 0.736435,0.262887 0.621948,-1.061598 -0.11063,-1.2798604 -0.886489,-0.9083783 -0.886489,-0.9083783 -1.255049,-5.0847788 -8.984253,-2.6818502 -8.262956,1.7729783 0,0 -0.256709,0.20914 -0.0985,1.171041 0.142142,0.864201 0.777045,1.006878 0.777045,1.006878 0.453254,1.298859 1.934748,2.570557 3.046086,3.293593"
         id="path9"
         sodipodi:nodetypes="ccsccscc" />
      <path
         style="fill:none;fill-opacity:1;stroke:#000000;stroke-width:0.264583;stroke-linecap:round;stroke-linejoin:round;stroke-dasharray:none;stroke-opacity:1"
         d="m 23.129159,9.4990985 c 0,0 0.342613,1.7066795 0.242008,2.3412615"
         id="path11"
         sodipodi:nodetypes="cc" />
    </g>
    <path
       style="fill:none;fill-opacity:1;stroke:#000000;stroke-width:0.264583;stroke-linecap:round;stroke-linejoin:round;stroke-dasharray:none;stroke-opacity:1"
       d="m 19.370896,15.913434 c 1.499973,0.44808 2.891077,0.32311 3.962255,-1.485849"
       id="path13"
       sodipodi:nodetypes="cc" />
    <path
       style="fill:none;fill-opacity:1;stroke:#000000;stroke-width:0.264583;stroke-linecap:round;stroke-linejoin:round;stroke-dasharray:none;stroke-opacity:1"
       d="m 14.791271,17.368327 c 1.698847,0.44808 3.27439,0.32311 4.487589,-1.485849"
       id="path14"
       sodipodi:nodetypes="cc" />
    <g
       id="g17"
       transform="rotate(7.544622,-9.9811081,68.606731)"
       inkscape:transform-center-x="0.61280904"
       inkscape:transform-center-y="1.3739625">
      <path
         style="fill:#4f6ba4;fill-opacity:1;stroke:none;stroke-width:0.264584;stroke-linecap:round;stroke-linejoin:round;stroke-dasharray:none;stroke-opacity:1"
         d="M 6.6526854,9.8961473 1.7539952,9.7091963 C 1.4002375,9.6956953 -0.25969331,14.431286 0.88196969,15.803266 2.4698462,17.711478 6.3459842,18.089408 8.8643712,17.462489 9.2153982,17.375109 9.4902304,16.92194 9.4902304,16.92194 l 1.1283886,0.06442 0.114089,-0.398855 -1.1291388,-0.569944 1.1453668,-0.244079 -0.0077,-0.601735 -1.0320288,0.211454 0.8095978,-0.986783 -0.2464,-0.528634 -1.1016778,0.918805 -1.010315,1.19573 c 0,0 -3.477384,0.05451 -4.485603,-0.55508 -0.613478,-0.370921 1.071215,-2.616721 1.071215,-2.616721 l 1.3083022,-0.200721 z"
         id="path15"
         sodipodi:nodetypes="cssscccccccccccsccc" />
      <path
         style="fill:#2f3c56;fill-opacity:1;stroke:#000000;stroke-width:0.264583;stroke-linecap:round;stroke-linejoin:round;stroke-dasharray:none;stroke-opacity:1"
         d="M 5.5874115,9.8901826 C 5.5100103,10.838857 3.9225701,11.078144 2.9716981,11.035525 2.1366826,10.998099 0.91814205,10.651582 0.7738797,9.8282724 0.59056182,8.7820713 1.9277258,8.0739188 2.9871757,8.2031249 4.0127699,8.3282021 5.6714293,8.8604114 5.5874115,9.8901826 Z"
         id="path16"
         sodipodi:nodetypes="sssss" />
      <path
         style="fill:none;fill-opacity:1;stroke:#000000;stroke-width:0.529167;stroke-linecap:round;stroke-linejoin:round;stroke-dasharray:none;stroke-opacity:1"
         d="M 6.1446049,9.874705 5.5951503,9.7586232 C 5.5352086,9.8014387 5.679718,8.5395968 3.1109965,8.2418189 0.53795022,7.9435396 0.31207017,10.231624 1.2691627,10.586674 0.46029529,12.851221 0.292972,14.554417 0.80483489,15.663325 2.5094722,17.544297 5.3286912,17.995698 8.9305719,17.443249 l 0.572671,-0.448851 1.1143871,0.03096 0.170253,-0.402418 -1.0369985,-0.60363 1.0215215,-0.185731 0.04643,-0.681014 L 9.8592276,15.307341 10.61763,14.394163 10.277122,13.775059 9.0853478,14.765625 8.1566921,15.9574 C 6.4373302,16.01534 4.7295855,16.05669 3.5753243,15.307341 3.6454903,14.505508 4.232436,13.656694 4.7361437,12.815448 l 0.8357902,-0.154776"
         id="path17"
         sodipodi:nodetypes="ccsccccccccccccccccc" />
    </g>
    <g
       id="g20"
       transform="matrix(-0.84304977,0.53783557,0.53783557,0.84304977,21.187141,-0.31039733)"
       inkscape:transform-center-x="-2.0003279"
       inkscape:transform-center-y="1.2259741">
      <path
         style="fill:#4f6ba4;fill-opacity:1;stroke:none;stroke-width:0.264584;stroke-linecap:round;stroke-linejoin:round;stroke-dasharray:none;stroke-opacity:1"
         d="M 6.6526854,9.8961473 1.7539952,9.7091963 C 1.4002375,9.6956953 -0.25969331,14.431286 0.88196969,15.803266 2.4698462,17.711478 6.3459842,18.089408 8.8643712,17.462489 9.2153982,17.375109 9.4902304,16.92194 9.4902304,16.92194 l 1.1283886,0.06442 0.114089,-0.398855 -1.1291388,-0.569944 1.1453668,-0.244079 -0.0077,-0.601735 -1.0320288,0.211454 0.8095978,-0.986783 -0.2464,-0.528634 -1.1016778,0.918805 -1.010315,1.19573 c 0,0 -3.477384,0.05451 -4.485603,-0.55508 -0.613478,-0.370921 1.071215,-2.616721 1.071215,-2.616721 l 1.3083022,-0.200721 z"
         id="path18"
         sodipodi:nodetypes="cssscccccccccccsccc" />
      <path
         style="fill:#2f3c56;fill-opacity:1;stroke:#000000;stroke-width:0.264583;stroke-linecap:round;stroke-linejoin:round;stroke-dasharray:none;stroke-opacity:1"
         d="M 5.5874115,9.8901826 C 5.5100103,10.838857 3.9225701,11.078144 2.9716981,11.035525 2.1366826,10.998099 0.91814205,10.651582 0.7738797,9.8282724 0.59056182,8.7820713 1.9277258,8.0739188 2.9871757,8.2031249 4.0127699,8.3282021 5.6714293,8.8604114 5.5874115,9.8901826 Z"
         id="path19"
         sodipodi:nodetypes="sssss" />
      <path
         style="fill:none;fill-opacity:1;stroke:#000000;stroke-width:0.529167;stroke-linecap:round;stroke-linejoin:round;stroke-dasharray:none;stroke-opacity:1"
         d="M 6.1446049,9.874705 5.5951503,9.7586232 C 5.5352086,9.8014387 5.679718,8.5395968 3.1109965,8.2418189 0.53795022,7.9435396 0.31207017,10.231624 1.2691627,10.586674 0.46029529,12.851221 0.292972,14.554417 0.80483489,15.663325 2.5094722,17.544297 5.3286912,17.995698 8.9305719,17.443249 l 0.572671,-0.448851 1.1143871,0.03096 0.170253,-0.402418 -1.0369985,-0.60363 1.0215215,-0.185731 0.04643,-0.681014 L 9.8592276,15.307341 10.61763,14.394163 10.277122,13.775059 9.0853478,14.765625 8.1566921,15.9574 C 6.4373302,16.01534 4.7295855,16.05669 3.5753243,15.307341 3.6454903,14.505508 4.232436,13.656694 4.7361437,12.815448 l 0.8357902,-0.154776"
         id="path20"
         sodipodi:nodetypes="ccsccccccccccccccccc" />
    </g>
  </g>
</svg>
