<?xml version="1.0" encoding="UTF-8" standalone="no"?>
<!-- Created with Inkscape (http://www.inkscape.org/) -->

<svg
   width="37.076881"
   height="41.193874"
   viewBox="0 0 9.8099246 10.899212"
   version="1.1"
   id="svg1"
   inkscape:version="1.3.2 (091e20e, 2023-11-25, custom)"
   sodipodi:docname="PLANTAexplosaoZAWARIDO.svg"
   xmlns:inkscape="http://www.inkscape.org/namespaces/inkscape"
   xmlns:sodipodi="http://sodipodi.sourceforge.net/DTD/sodipodi-0.dtd"
   xmlns="http://www.w3.org/2000/svg"
   xmlns:svg="http://www.w3.org/2000/svg">
  <sodipodi:namedview
     id="namedview1"
     pagecolor="#ffffff"
     bordercolor="#000000"
     borderopacity="0.25"
     inkscape:showpageshadow="2"
     inkscape:pageopacity="0.0"
     inkscape:pagecheckerboard="0"
     inkscape:deskcolor="#d1d1d1"
     inkscape:document-units="px"
     inkscape:zoom="2.8284271"
     inkscape:cx="125.51145"
     inkscape:cy="18.915106"
     inkscape:window-width="1920"
     inkscape:window-height="1017"
     inkscape:window-x="1072"
     inkscape:window-y="239"
     inkscape:window-maximized="1"
     inkscape:current-layer="layer1" />
  <defs
     id="defs1" />
  <g
     inkscape:label="Camada 1"
     inkscape:groupmode="layer"
     id="layer1"
     transform="translate(-25.82934,-39.818603)">
    <g
       id="g89"
       transform="translate(11.384753,36.230788)"
       inkscape:transform-center-x="0.83177239"
       inkscape:transform-center-y="-4.6394289">
      <path
         style="fill:#ffeeaa;stroke:none;stroke-width:0.264583;stroke-linecap:round;stroke-linejoin:round;stroke-dasharray:none"
         d="m 20.028007,6.9649175 3.652712,-2.4454601 -0.77388,9.7508846 -5.107606,0.216686 -2.321639,-9.2865564 z"
         id="path80" />
      <path
         style="fill:none;stroke:#000000;stroke-width:0.265;stroke-linecap:round;stroke-linejoin:round;stroke-dasharray:none"
         d="m 20.018047,9.5129153 c 0,0 1.106197,0.093395 1.104528,0.5115427 -0.0018,0.43991 -1.030685,0.8245 -1.030685,0.8245 l 2.744506,0.0297 c 0,0 -1.157541,0.723012 -2.47917,0.908134 -1.14559,0.16046 -2.137062,-0.195607 -2.137062,-0.195607"
         id="path81"
         sodipodi:nodetypes="csccsc" />
      <path
         style="fill:#ffffff;fill-opacity:1;stroke:#000000;stroke-width:0.264583;stroke-linecap:round;stroke-linejoin:round"
         d="m 22.368307,11.145945 c 0,0 0.108393,0.588535 -0.222695,0.673014 -0.22133,0.05647 -0.466946,-0.363707 -0.466946,-0.363707 z"
         id="path82"
         sodipodi:nodetypes="cscc" />
      <path
         style="fill:#ffffff;fill-opacity:1;stroke:#000000;stroke-width:0.264583;stroke-linecap:round;stroke-linejoin:round"
         d="m 21.172017,11.639727 c 0,0 0.03174,0.57436 -0.30895,0.600582 -0.274375,0.02111 -0.397731,-0.429683 -0.397731,-0.429683 z"
         id="path83"
         sodipodi:nodetypes="cscc" />
      <path
         style="fill:#ffffff;fill-opacity:1;stroke:#000000;stroke-width:0.264583;stroke-linecap:round;stroke-linejoin:round"
         d="m 19.673504,11.896362 c 0,0 -0.173639,0.548417 -0.50155,0.45238 -0.264092,-0.07733 -0.219878,-0.542622 -0.219878,-0.542622 z"
         id="path84"
         sodipodi:nodetypes="cscc" />
      <path
         style="fill:#e1b60c;fill-opacity:1;stroke:#000000;stroke-width:0.264583;stroke-linecap:round;stroke-linejoin:round;stroke-dasharray:none;stroke-opacity:1"
         d="m 15.601415,5.4171579 1.114387,4.6742331 3.436026,-1.0215207 3.095519,0.6810142 0.309551,-5.045696 -3.590801,2.259729 z"
         id="path85" />
      <g
         id="g87"
         transform="translate(-0.09286556,-0.40241745)">
        <path
           style="fill:#e6e6e6;stroke:#000000;stroke-width:0.264583;stroke-linecap:round;stroke-linejoin:round;stroke-dasharray:none"
           d="m 17.532787,7.7485728 2.057531,0.6128814 c 0,0 -0.309243,1.1172641 -0.766102,1.1382084 -0.611283,0.028024 -1.291429,-1.7510898 -1.291429,-1.7510898 z"
           id="path86"
           sodipodi:nodetypes="ccsc" />
        <ellipse
           style="fill:#e6e6e6;stroke:#000000;stroke-width:0.264583;stroke-linecap:round;stroke-linejoin:round;stroke-dasharray:none"
           id="ellipse86"
           cx="19.010269"
           cy="8.7554493"
           rx="0.38305092"
           ry="0.37210661" />
        <path
           style="fill:#e6e6e6;stroke:#000000;stroke-width:0.264583;stroke-linecap:round;stroke-linejoin:round;stroke-dasharray:none"
           d="m 20.188719,8.156016 2.090315,-0.489531 c 0,0 0.286271,1.12337 -0.0999,1.368375 -0.516707,0.327821 -1.990411,-0.878844 -1.990411,-0.878844 z"
           id="path87"
           sodipodi:nodetypes="ccsc" />
        <ellipse
           style="fill:#e6e6e6;stroke:#000000;stroke-width:0.264583;stroke-linecap:round;stroke-linejoin:round;stroke-dasharray:none"
           id="ellipse87"
           cx="21.965233"
           cy="8.5365629"
           rx="0.38305092"
           ry="0.37210661" />
      </g>
      <path
         style="fill:#c7ac40;fill-opacity:1;stroke:#000000;stroke-width:0.264583;stroke-linecap:round;stroke-linejoin:round;stroke-dasharray:none;stroke-opacity:1"
         d="M 20.028007,6.9958727 15.106132,5.1695164 14.79658,4.457547 23.835495,3.8693986 23.86645,4.4265918 Z"
         id="path88" />
      <path
         style="fill:none;fill-opacity:1;stroke:#000000;stroke-width:0.529167;stroke-linecap:round;stroke-linejoin:round;stroke-dasharray:none;stroke-opacity:1"
         d="m 23.026832,12.870511 0.569104,-8.0987911 0.393995,-0.2188861 -0.08755,-0.700436 -9.193222,0.5253268 0.306441,0.7879905 0.612881,0.2626636 1.926199,7.7923503"
         id="path89" />
    </g>
  </g>
</svg>
