<?xml version="1.0" encoding="UTF-8" standalone="no"?>
<!-- Created with Inkscape (http://www.inkscape.org/) -->

<svg
   width="144.1463"
   height="89.373215"
   viewBox="0 0 38.138708 23.646663"
   version="1.1"
   id="svg1"
   inkscape:version="1.3.2 (091e20e, 2023-11-25, custom)"
   sodipodi:docname="PLANTAexplosaoZAWARIDO.svg"
   xmlns:inkscape="http://www.inkscape.org/namespaces/inkscape"
   xmlns:sodipodi="http://sodipodi.sourceforge.net/DTD/sodipodi-0.dtd"
   xmlns="http://www.w3.org/2000/svg"
   xmlns:svg="http://www.w3.org/2000/svg">
  <sodipodi:namedview
     id="namedview1"
     pagecolor="#ffffff"
     bordercolor="#000000"
     borderopacity="0.25"
     inkscape:showpageshadow="2"
     inkscape:pageopacity="0.0"
     inkscape:pagecheckerboard="0"
     inkscape:deskcolor="#d1d1d1"
     inkscape:document-units="px"
     inkscape:zoom="2.8284271"
     inkscape:cx="125.51145"
     inkscape:cy="18.915106"
     inkscape:window-width="1920"
     inkscape:window-height="1017"
     inkscape:window-x="1072"
     inkscape:window-y="239"
     inkscape:window-maximized="1"
     inkscape:current-layer="layer1" />
  <defs
     id="defs1" />
  <g
     inkscape:label="Camada 1"
     inkscape:groupmode="layer"
     id="layer1"
     transform="translate(-0.44651223,-1.7460602)">
    <g
       id="g45"
       transform="matrix(-0.9283964,-0.37159133,-0.37159133,0.9283964,42.445664,17.371768)"
       inkscape:transform-center-x="5.9354579"
       inkscape:transform-center-y="1.9298551">
      <g
         id="g44">
        <path
           style="fill:#ffeeaa;fill-opacity:1;stroke:#000000;stroke-width:0.264583;stroke-linecap:round;stroke-linejoin:round;stroke-dasharray:none;stroke-opacity:1"
           d="m 28.090844,5.9329304 c 0,0 3.292312,0.05934 4.395635,1.9501773 1.077373,1.846364 0.756035,6.5512703 -1.269161,7.2435143 -0.732282,0.250305 -1.104455,-0.922544 -1.392984,-1.640625 -0.511528,-1.273073 0.49965,-2.119848 -0.495281,-3.064564 C 29.111542,10.2149 28.431352,9.3380017 28.431352,9.3380017 26.592745,8.1190624 26.698968,6.8166036 28.090844,5.9329304 Z"
           id="path42"
           sodipodi:nodetypes="csssscc" />
        <path
           style="fill:#ffeeaa;fill-opacity:1;stroke:#000000;stroke-width:0.264583;stroke-linecap:round;stroke-linejoin:round;stroke-dasharray:none;stroke-opacity:1"
           d="m 35.330188,14.52047 c 0,0 -3.741996,1.467364 -4.874579,0.296867 -0.415893,-0.429817 -0.229031,-1.338274 0.165886,-1.787477 0.55432,-0.630516 2.456426,-0.549988 2.456426,-0.549988 z"
           id="path43"
           sodipodi:nodetypes="csscc" />
        <path
           style="fill:#e1b60c;fill-opacity:1;stroke:#000000;stroke-width:0.264583;stroke-linecap:round;stroke-linejoin:round;stroke-dasharray:none;stroke-opacity:1"
           d="m 33.108635,10.432012 0.106472,-2.6109453 1.974548,0.506922 -0.182784,2.2728143 1.96117,-2.0059173 1.074478,0.482535 -1.250709,1.9451533 2.687104,-0.236582 0.784679,0.960108 -4.929584,2.803177 -2.555143,-1.805046 z"
           id="path44"
           sodipodi:nodetypes="cccccccccccc" />
      </g>
      <path
         style="fill:none;fill-opacity:1;stroke:#000000;stroke-width:0.529167;stroke-linecap:round;stroke-linejoin:round;stroke-dasharray:none;stroke-opacity:1"
         d="M 28.533021,9.5390476 C 26.911274,8.2036427 26.704774,6.26452 28.154603,6.009627 c 2.252534,-0.3960157 4.572986,0.5536157 4.940996,4.387469 l 0.109442,-2.5609688 1.904312,0.4815498 -0.15322,2.276417 2.035641,-1.9480876 1.050655,0.4377725 -1.203875,1.9480871 2.670413,-0.218886 0.766101,0.875545 -5.034383,2.86741 c -1.455118,0.570583 -2.945939,0.938849 -4.574723,0.525327 l -1.072544,-2.07942 c -0.188455,-0.68442 0.100566,-1.449776 0.240775,-2.079418 -0.745463,-0.406831 -0.952446,-0.749838 -1.301172,-1.3833764 z"
         id="path45"
         sodipodi:nodetypes="cscccccccccccccc" />
    </g>
    <g
       id="g41"
       transform="rotate(-12.193144,45.393056,21.488683)"
       inkscape:transform-center-x="-5.8985325"
       inkscape:transform-center-y="2.5531216">
      <g
         id="g40">
        <path
           style="fill:#ffeeaa;fill-opacity:1;stroke:#000000;stroke-width:0.264583;stroke-linecap:round;stroke-linejoin:round;stroke-dasharray:none;stroke-opacity:1"
           d="m 28.090844,5.9329304 c 0,0 3.292312,0.05934 4.395635,1.9501773 1.077373,1.846364 0.756035,6.5512703 -1.269161,7.2435143 -0.732282,0.250305 -1.104455,-0.922544 -1.392984,-1.640625 -0.511528,-1.273073 0.49965,-2.119848 -0.495281,-3.064564 C 29.111542,10.2149 28.431352,9.3380017 28.431352,9.3380017 26.592745,8.1190624 26.698968,6.8166036 28.090844,5.9329304 Z"
           id="path40"
           sodipodi:nodetypes="csssscc" />
        <path
           style="fill:#ffeeaa;fill-opacity:1;stroke:#000000;stroke-width:0.264583;stroke-linecap:round;stroke-linejoin:round;stroke-dasharray:none;stroke-opacity:1"
           d="m 35.330188,14.52047 c 0,0 -3.741996,1.467364 -4.874579,0.296867 -0.415893,-0.429817 -0.229031,-1.338274 0.165886,-1.787477 0.55432,-0.630516 2.456426,-0.549988 2.456426,-0.549988 z"
           id="path39"
           sodipodi:nodetypes="csscc" />
        <path
           style="fill:#e1b60c;fill-opacity:1;stroke:#000000;stroke-width:0.264583;stroke-linecap:round;stroke-linejoin:round;stroke-dasharray:none;stroke-opacity:1"
           d="m 33.108635,10.432012 0.106472,-2.6109453 1.974548,0.506922 -0.182784,2.2728143 1.96117,-2.0059173 1.074478,0.482535 -1.250709,1.9451533 2.687104,-0.236582 0.784679,0.960108 -4.929584,2.803177 -2.555143,-1.805046 z"
           id="path38"
           sodipodi:nodetypes="cccccccccccc" />
      </g>
      <path
         style="fill:none;fill-opacity:1;stroke:#000000;stroke-width:0.529167;stroke-linecap:round;stroke-linejoin:round;stroke-dasharray:none;stroke-opacity:1"
         d="M 28.533021,9.5390476 C 26.911274,8.2036427 26.704774,6.26452 28.154603,6.009627 c 2.252534,-0.3960157 4.572986,0.5536157 4.940996,4.387469 l 0.109442,-2.5609688 1.904312,0.4815498 -0.15322,2.276417 2.035641,-1.9480876 1.050655,0.4377725 -1.203875,1.9480871 2.670413,-0.218886 0.766101,0.875545 -5.034383,2.86741 c -1.455118,0.570583 -2.945939,0.938849 -4.574723,0.525327 l -1.072544,-2.07942 c -0.188455,-0.68442 0.100566,-1.449776 0.240775,-2.079418 -0.745463,-0.406831 -0.952446,-0.749838 -1.301172,-1.3833764 z"
         id="path41"
         sodipodi:nodetypes="cscccccccccccccc" />
    </g>
    <g
       id="g37">
      <g
         id="g28">
        <path
           style="fill:#ffeeaa;fill-opacity:1;stroke:#000000;stroke-width:0.529167;stroke-linecap:round;stroke-linejoin:round;stroke-dasharray:none;stroke-opacity:1"
           d="M 12.08252,11.557194 25.91613,8.9305589 27.535887,20.531529 23.333272,24.64659 17.510898,25.12814 13.395837,22.413951 Z"
           id="path12"
           sodipodi:nodetypes="ccccccc" />
        <path
           style="fill:#e1b60c;fill-opacity:1;stroke:#000000;stroke-width:0.264583;stroke-linecap:round;stroke-linejoin:round;stroke-dasharray:none;stroke-opacity:1"
           d="m 15.092984,11.17602 1.54237,10.274831 2.757966,3.370848 -1.926198,0.262664 -3.90103,-2.708878 -1.359751,-10.74356 z"
           id="path13"
           sodipodi:nodetypes="ccccccc" />
        <path
           style="fill:#e1b60c;fill-opacity:1;stroke:#000000;stroke-width:0.264583;stroke-linecap:round;stroke-linejoin:round;stroke-dasharray:none;stroke-opacity:1"
           d="m 25.661851,9.2246462 -2.259729,0.4333727 1.578715,10.7104951 -2.909788,4.206472 h 1.145342 l 4.117041,-4.175517 z"
           id="path14"
           sodipodi:nodetypes="ccccccc" />
        <path
           style="fill:none;fill-opacity:1;stroke:#000000;stroke-width:0.264583;stroke-linecap:round;stroke-linejoin:round;stroke-dasharray:none;stroke-opacity:1"
           d="m 15.353774,13.372641 -2.909788,0.340507"
           id="path15" />
        <path
           style="fill:none;fill-opacity:1;stroke:#000000;stroke-width:0.264583;stroke-linecap:round;stroke-linejoin:round;stroke-dasharray:none;stroke-opacity:1"
           d="m 15.787146,15.663325 -3.28125,0.371462"
           id="path16" />
        <path
           style="fill:none;fill-opacity:1;stroke:#000000;stroke-width:0.264583;stroke-linecap:round;stroke-linejoin:round;stroke-dasharray:none;stroke-opacity:1"
           d="m 16.096698,17.737323 -3.126474,0.464328"
           id="path17" />
        <path
           style="fill:none;fill-opacity:1;stroke:#000000;stroke-width:0.264583;stroke-linecap:round;stroke-linejoin:round;stroke-dasharray:none;stroke-opacity:1"
           d="M 16.313384,19.470813 13.125,19.811321"
           id="path18" />
        <path
           style="fill:none;fill-opacity:1;stroke:#000000;stroke-width:0.264583;stroke-linecap:round;stroke-linejoin:round;stroke-dasharray:none;stroke-opacity:1"
           d="m 16.622936,21.451945 -3.126474,0.897701"
           id="path19" />
        <path
           style="fill:none;fill-opacity:1;stroke:#000000;stroke-width:0.264583;stroke-linecap:round;stroke-linejoin:round;stroke-dasharray:none;stroke-opacity:1"
           d="m 17.520637,22.690153 -2.538326,0.711969"
           id="path20" />
        <path
           style="fill:none;fill-opacity:1;stroke:#000000;stroke-width:0.264583;stroke-linecap:round;stroke-linejoin:round;stroke-dasharray:none;stroke-opacity:1"
           d="m 18.635023,23.959316 -2.073997,0.464328"
           id="path21" />
        <path
           style="fill:none;fill-opacity:1;stroke:#000000;stroke-width:0.264583;stroke-linecap:round;stroke-linejoin:round;stroke-dasharray:none;stroke-opacity:1"
           d="m 23.74263,11.701061 2.228773,-0.433372"
           id="path22" />
        <path
           style="fill:none;fill-opacity:1;stroke:#000000;stroke-width:0.264583;stroke-linecap:round;stroke-linejoin:round;stroke-dasharray:none;stroke-opacity:1"
           d="M 24.021226,13.89888 26.25,13.403596"
           id="path23" />
        <path
           style="fill:none;fill-opacity:1;stroke:#000000;stroke-width:0.264583;stroke-linecap:round;stroke-linejoin:round;stroke-dasharray:none;stroke-opacity:1"
           d="M 24.330778,16.096698 26.528596,15.63237"
           id="path24" />
        <path
           style="fill:none;fill-opacity:1;stroke:#000000;stroke-width:0.264583;stroke-linecap:round;stroke-linejoin:round;stroke-dasharray:none;stroke-opacity:1"
           d="m 24.578419,18.139741 2.321639,-0.588149"
           id="path25" />
        <path
           style="fill:none;fill-opacity:1;stroke:#000000;stroke-width:0.264583;stroke-linecap:round;stroke-linejoin:round;stroke-dasharray:none;stroke-opacity:1"
           d="m 25.011792,20.399469 h 2.290684"
           id="path26" />
        <path
           style="fill:none;fill-opacity:1;stroke:#000000;stroke-width:0.264583;stroke-linecap:round;stroke-linejoin:round;stroke-dasharray:none;stroke-opacity:1"
           d="m 24.114092,21.761497 1.826356,0.09287"
           id="path27" />
        <path
           style="fill:none;fill-opacity:1;stroke:#000000;stroke-width:0.264583;stroke-linecap:round;stroke-linejoin:round;stroke-dasharray:none;stroke-opacity:1"
           d="m 23.03066,23.216391 1.392984,0.216687"
           id="path28" />
      </g>
      <path
         style="fill:none;fill-opacity:1;stroke:#000000;stroke-width:0.264583;stroke-linecap:round;stroke-linejoin:round;stroke-dasharray:none;stroke-opacity:1"
         d="m 15.880012,16.622937 c 0,0 1.950177,0.216686 3.312205,-0.464328"
         id="path29" />
      <path
         style="fill:none;fill-opacity:1;stroke:#000000;stroke-width:0.264583;stroke-linecap:round;stroke-linejoin:round;stroke-dasharray:none;stroke-opacity:1"
         d="m 24.299823,15.57046 c 0,0 -1.857311,0.83579 -3.807488,0.433373"
         id="path30" />
      <path
         style="fill:none;fill-opacity:1;stroke:#000000;stroke-width:0.264583;stroke-linecap:round;stroke-linejoin:round;stroke-dasharray:none;stroke-opacity:1"
         d="m 19.463947,13.432729 0.378329,2.447282"
         id="path31"
         sodipodi:nodetypes="cc" />
      <path
         style="fill:none;fill-opacity:1;stroke:#000000;stroke-width:0.264583;stroke-linecap:round;stroke-linejoin:round;stroke-dasharray:none;stroke-opacity:1"
         d="m 17.892099,18.387382 c 0.464328,0.112322 0.928655,0.142142 1.392983,-0.154776"
         id="path32"
         sodipodi:nodetypes="cc" />
      <path
         style="fill:none;fill-opacity:1;stroke:#000000;stroke-width:0.264583;stroke-linecap:round;stroke-linejoin:round;stroke-dasharray:none;stroke-opacity:1"
         d="m 18.170696,20.306604 c 0.462681,0.04665 0.889002,-0.01578 1.269162,-0.216687"
         id="path33"
         sodipodi:nodetypes="cc" />
      <path
         style="fill:none;fill-opacity:1;stroke:#000000;stroke-width:0.264583;stroke-linecap:round;stroke-linejoin:round;stroke-dasharray:none;stroke-opacity:1"
         d="m 18.480247,22.318691 c 0.485898,0.253241 0.895193,0.04687 1.300118,-0.185731"
         id="path34"
         sodipodi:nodetypes="cc" />
      <path
         style="fill:none;fill-opacity:1;stroke:#000000;stroke-width:0.264583;stroke-linecap:round;stroke-linejoin:round;stroke-dasharray:none;stroke-opacity:1"
         d="m 20.801887,17.984965 c 0.464328,0.112322 0.928655,0.142142 1.392983,-0.154776"
         id="path35"
         sodipodi:nodetypes="cc" />
      <path
         style="fill:none;fill-opacity:1;stroke:#000000;stroke-width:0.264583;stroke-linecap:round;stroke-linejoin:round;stroke-dasharray:none;stroke-opacity:1"
         d="m 21.080484,19.904187 c 0.462681,0.04665 0.889002,-0.01578 1.269162,-0.216687"
         id="path36"
         sodipodi:nodetypes="cc" />
      <path
         style="fill:none;fill-opacity:1;stroke:#000000;stroke-width:0.264583;stroke-linecap:round;stroke-linejoin:round;stroke-dasharray:none;stroke-opacity:1"
         d="m 21.390035,21.916274 c 0.485898,0.253241 0.895193,0.04687 1.300118,-0.185731"
         id="path37"
         sodipodi:nodetypes="cc" />
    </g>
    <g
       id="g11"
       transform="translate(-0.96309941,-1.8417554)"
       inkscape:transform-center-x="0.83177239"
       inkscape:transform-center-y="-4.6394289">
      <path
         style="fill:#ffeeaa;stroke:none;stroke-width:0.264583;stroke-linecap:round;stroke-linejoin:round;stroke-dasharray:none"
         d="m 20.028007,6.9649175 3.652712,-2.4454601 -0.77388,9.7508846 -5.107606,0.216686 -2.321639,-9.2865564 z"
         id="path8" />
      <path
         style="fill:none;stroke:#000000;stroke-width:0.265;stroke-linecap:round;stroke-linejoin:round;stroke-dasharray:none"
         d="m 20.018047,9.5129153 c 0,0 1.106197,0.093395 1.104528,0.5115427 -0.0018,0.43991 -1.030685,0.8245 -1.030685,0.8245 l 2.744506,0.0297 c 0,0 -1.157541,0.723012 -2.47917,0.908134 -1.14559,0.16046 -2.137062,-0.195607 -2.137062,-0.195607"
         id="path2"
         sodipodi:nodetypes="csccsc" />
      <path
         style="fill:#ffffff;fill-opacity:1;stroke:#000000;stroke-width:0.264583;stroke-linecap:round;stroke-linejoin:round"
         d="m 22.368307,11.145945 c 0,0 0.108393,0.588535 -0.222695,0.673014 -0.22133,0.05647 -0.466946,-0.363707 -0.466946,-0.363707 z"
         id="path3"
         sodipodi:nodetypes="cscc" />
      <path
         style="fill:#ffffff;fill-opacity:1;stroke:#000000;stroke-width:0.264583;stroke-linecap:round;stroke-linejoin:round"
         d="m 21.172017,11.639727 c 0,0 0.03174,0.57436 -0.30895,0.600582 -0.274375,0.02111 -0.397731,-0.429683 -0.397731,-0.429683 z"
         id="path4"
         sodipodi:nodetypes="cscc" />
      <path
         style="fill:#ffffff;fill-opacity:1;stroke:#000000;stroke-width:0.264583;stroke-linecap:round;stroke-linejoin:round"
         d="m 19.673504,11.896362 c 0,0 -0.173639,0.548417 -0.50155,0.45238 -0.264092,-0.07733 -0.219878,-0.542622 -0.219878,-0.542622 z"
         id="path5"
         sodipodi:nodetypes="cscc" />
      <path
         style="fill:#e1b60c;fill-opacity:1;stroke:#000000;stroke-width:0.264583;stroke-linecap:round;stroke-linejoin:round;stroke-dasharray:none;stroke-opacity:1"
         d="m 15.601415,5.4171579 1.114387,4.6742331 3.436026,-1.0215207 3.095519,0.6810142 0.309551,-5.045696 -3.590801,2.259729 z"
         id="path10" />
      <g
         id="g9"
         transform="translate(-0.09286556,-0.40241745)">
        <path
           style="fill:#e6e6e6;stroke:#000000;stroke-width:0.264583;stroke-linecap:round;stroke-linejoin:round;stroke-dasharray:none"
           d="m 17.532787,7.7485728 2.057531,0.6128814 c 0,0 -0.309243,1.1172641 -0.766102,1.1382084 -0.611283,0.028024 -1.291429,-1.7510898 -1.291429,-1.7510898 z"
           id="path1"
           sodipodi:nodetypes="ccsc" />
        <ellipse
           style="fill:#e6e6e6;stroke:#000000;stroke-width:0.264583;stroke-linecap:round;stroke-linejoin:round;stroke-dasharray:none"
           id="path6"
           cx="19.010269"
           cy="8.7554493"
           rx="0.38305092"
           ry="0.37210661" />
        <path
           style="fill:#e6e6e6;stroke:#000000;stroke-width:0.264583;stroke-linecap:round;stroke-linejoin:round;stroke-dasharray:none"
           d="m 20.188719,8.156016 2.090315,-0.489531 c 0,0 0.286271,1.12337 -0.0999,1.368375 -0.516707,0.327821 -1.990411,-0.878844 -1.990411,-0.878844 z"
           id="path7"
           sodipodi:nodetypes="ccsc" />
        <ellipse
           style="fill:#e6e6e6;stroke:#000000;stroke-width:0.264583;stroke-linecap:round;stroke-linejoin:round;stroke-dasharray:none"
           id="ellipse7"
           cx="21.965233"
           cy="8.5365629"
           rx="0.38305092"
           ry="0.37210661" />
      </g>
      <path
         style="fill:#c7ac40;fill-opacity:1;stroke:#000000;stroke-width:0.264583;stroke-linecap:round;stroke-linejoin:round;stroke-dasharray:none;stroke-opacity:1"
         d="M 20.028007,6.9958727 15.106132,5.1695164 14.79658,4.457547 23.835495,3.8693986 23.86645,4.4265918 Z"
         id="path9" />
      <path
         style="fill:none;fill-opacity:1;stroke:#000000;stroke-width:0.529167;stroke-linecap:round;stroke-linejoin:round;stroke-dasharray:none;stroke-opacity:1"
         d="m 23.026832,12.870511 0.569104,-8.0987911 0.393995,-0.2188861 -0.08755,-0.700436 -9.193222,0.5253268 0.306441,0.7879905 0.612881,0.2626636 1.926199,7.7923503"
         id="path11" />
    </g>
  </g>
</svg>
