<?xml version="1.0" encoding="UTF-8" standalone="no"?>
<!-- Created with Inkscape (http://www.inkscape.org/) -->

<svg
   width="32.019585"
   height="42.463043"
   viewBox="0 0 8.4718482 11.235013"
   version="1.1"
   id="svg1"
   inkscape:version="1.3.2 (091e20e, 2023-11-25, custom)"
   sodipodi:docname="GERgabuCOMPLETO.svg"
   xmlns:inkscape="http://www.inkscape.org/namespaces/inkscape"
   xmlns:sodipodi="http://sodipodi.sourceforge.net/DTD/sodipodi-0.dtd"
   xmlns="http://www.w3.org/2000/svg"
   xmlns:svg="http://www.w3.org/2000/svg">
  <sodipodi:namedview
     id="namedview1"
     pagecolor="#ffffff"
     bordercolor="#000000"
     borderopacity="0.25"
     inkscape:showpageshadow="2"
     inkscape:pageopacity="0.0"
     inkscape:pagecheckerboard="0"
     inkscape:deskcolor="#d1d1d1"
     inkscape:document-units="px"
     inkscape:zoom="5.1606349"
     inkscape:cx="108.32001"
     inkscape:cy="35.363866"
     inkscape:window-width="1920"
     inkscape:window-height="1017"
     inkscape:window-x="1072"
     inkscape:window-y="239"
     inkscape:window-maximized="1"
     inkscape:current-layer="layer1" />
  <defs
     id="defs1" />
  <g
     inkscape:label="Camada 1"
     inkscape:groupmode="layer"
     id="layer1"
     transform="translate(2.7517085,-57.448101)">
    <path
       id="path16"
       style="fill:#34782f;fill-opacity:1;stroke:#000000;stroke-width:0.529167;stroke-linecap:round;stroke-linejoin:round"
       d="m 3.5628427,57.715419 a 1.9932632,1.202942 0.85822226 0 0 -2.091053,1.121024 1.9932632,1.202942 0.85822226 0 0 0.01686,0.212442 c -1.42249095,0.606425 -3.3773846,1.586964 -3.806993,2.546465 -0.7013446,1.566403 1.0191771,4.327234 1.95532505,5.650099 a 1.3961249,0.83643102 0.89078156 0 0 -0.111012,0.280653 1.3961249,0.83643102 0.89078156 0 0 1.324467,0.890467 1.3961249,0.83643102 0.89078156 0 0 1.46447895,-0.77875 1.3961249,0.83643102 0.89078156 0 0 -1.042705,-0.861651 C 0.76564875,65.416958 0.17852275,63.325432 0.79661075,62.121841 1.1552807,61.42341 2.4659347,60.636069 3.4593077,60.116193 a 1.9932632,1.202942 0.85822226 0 0 1.9936685,-1.120274 1.9932632,1.202942 0.85822226 0 0 -1.8901335,-1.2805 z"
       inkscape:transform-center-x="-0.56981529"
       inkscape:transform-center-y="-4.7920753" />
  </g>
</svg>
