<?xml version="1.0" encoding="UTF-8" standalone="no"?>
<!-- Created with Inkscape (http://www.inkscape.org/) -->

<svg
   width="54.520813"
   height="20.28363"
   viewBox="0 0 14.425298 5.3667105"
   version="1.1"
   id="svg1"
   inkscape:version="1.3.2 (091e20e, 2023-11-25, custom)"
   sodipodi:docname="gerGABUefeito.svg"
   xmlns:inkscape="http://www.inkscape.org/namespaces/inkscape"
   xmlns:sodipodi="http://sodipodi.sourceforge.net/DTD/sodipodi-0.dtd"
   xmlns="http://www.w3.org/2000/svg"
   xmlns:svg="http://www.w3.org/2000/svg">
  <sodipodi:namedview
     id="namedview1"
     pagecolor="#ffffff"
     bordercolor="#000000"
     borderopacity="0.25"
     inkscape:showpageshadow="2"
     inkscape:pageopacity="0.0"
     inkscape:pagecheckerboard="0"
     inkscape:deskcolor="#d1d1d1"
     inkscape:document-units="px"
     inkscape:zoom="5.1606349"
     inkscape:cx="108.32001"
     inkscape:cy="35.363866"
     inkscape:window-width="1920"
     inkscape:window-height="1017"
     inkscape:window-x="1072"
     inkscape:window-y="239"
     inkscape:window-maximized="1"
     inkscape:current-layer="layer1"
     showgrid="false" />
  <defs
     id="defs1" />
  <g
     inkscape:label="Camada 1"
     inkscape:groupmode="layer"
     id="layer1"
     transform="translate(-24.301602,-34.304775)">
    <path
       style="font-weight:bold;font-size:7.38531px;font-family:Calibri;-inkscape-font-specification:'Calibri Bold';text-align:center;text-anchor:middle;fill:#02ff00;stroke:#000000;stroke-width:0.396875;stroke-linecap:round;stroke-linejoin:round"
       d="m 28.533605,35.945631 q 0,0.558947 -0.09015,1.009711 -0.09015,0.450763 -0.295701,0.768101 -0.201942,0.317337 -0.530098,0.486824 -0.32455,0.169487 -0.79695,0.169487 -0.479612,0 -0.793344,-0.162274 -0.313731,-0.165881 -0.497643,-0.472401 -0.183911,-0.310125 -0.25964,-0.753676 -0.07212,-0.447158 -0.07212,-1.009711 0,-0.55534 0.09015,-1.006104 0.09376,-0.45437 0.295701,-0.771707 0.205548,-0.317338 0.530098,-0.486825 0.328156,-0.169487 0.79695,-0.169487 0.479612,0 0.793344,0.165881 0.317337,0.162275 0.501249,0.4724 0.183911,0.30652 0.256033,0.753677 0.07212,0.443551 0.07212,1.006104 z m -0.955619,0.04688 q 0,-0.331762 -0.01803,-0.58419 -0.01803,-0.256034 -0.0577,-0.443551 -0.03606,-0.187518 -0.09376,-0.317338 -0.05409,-0.12982 -0.133426,-0.205548 -0.07934,-0.07933 -0.180306,-0.111789 -0.100971,-0.03245 -0.223578,-0.03245 -0.212761,0 -0.353399,0.104577 -0.137032,0.100971 -0.219973,0.306519 -0.07933,0.205548 -0.111789,0.512067 -0.03245,0.30652 -0.03245,0.71401 0,0.497643 0.03967,0.825799 0.03967,0.32455 0.122608,0.519279 0.08655,0.191124 0.219973,0.270459 0.133426,0.07573 0.320943,0.07573 0.140638,0 0.248822,-0.04327 0.108183,-0.04688 0.187517,-0.137032 0.08294,-0.09015 0.137032,-0.227184 0.05409,-0.137033 0.08655,-0.317338 0.03606,-0.180305 0.04688,-0.40749 0.01442,-0.227185 0.01442,-0.501249 z m 4.561727,1.943692 q 0,0.100971 -0.01082,0.173093 -0.01082,0.06852 -0.03245,0.11179 -0.01803,0.03967 -0.04327,0.0577 -0.02524,0.01803 -0.0577,0.01803 h -2.574762 q -0.02885,0 -0.05409,-0.01803 -0.02524,-0.01803 -0.04688,-0.0577 -0.01803,-0.04327 -0.02885,-0.11179 -0.01082,-0.07212 -0.01082,-0.173093 0,-0.104577 0.0072,-0.173093 0.01082,-0.07212 0.02885,-0.115396 0.02164,-0.04327 0.04688,-0.0613 0.02524,-0.02164 0.0577,-0.02164 h 0.869073 v -3.036343 l -0.750071,0.414702 q -0.08294,0.03967 -0.137032,0.05049 -0.05049,0.0072 -0.08294,-0.02164 -0.02885,-0.03245 -0.03967,-0.108183 -0.01082,-0.07573 -0.01082,-0.212761 0,-0.08655 0.0036,-0.140638 0.0036,-0.0577 0.01803,-0.09736 0.01442,-0.03967 0.03967,-0.06491 0.02524,-0.02524 0.06852,-0.05409 l 1.002498,-0.6491 q 0.01803,-0.01442 0.04327,-0.02164 0.02885,-0.01082 0.07212,-0.01442 0.04327,-0.0072 0.11179,-0.0072 0.07212,-0.0036 0.183911,-0.0036 0.137032,0 0.219973,0.0072 0.08655,0.0036 0.12982,0.01803 0.04327,0.01082 0.0577,0.03245 0.01442,0.02164 0.01442,0.05409 v 3.85493 h 0.760889 q 0.03245,0 0.0577,0.02164 0.02885,0.01803 0.04688,0.0613 0.02164,0.04327 0.02885,0.115396 0.01082,0.06852 0.01082,0.173093 z m 3.880173,-1.990572 q 0,0.558947 -0.09015,1.009711 -0.09015,0.450763 -0.295701,0.768101 -0.201942,0.317337 -0.530098,0.486824 -0.324549,0.169487 -0.79695,0.169487 -0.479612,0 -0.793343,-0.162274 -0.313732,-0.165881 -0.497643,-0.472401 -0.183912,-0.310125 -0.25964,-0.753676 -0.07212,-0.447158 -0.07212,-1.009711 0,-0.55534 0.09015,-1.006104 0.09376,-0.45437 0.295701,-0.771707 0.205548,-0.317338 0.530098,-0.486825 0.328156,-0.169487 0.79695,-0.169487 0.479613,0 0.793344,0.165881 0.317338,0.162275 0.501249,0.4724 0.183912,0.30652 0.256034,0.753677 0.07212,0.443551 0.07212,1.006104 z m -0.955619,0.04688 q 0,-0.331762 -0.01803,-0.58419 -0.01803,-0.256034 -0.0577,-0.443551 -0.03606,-0.187518 -0.09376,-0.317338 -0.05409,-0.12982 -0.133426,-0.205548 -0.07933,-0.07933 -0.180305,-0.111789 -0.100971,-0.03245 -0.223579,-0.03245 -0.21276,0 -0.353399,0.104577 -0.137032,0.100971 -0.219972,0.306519 -0.07934,0.205548 -0.11179,0.512067 -0.03245,0.30652 -0.03245,0.71401 0,0.497643 0.03967,0.825799 0.03967,0.32455 0.122607,0.519279 0.08655,0.191124 0.219973,0.270459 0.133426,0.07573 0.320944,0.07573 0.140638,0 0.248821,-0.04327 0.108183,-0.04688 0.187518,-0.137032 0.08294,-0.09015 0.137032,-0.227184 0.05409,-0.137033 0.08655,-0.317338 0.03606,-0.180305 0.04688,-0.40749 0.01442,-0.227185 0.01442,-0.501249 z m 4.561727,1.943692 q 0,0.100971 -0.01082,0.173093 -0.01082,0.06852 -0.03245,0.11179 -0.01803,0.03967 -0.04327,0.0577 -0.02524,0.01803 -0.0577,0.01803 h -2.574762 q -0.02885,0 -0.05409,-0.01803 -0.02524,-0.01803 -0.04688,-0.0577 -0.01803,-0.04327 -0.02885,-0.11179 -0.01082,-0.07212 -0.01082,-0.173093 0,-0.104577 0.0072,-0.173093 0.01082,-0.07212 0.02885,-0.115396 0.02164,-0.04327 0.04688,-0.0613 0.02524,-0.02164 0.0577,-0.02164 h 0.869072 v -3.036343 l -0.75007,0.414702 q -0.08294,0.03967 -0.137032,0.05049 -0.05049,0.0072 -0.08294,-0.02164 -0.02885,-0.03245 -0.03967,-0.108183 -0.01082,-0.07573 -0.01082,-0.212761 0,-0.08655 0.0036,-0.140638 0.0036,-0.0577 0.01803,-0.09736 0.01442,-0.03967 0.03967,-0.06491 0.02524,-0.02524 0.06852,-0.05409 l 1.002498,-0.6491 q 0.01803,-0.01442 0.04327,-0.02164 0.02885,-0.01082 0.07212,-0.01442 0.04327,-0.0072 0.11179,-0.0072 0.07212,-0.0036 0.183911,-0.0036 0.137032,0 0.219973,0.0072 0.08655,0.0036 0.12982,0.01803 0.04327,0.01082 0.0577,0.03245 0.01443,0.02164 0.01443,0.05409 v 3.85493 h 0.760889 q 0.03245,0 0.0577,0.02164 0.02885,0.01803 0.04688,0.0613 0.02164,0.04327 0.02885,0.115396 0.01082,0.06852 0.01082,0.173093 z"
       id="text27"
       transform="scale(0.9723027,1.0284863)"
       aria-label="0101" />
  </g>
</svg>
