<?xml version="1.0" encoding="UTF-8" standalone="no"?>
<!-- Created with Inkscape (http://www.inkscape.org/) -->

<svg
   width="150"
   height="100"
   viewBox="0 0 39.687499 26.458333"
   version="1.1"
   id="svg1"
   inkscape:version="1.3.2 (091e20e, 2023-11-25, custom)"
   sodipodi:docname="GERgabuCOMPLETO.svg"
   xmlns:inkscape="http://www.inkscape.org/namespaces/inkscape"
   xmlns:sodipodi="http://sodipodi.sourceforge.net/DTD/sodipodi-0.dtd"
   xmlns="http://www.w3.org/2000/svg"
   xmlns:svg="http://www.w3.org/2000/svg">
  <sodipodi:namedview
     id="namedview1"
     pagecolor="#ffffff"
     bordercolor="#000000"
     borderopacity="0.25"
     inkscape:showpageshadow="2"
     inkscape:pageopacity="0.0"
     inkscape:pagecheckerboard="0"
     inkscape:deskcolor="#d1d1d1"
     inkscape:document-units="px"
     inkscape:zoom="5.1606349"
     inkscape:cx="108.32001"
     inkscape:cy="35.363866"
     inkscape:window-width="1920"
     inkscape:window-height="1017"
     inkscape:window-x="1072"
     inkscape:window-y="239"
     inkscape:window-maximized="1"
     inkscape:current-layer="layer1" />
  <defs
     id="defs1" />
  <g
     inkscape:label="Camada 1"
     inkscape:groupmode="layer"
     id="layer1">
    <path
       id="path2"
       style="fill:#34782f;fill-opacity:1;stroke:#000000;stroke-width:0.529167;stroke-linecap:round;stroke-linejoin:round"
       d="m 10.397774,13.886052 a 1.9932632,1.202942 0.85822226 0 0 -2.091053,1.121024 1.9932632,1.202942 0.85822226 0 0 0.01686,0.212442 C 6.90109,15.825943 4.9461963,16.806482 4.5165879,17.765983 3.8152434,19.332386 5.535765,22.093217 6.471913,23.416082 a 1.3961249,0.83643102 0.89078156 0 0 -0.111012,0.280653 1.3961249,0.83643102 0.89078156 0 0 1.324467,0.890467 1.3961249,0.83643102 0.89078156 0 0 1.464479,-0.77875 1.3961249,0.83643102 0.89078156 0 0 -1.042705,-0.861651 c -0.506562,-1.35921 -1.093688,-3.450736 -0.4756,-4.654327 0.35867,-0.698431 1.669324,-1.485772 2.662697,-2.005648 a 1.9932632,1.202942 0.85822226 0 0 1.993669,-1.120274 1.9932632,1.202942 0.85822226 0 0 -1.890134,-1.2805 z"
       inkscape:transform-center-x="-0.56981529"
       inkscape:transform-center-y="-4.7920753" />
    <path
       style="fill:#d87939;fill-opacity:1;stroke:#000000;stroke-width:0.529167;stroke-linecap:round;stroke-linejoin:round"
       d="m 2.3084551,25.259978 c 0,0 2.2195686,-2.285076 3.3812129,-2.2994 0.734012,-0.0091 1.999511,0.922852 1.999511,0.922852 0,0 1.649867,-1.232459 2.563477,-1.07666 0.95418,0.162717 2.697115,2.564544 2.697115,2.564544"
       id="path1"
       sodipodi:nodetypes="cscsc" />
    <g
       id="g13"
       transform="rotate(-0.70693339,-160.65084,687.778)"
       inkscape:transform-center-x="-3.7868916"
       inkscape:transform-center-y="-1.6669029">
      <path
         style="fill:#e7d74e;fill-opacity:1;stroke:#000000;stroke-width:0.529167;stroke-linecap:round;stroke-linejoin:round"
         d="M 10.368367,11.165934 14.174936,5.8367382 28.096101,10.04209 24.289532,20.954253 Z"
         id="path3" />
      <path
         style="fill:#e7d74e;fill-opacity:1;stroke:#000000;stroke-width:0.529167;stroke-linecap:round;stroke-linejoin:round"
         d="m 16.38637,8.9544993 5.836739,-2.2114352 0.543795,5.1841839"
         id="path4" />
      <path
         style="fill:#412002;fill-opacity:1;stroke:#000000;stroke-width:0.529167;stroke-linecap:round;stroke-linejoin:round"
         d="m 23.455712,10.87591 2.102676,-2.6827247 0.03625,1.4138685 3.480291,-1.9214108 -0.471289,1.1963501 2.755231,-0.7975669 -1.051338,1.3051094 2.030169,-0.2537714 -1.015084,1.0513378 2.537711,0.580049 -1.66764,0.870073 1.993919,1.848904 -1.522629,0.47129 1.486376,2.211435 -1.631387,-0.03625 1.196348,2.972748 -1.45012,-1.55888 0.725061,2.755231 -1.486373,-0.870074 0.0725,2.718978 -1.051338,-1.051338 0.07251,1.957664 -1.993916,-0.507542 0.326277,1.413868 -2.320195,-0.906326 0.362532,1.885158 -2.356448,-1.848905 -0.398783,1.450121 -0.761314,-2.356447 -0.942579,0.906326 -0.471289,-3.915328 -1.268856,1.377616 1.160097,-3.879075 -1.232603,0.616302 2.102676,-4.277858 z"
         id="path7" />
      <ellipse
         style="fill:#c5b426;fill-opacity:1;stroke:#000000;stroke-width:0.529255;stroke-linecap:round;stroke-linejoin:round"
         id="path5"
         cx="30.616121"
         cy="8.9879665"
         rx="4.4961967"
         ry="6.7012239"
         transform="matrix(0.97069245,0.24032513,-0.26524906,0.96417993,0,0)" />
      <ellipse
         style="fill:#6d6d6d;fill-opacity:1;stroke:#000000;stroke-width:0.264583;stroke-linecap:round;stroke-linejoin:round;stroke-dasharray:none"
         id="path6"
         cx="15.570678"
         cy="7.5225043"
         rx="0.41690987"
         ry="0.38065684" />
      <ellipse
         style="fill:#6d6d6d;fill-opacity:1;stroke:#000000;stroke-width:0.264583;stroke-linecap:round;stroke-linejoin:round;stroke-dasharray:none"
         id="ellipse6"
         cx="14.664352"
         cy="9.3351555"
         rx="0.41690987"
         ry="0.38065684" />
      <ellipse
         style="fill:#736b26;fill-opacity:1;stroke:#000000;stroke-width:0.26462;stroke-linecap:round;stroke-linejoin:round;stroke-dasharray:none"
         id="ellipse7"
         cx="30.966604"
         cy="9.1174612"
         rx="3.4426403"
         ry="5.1514726"
         transform="matrix(0.97043512,0.24136214,-0.26412396,0.96448874,0,0)" />
      <path
         style="fill:#e8e8e4;fill-opacity:1;stroke:#000000;stroke-width:0.264583;stroke-linecap:round;stroke-linejoin:round;stroke-dasharray:none"
         d="m 24.147949,16.303711 0.743408,0.628052 3.678589,-4.896241 -1.076661,-0.666504 c -2.007818,1.098343 -3.010755,2.811919 -3.345336,4.934693 z"
         id="path8"
         sodipodi:nodetypes="ccccc" />
      <path
         style="fill:#e8e8e4;fill-opacity:1;stroke:#000000;stroke-width:0.264583;stroke-linecap:round;stroke-linejoin:round;stroke-dasharray:none"
         d="m 24.647827,14.573364 1.294556,0.897217"
         id="path9" />
      <path
         style="fill:#e8e8e4;fill-opacity:1;stroke:#000000;stroke-width:0.264583;stroke-linecap:round;stroke-linejoin:round;stroke-dasharray:none"
         d="m 25.532226,12.971191 1.66626,0.807495"
         id="path10" />
      <path
         style="fill:#e8e8e4;fill-opacity:1;stroke:#000000;stroke-width:0.264583;stroke-linecap:round;stroke-linejoin:round;stroke-dasharray:none"
         d="m 26.570434,12.099609 1.294556,0.704956"
         id="path11" />
      <path
         style="fill:#c52d27;fill-opacity:1;stroke:#000000;stroke-width:0.264583;stroke-linecap:round;stroke-linejoin:round;stroke-dasharray:none"
         d="m 27.249755,21.251221 c 0,0 1.089307,-2.4859 2.204591,-3.409425 0.428752,-0.355034 1.51245,-0.897216 1.51245,-0.897216 -0.486818,2.464867 -1.938926,3.608812 -3.717041,4.306641 z"
         id="path12"
         sodipodi:nodetypes="cscc" />
    </g>
    <text
       xml:space="preserve"
       style="font-size:7.38531px;font-family:Calibri;-inkscape-font-specification:Calibri;text-align:center;text-anchor:middle;fill:#02ff00;fill-opacity:1;stroke:#000000;stroke-width:0.396875;stroke-linecap:round;stroke-linejoin:round;stroke-dasharray:none"
       x="33.07526"
       y="6.1497984"
       id="text13"
       transform="scale(0.9723027,1.0284863)"><tspan
         sodipodi:role="line"
         id="tspan13"
         style="font-style:normal;font-variant:normal;font-weight:bold;font-stretch:normal;font-family:Calibri;-inkscape-font-specification:'Calibri Bold';fill:#02ff00;fill-opacity:1;stroke-width:0.396875;stroke-dasharray:none"
         x="33.07526"
         y="6.1497984">0101</tspan></text>
  </g>
</svg>
