<?xml version="1.0" encoding="UTF-8" standalone="no"?>
<!-- Created with Inkscape (http://www.inkscape.org/) -->

<svg
   width="92.12291"
   height="73.606789"
   viewBox="0 0 24.374186 19.475129"
   version="1.1"
   id="svg1"
   inkscape:version="1.3.2 (091e20e, 2023-11-25, custom)"
   sodipodi:docname="GERgabuCOMPLETO.svg"
   xmlns:inkscape="http://www.inkscape.org/namespaces/inkscape"
   xmlns:sodipodi="http://sodipodi.sourceforge.net/DTD/sodipodi-0.dtd"
   xmlns="http://www.w3.org/2000/svg"
   xmlns:svg="http://www.w3.org/2000/svg">
  <sodipodi:namedview
     id="namedview1"
     pagecolor="#ffffff"
     bordercolor="#000000"
     borderopacity="0.25"
     inkscape:showpageshadow="2"
     inkscape:pageopacity="0.0"
     inkscape:pagecheckerboard="0"
     inkscape:deskcolor="#d1d1d1"
     inkscape:document-units="px"
     inkscape:zoom="5.1606349"
     inkscape:cx="108.32001"
     inkscape:cy="35.363866"
     inkscape:window-width="1920"
     inkscape:window-height="1017"
     inkscape:window-x="1072"
     inkscape:window-y="239"
     inkscape:window-maximized="1"
     inkscape:current-layer="layer1" />
  <defs
     id="defs1" />
  <g
     inkscape:label="Camada 1"
     inkscape:groupmode="layer"
     id="layer1"
     transform="translate(5.3998132,-34.684128)">
    <g
       id="g27"
       transform="rotate(-0.70693339,2365.837,1282.2709)"
       inkscape:transform-center-x="-3.7868916"
       inkscape:transform-center-y="-1.6669029">
      <path
         style="fill:#e7d74e;fill-opacity:1;stroke:#000000;stroke-width:0.529167;stroke-linecap:round;stroke-linejoin:round"
         d="M 10.368367,11.165934 14.174936,5.8367382 28.096101,10.04209 24.289532,20.954253 Z"
         id="path18" />
      <path
         style="fill:#e7d74e;fill-opacity:1;stroke:#000000;stroke-width:0.529167;stroke-linecap:round;stroke-linejoin:round"
         d="m 16.38637,8.9544993 5.836739,-2.2114352 0.543795,5.1841839"
         id="path19" />
      <path
         style="fill:#412002;fill-opacity:1;stroke:#000000;stroke-width:0.529167;stroke-linecap:round;stroke-linejoin:round"
         d="m 23.455712,10.87591 2.102676,-2.6827247 0.03625,1.4138685 3.480291,-1.9214108 -0.471289,1.1963501 2.755231,-0.7975669 -1.051338,1.3051094 2.030169,-0.2537714 -1.015084,1.0513378 2.537711,0.580049 -1.66764,0.870073 1.993919,1.848904 -1.522629,0.47129 1.486376,2.211435 -1.631387,-0.03625 1.196348,2.972748 -1.45012,-1.55888 0.725061,2.755231 -1.486373,-0.870074 0.0725,2.718978 -1.051338,-1.051338 0.07251,1.957664 -1.993916,-0.507542 0.326277,1.413868 -2.320195,-0.906326 0.362532,1.885158 -2.356448,-1.848905 -0.398783,1.450121 -0.761314,-2.356447 -0.942579,0.906326 -0.471289,-3.915328 -1.268856,1.377616 1.160097,-3.879075 -1.232603,0.616302 2.102676,-4.277858 z"
         id="path20" />
      <ellipse
         style="fill:#c5b426;fill-opacity:1;stroke:#000000;stroke-width:0.529255;stroke-linecap:round;stroke-linejoin:round"
         id="ellipse20"
         cx="30.616121"
         cy="8.9879665"
         rx="4.4961967"
         ry="6.7012239"
         transform="matrix(0.97069245,0.24032513,-0.26524906,0.96417993,0,0)" />
      <ellipse
         style="fill:#6d6d6d;fill-opacity:1;stroke:#000000;stroke-width:0.264583;stroke-linecap:round;stroke-linejoin:round;stroke-dasharray:none"
         id="ellipse21"
         cx="15.570678"
         cy="7.5225043"
         rx="0.41690987"
         ry="0.38065684" />
      <ellipse
         style="fill:#6d6d6d;fill-opacity:1;stroke:#000000;stroke-width:0.264583;stroke-linecap:round;stroke-linejoin:round;stroke-dasharray:none"
         id="ellipse22"
         cx="14.664352"
         cy="9.3351555"
         rx="0.41690987"
         ry="0.38065684" />
      <ellipse
         style="fill:#736b26;fill-opacity:1;stroke:#000000;stroke-width:0.26462;stroke-linecap:round;stroke-linejoin:round;stroke-dasharray:none"
         id="ellipse23"
         cx="30.966604"
         cy="9.1174612"
         rx="3.4426403"
         ry="5.1514726"
         transform="matrix(0.97043512,0.24136214,-0.26412396,0.96448874,0,0)" />
      <path
         style="fill:#e8e8e4;fill-opacity:1;stroke:#000000;stroke-width:0.264583;stroke-linecap:round;stroke-linejoin:round;stroke-dasharray:none"
         d="m 24.147949,16.303711 0.743408,0.628052 3.678589,-4.896241 -1.076661,-0.666504 c -2.007818,1.098343 -3.010755,2.811919 -3.345336,4.934693 z"
         id="path23"
         sodipodi:nodetypes="ccccc" />
      <path
         style="fill:#e8e8e4;fill-opacity:1;stroke:#000000;stroke-width:0.264583;stroke-linecap:round;stroke-linejoin:round;stroke-dasharray:none"
         d="m 24.647827,14.573364 1.294556,0.897217"
         id="path24" />
      <path
         style="fill:#e8e8e4;fill-opacity:1;stroke:#000000;stroke-width:0.264583;stroke-linecap:round;stroke-linejoin:round;stroke-dasharray:none"
         d="m 25.532226,12.971191 1.66626,0.807495"
         id="path25" />
      <path
         style="fill:#e8e8e4;fill-opacity:1;stroke:#000000;stroke-width:0.264583;stroke-linecap:round;stroke-linejoin:round;stroke-dasharray:none"
         d="m 26.570434,12.099609 1.294556,0.704956"
         id="path26" />
      <path
         style="fill:#c52d27;fill-opacity:1;stroke:#000000;stroke-width:0.264583;stroke-linecap:round;stroke-linejoin:round;stroke-dasharray:none"
         d="m 27.249755,21.251221 c 0,0 1.089307,-2.4859 2.204591,-3.409425 0.428752,-0.355034 1.51245,-0.897216 1.51245,-0.897216 -0.486818,2.464867 -1.938926,3.608812 -3.717041,4.306641 z"
         id="path27"
         sodipodi:nodetypes="cscc" />
    </g>
  </g>
</svg>
