<?xml version="1.0" encoding="UTF-8" standalone="no"?>
<!-- Created with Inkscape (http://www.inkscape.org/) -->

<svg
   width="50"
   height="50"
   viewBox="0 0 13.229166 13.229167"
   version="1.1"
   id="svg1"
   inkscape:version="1.3.2 (091e20e, 2023-11-25, custom)"
   sodipodi:docname="ENERGIA.svg"
   xmlns:inkscape="http://www.inkscape.org/namespaces/inkscape"
   xmlns:sodipodi="http://sodipodi.sourceforge.net/DTD/sodipodi-0.dtd"
   xmlns="http://www.w3.org/2000/svg"
   xmlns:svg="http://www.w3.org/2000/svg">
  <sodipodi:namedview
     id="namedview1"
     pagecolor="#ffffff"
     bordercolor="#000000"
     borderopacity="0.25"
     inkscape:showpageshadow="2"
     inkscape:pageopacity="0.0"
     inkscape:pagecheckerboard="0"
     inkscape:deskcolor="#d1d1d1"
     inkscape:document-units="px"
     inkscape:zoom="10.32127"
     inkscape:cx="41.467766"
     inkscape:cy="26.40179"
     inkscape:window-width="1920"
     inkscape:window-height="1017"
     inkscape:window-x="1072"
     inkscape:window-y="239"
     inkscape:window-maximized="1"
     inkscape:current-layer="layer1" />
  <defs
     id="defs1" />
  <g
     inkscape:label="Camada 1"
     inkscape:groupmode="layer"
     id="layer1">
    <path
       id="path1"
       style="fill:#ffcc00;stroke:#000000;stroke-width:0.264583;stroke-linecap:round;stroke-linejoin:round"
       d="M 6.803719 2.8199829 A 4.2404633 4.2553716 0 0 0 2.5636678 7.0750203 A 4.2404633 4.2553716 0 0 0 6.803719 11.330574 A 4.2404633 4.2553716 0 0 0 11.044287 7.0750203 A 4.2404633 4.2553716 0 0 0 6.803719 2.8199829 z M 6.8114705 5.0498209 A 2.043364 2.0507817 0 0 1 8.8547566 7.1008585 A 2.043364 2.0507817 0 0 1 6.8114705 9.1513793 A 2.043364 2.0507817 0 0 1 4.7681843 7.1008585 A 2.043364 2.0507817 0 0 1 6.8114705 5.0498209 z " />
  </g>
</svg>
