<?xml version="1.0" encoding="UTF-8" standalone="no"?>
<!-- Created with Inkscape (http://www.inkscape.org/) -->

<svg
   width="50"
   height="50"
   viewBox="0 0 13.229166 13.229167"
   version="1.1"
   id="svg1"
   inkscape:version="1.3.2 (091e20e, 2023-11-25, custom)"
   sodipodi:docname="GOTA.svg"
   xmlns:inkscape="http://www.inkscape.org/namespaces/inkscape"
   xmlns:sodipodi="http://sodipodi.sourceforge.net/DTD/sodipodi-0.dtd"
   xmlns="http://www.w3.org/2000/svg"
   xmlns:svg="http://www.w3.org/2000/svg">
  <sodipodi:namedview
     id="namedview1"
     pagecolor="#ffffff"
     bordercolor="#000000"
     borderopacity="0.25"
     inkscape:showpageshadow="2"
     inkscape:pageopacity="0.0"
     inkscape:pagecheckerboard="0"
     inkscape:deskcolor="#d1d1d1"
     inkscape:document-units="px"
     inkscape:zoom="7.2982399"
     inkscape:cx="29.185119"
     inkscape:cy="25.143049"
     inkscape:window-width="1920"
     inkscape:window-height="1017"
     inkscape:window-x="1072"
     inkscape:window-y="239"
     inkscape:window-maximized="1"
     inkscape:current-layer="layer1" />
  <defs
     id="defs1" />
  <g
     inkscape:label="Camada 1"
     inkscape:groupmode="layer"
     id="layer1">
    <g
       id="g3">
      <path
         style="fill:#00ffff;stroke:#000000;stroke-width:0.264583;stroke-linecap:round;stroke-linejoin:round"
         d="m 3.3715319,7.6131369 c 0,0 3.2254872,-2.6864677 5.1479309,-2.6102183 1.2735962,0.050514 3.2134742,0.7202729 3.2627732,1.9939167 0.04787,1.2367019 -1.7897385,1.962768 -3.009002,2.1751821 C 6.9269944,9.4936602 3.3715319,7.6131369 3.3715319,7.6131369 Z"
         id="path1"
         sodipodi:nodetypes="csssc" />
      <path
         style="fill:#00ffff;stroke:#000000;stroke-width:0.264583;stroke-linecap:round;stroke-linejoin:round"
         d="m 9.3054198,8.3825682 c 0,0 1.0766602,0.025635 1.8200682,-1.3586425"
         id="path2" />
    </g>
    <path
       style="fill:#26e3f4;fill-opacity:1;stroke:#000000;stroke-width:0.264583;stroke-linecap:round;stroke-linejoin:round"
       d="m 1.1327879,4.8123948 c 0,0 1.6823161,-1.3619486 2.6850042,-1.3232928 C 4.4820612,3.514711 5.4938426,3.8542561 5.5195554,4.4999506 5.544523,5.1269168 4.5860823,5.4950079 3.9501515,5.6026946 2.9872091,5.7657567 1.1327879,4.8123948 1.1327879,4.8123948 Z"
       id="path3"
       sodipodi:nodetypes="csssc" />
    <path
       style="fill:#02d3ec;fill-opacity:1;stroke:#000000;stroke-width:0.264583;stroke-linecap:round;stroke-linejoin:round"
       d="m 2.5596563,10.08658 c 0,0 1.0149586,-0.7891619 1.6198906,-0.7667633 C 4.5803073,9.3346557 5.1907255,9.5314 5.2062383,9.9055385 5.2213015,10.268825 4.6430643,10.48211 4.2594007,10.544508 3.6784477,10.638992 2.5596563,10.08658 2.5596563,10.08658 Z"
       id="path4"
       sodipodi:nodetypes="csssc" />
  </g>
</svg>
