<?xml version="1.0" encoding="UTF-8" standalone="no"?>
<!-- Created with Inkscape (http://www.inkscape.org/) -->

<svg
   width="50"
   height="50"
   viewBox="0 0 13.229166 13.229167"
   version="1.1"
   id="svg1"
   inkscape:version="1.3.2 (091e20e, 2023-11-25, custom)"
   sodipodi:docname="SOCO.svg"
   xmlns:inkscape="http://www.inkscape.org/namespaces/inkscape"
   xmlns:sodipodi="http://sodipodi.sourceforge.net/DTD/sodipodi-0.dtd"
   xmlns="http://www.w3.org/2000/svg"
   xmlns:svg="http://www.w3.org/2000/svg">
  <sodipodi:namedview
     id="namedview1"
     pagecolor="#ffffff"
     bordercolor="#000000"
     borderopacity="0.25"
     inkscape:showpageshadow="2"
     inkscape:pageopacity="0.0"
     inkscape:pagecheckerboard="0"
     inkscape:deskcolor="#d1d1d1"
     inkscape:document-units="px"
     inkscape:zoom="10.32127"
     inkscape:cx="32.651021"
     inkscape:cy="15.065976"
     inkscape:window-width="1920"
     inkscape:window-height="1017"
     inkscape:window-x="1072"
     inkscape:window-y="239"
     inkscape:window-maximized="1"
     inkscape:current-layer="layer1" />
  <defs
     id="defs1" />
  <g
     inkscape:label="Camada 1"
     inkscape:groupmode="layer"
     id="layer1">
    <path
       style="fill:#a0689b;fill-opacity:1;stroke:none;stroke-width:0.264583;stroke-linecap:round;stroke-linejoin:round;stroke-dasharray:none;stroke-opacity:1"
       d="M 4.0206379,8.6548481 6.917887,8.8374372 7.1434124,5.5387972 4.2557208,5.4399912 c 0,0 -2.344886,-0.2222098 -2.3554374,1.5008716 -0.01131,1.8469607 2.1203545,1.7139853 2.1203545,1.7139853 z"
       id="path37-3"
       sodipodi:nodetypes="ccccsc" />
    <path
       style="fill:#2d202c;fill-opacity:1;stroke:#000000;stroke-width:0.264583;stroke-linecap:round;stroke-linejoin:round;stroke-dasharray:none;stroke-opacity:1"
       d="m 7.1425701,5.03489 -0.2666678,4.2827694 1.310342,0.09859 c 0,0 0.8181754,0.8813276 1.3047866,0.7555916 C 10.673286,9.8663584 11.477472,8.2469363 11.374982,7.0301598 11.277057,5.867573 10.258477,4.4938288 9.0981687,4.3717809 8.8148063,4.3419834 8.4192283,4.8910914 8.4192283,4.8910914 c 0,0 0.01696,-0.7360308 -0.2523062,-0.7773183 C 7.8228592,4.0610168 7.5617448,4.9647847 7.5617448,4.9647847 Z"
       id="path38-3"
       sodipodi:nodetypes="cccssscscc" />
    <path
       style="fill:#2d202c;fill-opacity:1;stroke:#000000;stroke-width:0.264583;stroke-linecap:round;stroke-linejoin:round;stroke-dasharray:none;stroke-opacity:1"
       d="m 10.96235,5.8956172 c 0,0 -0.772819,0.6687416 -1.3769361,0.4463172"
       id="path39-8" />
    <path
       style="fill:#2d202c;fill-opacity:1;stroke:#000000;stroke-width:0.264583;stroke-linecap:round;stroke-linejoin:round;stroke-dasharray:none;stroke-opacity:1"
       d="m 11.070426,8.550972 c 0,0 -1.041582,0.285074 -1.4196901,-0.1031746"
       id="path40-1" />
    <path
       style="fill:none;fill-opacity:1;stroke:#000000;stroke-width:0.529167;stroke-linecap:round;stroke-linejoin:round;stroke-dasharray:none;stroke-opacity:1"
       d="m 4.0646743,8.7311556 2.7561296,0.157395 0.075981,0.4059448 1.3286182,0.08652 1.1133125,0.7901146 C 11.339044,9.5266674 12.611789,5.3817813 9.1500802,4.3076021 L 8.4128748,4.8964297 C 8.2225679,3.7309016 7.8962904,4.1743653 7.5442995,4.9220859 L 7.107426,4.9967739 7.0867409,5.4916251 4.2709834,5.4049041"
       id="path41-4"
       sodipodi:nodetypes="ccccccccccc" />
  </g>
</svg>
