<?xml version="1.0" encoding="UTF-8" standalone="no"?>
<!-- Created with Inkscape (http://www.inkscape.org/) -->

<svg
   width="64.813477"
   height="50.139084"
   viewBox="0 0 17.148565 13.265966"
   version="1.1"
   id="svg1"
   inkscape:version="1.3.2 (091e20e, 2023-11-25, custom)"
   sodipodi:docname="ZUMBIbura.svg"
   inkscape:export-filename="CUTout\ZUMBIbura\ZUMbraco.svg"
   inkscape:export-xdpi="96"
   inkscape:export-ydpi="96"
   xmlns:inkscape="http://www.inkscape.org/namespaces/inkscape"
   xmlns:sodipodi="http://sodipodi.sourceforge.net/DTD/sodipodi-0.dtd"
   xmlns="http://www.w3.org/2000/svg"
   xmlns:svg="http://www.w3.org/2000/svg">
  <sodipodi:namedview
     id="namedview1"
     pagecolor="#ffffff"
     bordercolor="#000000"
     borderopacity="0.25"
     inkscape:showpageshadow="2"
     inkscape:pageopacity="0.0"
     inkscape:pagecheckerboard="0"
     inkscape:deskcolor="#d1d1d1"
     inkscape:document-units="px"
     inkscape:zoom="3.0219275"
     inkscape:cx="45.666219"
     inkscape:cy="61.715578"
     inkscape:window-width="1920"
     inkscape:window-height="1017"
     inkscape:window-x="1072"
     inkscape:window-y="239"
     inkscape:window-maximized="1"
     inkscape:current-layer="layer1" />
  <defs
     id="defs1" />
  <g
     inkscape:label="Camada 1"
     inkscape:groupmode="layer"
     id="layer1"
     transform="translate(24.246394,-55.330566)">
    <g
       id="g34"
       transform="matrix(1.0914784,-0.41486424,0.41478053,1.0912582,-54.122113,51.809663)"
       style="stroke-width:0.856498"
       inkscape:transform-center-x="-6.3878386"
       inkscape:transform-center-y="3.5552412">
      <path
         style="fill:#8adbe3;fill-opacity:1;stroke:none;stroke-width:0.226615;stroke-linecap:round;stroke-linejoin:round;stroke-dasharray:none;stroke-opacity:1"
         d="m 21.87222,15.210348 c 0.539936,-1.060311 1.697026,-2.106949 2.886873,-2.099544 1.550137,0.0096 3.02451,1.399883 3.726691,2.781896 0.745018,1.466322 0.05249,4.933928 0.05249,4.933928 0,0 1.184595,0.829773 2.299174,0.585061 1.114579,-0.244712 2.568668,0.552585 2.555724,0.746764 l -0.05843,0.333523 c -0.772203,-0.128584 -1.545206,-0.238775 -2.341635,0.189844 0.79836,0.13268 1.610423,0.02553 2.376437,0.724273 l -0.06969,0.403647 c -0.736407,-0.354993 -1.574548,-0.215848 -2.432078,0.01747 0.861025,0.08236 1.695749,0.239224 2.349614,0.908532 l -0.02211,0.412315 c -0.758336,-0.244634 -1.499193,-0.594133 -2.392227,-0.03057 l -0.08652,0.09194 c -0.892354,0.948248 -3.991393,0.755215 -5.747502,-1.023529 -0.994379,-1.007194 0.442608,-3.275489 -0.629864,-4.199088 -0.623105,-0.536611 -1.885495,0.58147 -2.466964,0 -1.125823,-1.125823 -0.722486,-3.35767 -3e-6,-4.776462 z"
         id="path33"
         sodipodi:nodetypes="sssczcccccccccssssss" />
      <path
         style="fill:none;fill-opacity:1;stroke:#000000;stroke-width:0.45323;stroke-linecap:round;stroke-linejoin:round;stroke-dasharray:none;stroke-opacity:1"
         d="m 24.154629,13.218665 c 0.423231,-0.116452 0.893018,-0.101545 0.933015,-0.0977 1.461068,0.140609 2.821688,1.458822 3.487673,2.769596 0.745017,1.466322 0.05249,4.933928 0.05249,4.933928 0,0 1.184595,0.829773 2.299174,0.585061 1.114579,-0.244712 2.568668,0.552585 2.555724,0.746764 l -0.05843,0.333523 c -0.772203,-0.128584 -1.545206,-0.238775 -2.341635,0.189844 0.79836,0.13268 1.610423,0.02553 2.376437,0.724273 l -0.06969,0.403647 c -0.736407,-0.354993 -1.574548,-0.215848 -2.432078,0.01747 0.861025,0.08236 1.695749,0.239224 2.349614,0.908532 l -0.02211,0.412315 c -0.758336,-0.244634 -1.499193,-0.594133 -2.392227,-0.03057 l -0.08652,0.09194 c -0.892354,0.948248 -3.991393,0.755215 -5.747502,-1.023529 -0.994379,-1.007194 0.442608,-3.275489 -0.629864,-4.199088 -0.623105,-0.536611 -1.885495,0.58147 -2.466964,0 -1.665516,-1.319829 -0.541906,-6.013528 2.192893,-6.766006 z"
         id="path34"
         sodipodi:nodetypes="sssczcccccccccssscs" />
    </g>
  </g>
</svg>
