<?xml version="1.0" encoding="UTF-8" standalone="no"?>
<!-- Created with Inkscape (http://www.inkscape.org/) -->

<svg
   width="47.857784"
   height="63.795654"
   viewBox="0 0 12.662372 16.879267"
   version="1.1"
   id="svg1"
   inkscape:version="1.3.2 (091e20e, 2023-11-25, custom)"
   sodipodi:docname="ZUMBIbura.svg"
   inkscape:export-filename="CUTout\ZUMBIbura\ZUMbraco.svg"
   inkscape:export-xdpi="96"
   inkscape:export-ydpi="96"
   xmlns:inkscape="http://www.inkscape.org/namespaces/inkscape"
   xmlns:sodipodi="http://sodipodi.sourceforge.net/DTD/sodipodi-0.dtd"
   xmlns="http://www.w3.org/2000/svg"
   xmlns:svg="http://www.w3.org/2000/svg">
  <sodipodi:namedview
     id="namedview1"
     pagecolor="#ffffff"
     bordercolor="#000000"
     borderopacity="0.25"
     inkscape:showpageshadow="2"
     inkscape:pageopacity="0.0"
     inkscape:pagecheckerboard="0"
     inkscape:deskcolor="#d1d1d1"
     inkscape:document-units="px"
     inkscape:zoom="3.0219275"
     inkscape:cx="45.666219"
     inkscape:cy="61.715578"
     inkscape:window-width="1920"
     inkscape:window-height="1017"
     inkscape:window-x="1072"
     inkscape:window-y="239"
     inkscape:window-maximized="1"
     inkscape:current-layer="layer1" />
  <defs
     id="defs1" />
  <g
     inkscape:label="Camada 1"
     inkscape:groupmode="layer"
     id="layer1"
     transform="translate(-2.871141,-43.618804)">
    <g
       id="g32"
       transform="rotate(-6.4964147,368.74372,127.11214)"
       inkscape:transform-center-x="0.19603822"
       inkscape:transform-center-y="-6.0568866">
      <path
         style="fill:#8adbe3;fill-opacity:1;stroke:none;stroke-width:0.529167;stroke-linecap:round;stroke-linejoin:round;stroke-dasharray:none;stroke-opacity:1"
         d="m 25.502718,16.95045 c 0,0 0.575407,-13.3019591 -6.248591,-13.3596481 -5.530713,-0.046756 -5.539988,12.8421671 -5.539988,12.8421671 0.258507,4.551414 11.491033,5.582517 11.788579,0.517481 z"
         id="path24"
         sodipodi:nodetypes="cscc" />
      <ellipse
         style="fill:#fdffff;fill-opacity:1;stroke:#000000;stroke-width:0.264583;stroke-linecap:round;stroke-linejoin:round;stroke-dasharray:none;stroke-opacity:1"
         id="ellipse24"
         cx="17.48901"
         cy="7.7376285"
         rx="1.1163198"
         ry="0.90837789" />
      <ellipse
         style="fill:#fdffff;fill-opacity:1;stroke:#000000;stroke-width:0.264583;stroke-linecap:round;stroke-linejoin:round;stroke-dasharray:none;stroke-opacity:1"
         id="ellipse25"
         cx="21.87768"
         cy="7.8032942"
         rx="1.127264"
         ry="0.95215511" />
      <path
         style="fill:none;fill-opacity:1;stroke:#000000;stroke-width:0.264583;stroke-linecap:round;stroke-linejoin:round;stroke-dasharray:none;stroke-opacity:1"
         d="m 16.174086,8.6055424 c 0.375442,0.5440746 0.966691,0.6565351 1.67158,0.5417158"
         id="path25"
         sodipodi:nodetypes="cc" />
      <path
         style="fill:none;fill-opacity:1;stroke:#000000;stroke-width:0.264583;stroke-linecap:round;stroke-linejoin:round;stroke-dasharray:none;stroke-opacity:1"
         d="m 20.693544,8.6055424 c 0.375442,0.5440746 0.966691,0.6565351 1.67158,0.5417158"
         id="path26"
         sodipodi:nodetypes="cc" />
      <path
         style="fill:#311a13;fill-opacity:1;stroke:#000000;stroke-width:0.264583;stroke-linecap:round;stroke-linejoin:round;stroke-dasharray:none;stroke-opacity:1"
         d="m 21.450851,11.513416 c -1.294041,-0.63078 -3.009011,-0.852732 -4.312059,-0.240775 -1.199343,0.563253 -2.210751,4.509056 -2.210751,4.509056 l 2.276417,-1.138208 0.547216,2.23264 1.75109,-1.991865 1.597869,1.926198 0.722325,-2.188861 2.23264,0.963099 c 0,0 -0.872231,-3.22677 -2.604747,-4.071284 z"
         id="path27"
         sodipodi:nodetypes="sscccccccs" />
      <path
         style="fill:#8adbe3;fill-opacity:1;stroke:#000000;stroke-width:0.264583;stroke-linecap:round;stroke-linejoin:round;stroke-dasharray:none;stroke-opacity:1"
         d="m 19.532724,7.2125588 1.578714,2.8788322 -1.7954,1.516805"
         id="path28" />
      <path
         style="fill:#2b2b2b;fill-opacity:1;stroke:#000000;stroke-width:0.264583;stroke-linecap:round;stroke-linejoin:round;stroke-dasharray:none;stroke-opacity:1"
         d="m 16.808667,13.202388 c -0.0099,-0.842409 1.449636,-1.019082 2.290684,-1.067954 1.03099,-0.05991 2.942243,-0.05764 2.940743,0.975088 -0.0016,1.091471 -2.020769,1.073634 -3.110996,1.021521 -0.770744,-0.03684 -2.111378,-0.157084 -2.120431,-0.928655 z"
         id="path29"
         sodipodi:nodetypes="sssss" />
      <path
         style="fill:#933736;fill-opacity:1;stroke:#000000;stroke-width:0.264583;stroke-linecap:round;stroke-linejoin:round;stroke-dasharray:none;stroke-opacity:1"
         d="m 18.04717,14.030608 c 0,0 1.103064,-0.745414 2.177918,-0.744213 0.913441,10e-4 1.433705,0.415883 1.433705,0.415883 -0.973643,0.493162 -2.297029,0.403419 -3.611623,0.32833 z"
         id="path30"
         sodipodi:nodetypes="cscc" />
      <path
         style="fill:#ffffff;fill-opacity:1;stroke:#000000;stroke-width:0.264583;stroke-linecap:round;stroke-linejoin:round;stroke-dasharray:none;stroke-opacity:1"
         d="m 18.162957,12.281471 v 0.526238 l 0.51076,-0.01548 0.02869,-0.617226 z"
         id="path31"
         sodipodi:nodetypes="ccccc" />
      <path
         style="fill:none;fill-opacity:1;stroke:#000000;stroke-width:0.529167;stroke-linecap:round;stroke-linejoin:round;stroke-dasharray:none;stroke-opacity:1"
         d="m 25.53803,16.870578 c 0,0 1.193256,-13.3289092 -6.283903,-13.2797761 C 13.230348,3.6303847 13.651238,16.46816 13.651238,16.46816"
         id="path32"
         sodipodi:nodetypes="csc" />
    </g>
  </g>
</svg>
