<?xml version="1.0" encoding="UTF-8" standalone="no"?>
<!-- Created with Inkscape (http://www.inkscape.org/) -->

<svg
   width="91.890419"
   height="75.485077"
   viewBox="0 0 24.312673 19.972093"
   version="1.1"
   id="svg1"
   inkscape:version="1.3.2 (091e20e, 2023-11-25, custom)"
   sodipodi:docname="plantaBARREIRAcompleto.svg"
   xmlns:inkscape="http://www.inkscape.org/namespaces/inkscape"
   xmlns:sodipodi="http://sodipodi.sourceforge.net/DTD/sodipodi-0.dtd"
   xmlns="http://www.w3.org/2000/svg"
   xmlns:svg="http://www.w3.org/2000/svg">
  <sodipodi:namedview
     id="namedview1"
     pagecolor="#ffffff"
     bordercolor="#000000"
     borderopacity="0.25"
     inkscape:showpageshadow="2"
     inkscape:pageopacity="0.0"
     inkscape:pagecheckerboard="0"
     inkscape:deskcolor="#d1d1d1"
     inkscape:document-units="px"
     inkscape:zoom="5.1606349"
     inkscape:cx="73.828125"
     inkscape:cy="19.861897"
     inkscape:window-width="1920"
     inkscape:window-height="1017"
     inkscape:window-x="1072"
     inkscape:window-y="239"
     inkscape:window-maximized="1"
     inkscape:current-layer="layer1" />
  <defs
     id="defs1" />
  <g
     inkscape:label="Camada 1"
     inkscape:groupmode="layer"
     id="layer1"
     transform="translate(0.47970939,-47.255764)">
    <path
       id="path46"
       style="fill:#0d8f04;fill-opacity:1;stroke:#000000;stroke-width:0.529167;stroke-linecap:round;stroke-linejoin:round"
       inkscape:transform-center-x="5.1772585"
       inkscape:transform-center-y="-5.2986813"
       d="m 12.678858,47.520392 c -0.717063,-0.0027 -1.286107,0.514387 -1.317749,1.592151 -0.0029,0.131653 0.0025,0.263544 0.01602,0.394291 -1.121374,1.136893 -2.6609791,2.972824 -2.9905151,4.757849 -0.537972,2.914087 0.859753,8.027442 1.6179891,10.47688 -0.0054,0.01803 -0.008,0.03752 -0.01292,0.05581 a 1.2659625,1.1068862 33.977163 0 0 -0.09043,0.04444 C 8.0259909,63.908355 5.2332859,62.351165 4.088168,60.853428 3.4236666,59.984308 3.1129751,58.434112 2.9693732,57.330129 a 1.8205256,1.5804543 34.331884 0 0 -0.3808553,-2.286165 1.8205256,1.5804543 34.331884 0 0 -2.44946279,0.0093 1.8205256,1.5804543 34.331884 0 0 0.3343465,2.348693 1.8205256,1.5804543 34.331884 0 0 0.263033,0.185002 c 0.040062,1.453723 0.27152019,3.587042 1.21491289,4.741313 1.540107,1.884369 5.6837944,3.345268 7.7230424,3.974951 a 1.2659625,1.1068862 33.977163 0 0 0.28267,0.328662 1.2659625,1.1068862 33.977163 0 0 1.0345621,0.317293 1.1068862,1.2659625 40.487848 0 0 1.064018,-0.355534 1.1068862,1.2659625 40.487848 0 0 0.311092,-1.511535 c 1.140077,-1.757321 3.00402,-4.3558 4.62194,-5.323706 0.938862,-0.561668 2.51454,-0.694605 3.627685,-0.712102 a 1.5804543,1.8205256 40.842569 0 0 2.314588,-0.118855 1.5804543,1.8205256 40.842569 0 0 0.268201,-2.434994 1.5804543,1.8205256 40.842569 0 0 -2.370915,0.06615 1.5804543,1.8205256 40.842569 0 0 -0.213941,0.240295 c -1.448889,-0.125031 -3.595002,-0.137217 -4.848799,0.66921 -1.78903,1.150685 -3.481652,4.313741 -4.451925,6.397542 -0.0059,-0.0024 -0.01159,-0.0055 -0.01757,-0.0078 -0.417859,-2.520184 -0.908206,-6.399543 -0.432015,-8.639266 0.276328,-1.299688 1.306802,-2.77207 2.088762,-3.744991 0.841864,0.01273 1.531796,-0.907965 1.568896,-2.094962 0.03649,-1.231929 -0.668612,-1.653423 -1.527555,-1.825212 -0.107349,-0.02147 -0.212789,-0.03269 -0.315226,-0.03307 z" />
    <g
       id="g83"
       transform="translate(-35.302693,26.58974)">
      <path
         style="fill:#474d47;fill-opacity:1;stroke:#000000;stroke-width:0.529167;stroke-linecap:round;stroke-linejoin:round;stroke-dasharray:none"
         d="m 20.545918,16.9139 c 0,0 3.813837,-5.460164 6.706812,-5.510461 3.301093,-0.05739 7.866906,6.018003 7.866906,6.018003 0,0 -5.37247,3.673933 -8.374448,3.407785 C 24.31068,20.613389 20.545918,16.9139 20.545918,16.9139 Z"
         id="path72"
         sodipodi:nodetypes="cscsc" />
      <path
         style="fill:#e5e5e5;fill-opacity:1;stroke:#000000;stroke-width:0.264583;stroke-linecap:round;stroke-linejoin:round;stroke-dasharray:none"
         d="m 20.866699,16.790771 c 0,0 4.830126,-3.826725 7.63916,-3.614502 2.486115,0.187827 6.203614,4.178467 6.203614,4.178467 0,0 -3.663096,2.11278 -5.690918,2.15332 -2.863698,0.05725 -8.151856,-2.717285 -8.151856,-2.717285 z"
         id="path73"
         sodipodi:nodetypes="cscsc" />
      <path
         style="fill:none;fill-opacity:1;stroke:#000000;stroke-width:0.264583;stroke-linecap:round;stroke-linejoin:round;stroke-dasharray:none"
         d="M 25.045165,14.047851 24.58374,13.201904"
         id="path74" />
      <path
         style="fill:none;fill-opacity:1;stroke:#000000;stroke-width:0.264583;stroke-linecap:round;stroke-linejoin:round;stroke-dasharray:none"
         d="M 26.801148,13.342896 26.390991,12.355957"
         id="path75" />
      <path
         style="fill:none;fill-opacity:1;stroke:#000000;stroke-width:0.264583;stroke-linecap:round;stroke-linejoin:round;stroke-dasharray:none"
         d="m 28.339234,13.137817 0.153808,-0.871582"
         id="path76" />
      <path
         style="fill:none;fill-opacity:1;stroke:#000000;stroke-width:0.264583;stroke-linecap:round;stroke-linejoin:round;stroke-dasharray:none"
         d="m 29.941406,13.586426 0.256347,-0.34607"
         id="path77" />
      <path
         style="fill:none;fill-opacity:1;stroke:#000000;stroke-width:0.264583;stroke-linecap:round;stroke-linejoin:round;stroke-dasharray:none"
         d="M 24.108267,18.344035 23.890749,18.83345"
         id="path78" />
      <path
         style="fill:none;fill-opacity:1;stroke:#000000;stroke-width:0.264583;stroke-linecap:round;stroke-linejoin:round;stroke-dasharray:none"
         d="M 25.358996,18.724691 25.177731,19.30474"
         id="path79" />
      <path
         style="fill:none;fill-opacity:1;stroke:#000000;stroke-width:0.264583;stroke-linecap:round;stroke-linejoin:round;stroke-dasharray:none"
         d="m 26.845371,19.250361 -0.199393,0.906325"
         id="path80" />
      <path
         style="fill:none;fill-opacity:1;stroke:#000000;stroke-width:0.264583;stroke-linecap:round;stroke-linejoin:round;stroke-dasharray:none"
         d="m 28.349871,19.540385 -0.01812,0.525669"
         id="path81" />
      <path
         style="fill:none;fill-opacity:1;stroke:#000000;stroke-width:0.264583;stroke-linecap:round;stroke-linejoin:round;stroke-dasharray:none"
         d="m 29.473715,19.540385 0.03625,0.271898"
         id="path82" />
      <ellipse
         style="fill:#282828;fill-opacity:1;stroke:#000000;stroke-width:0.264583;stroke-linecap:round;stroke-linejoin:round;stroke-dasharray:none"
         id="ellipse82"
         cx="28.150482"
         cy="16.277611"
         rx="2.9546223"
         ry="2.8639896" />
      <path
         style="fill:#e2ede2;fill-opacity:1;stroke:#000000;stroke-width:0.264583;stroke-linecap:round;stroke-linejoin:round;stroke-dasharray:none"
         d="m 27.588559,16.513257 c 0.647939,0.837019 0.241946,1.542297 0.126883,2.283941 0.585041,-0.569304 1.306979,-1.042779 0.906328,-2.302068 0.614314,-0.670127 1.335102,-0.902523 2.102676,-0.942579 -0.823653,-0.430076 -1.634002,-0.68497 -2.356448,0.217518 -1.077433,-0.162369 -1.566549,-0.768751 -1.740146,-1.61326 -0.03962,0.87866 -0.777072,1.938008 0.960707,2.356448 z"
         id="path83"
         sodipodi:nodetypes="ccccccc" />
    </g>
  </g>
</svg>
