<?xml version="1.0" encoding="UTF-8" standalone="no"?>
<!-- Created with Inkscape (http://www.inkscape.org/) -->

<svg
   width="57.081696"
   height="37.681213"
   viewBox="0 0 15.102865 9.9698209"
   version="1.1"
   id="svg1"
   inkscape:version="1.3.2 (091e20e, 2023-11-25, custom)"
   sodipodi:docname="plantaBARREIRAcompleto.svg"
   xmlns:inkscape="http://www.inkscape.org/namespaces/inkscape"
   xmlns:sodipodi="http://sodipodi.sourceforge.net/DTD/sodipodi-0.dtd"
   xmlns="http://www.w3.org/2000/svg"
   xmlns:svg="http://www.w3.org/2000/svg">
  <sodipodi:namedview
     id="namedview1"
     pagecolor="#ffffff"
     bordercolor="#000000"
     borderopacity="0.25"
     inkscape:showpageshadow="2"
     inkscape:pageopacity="0.0"
     inkscape:pagecheckerboard="0"
     inkscape:deskcolor="#d1d1d1"
     inkscape:document-units="px"
     inkscape:zoom="5.1606349"
     inkscape:cx="73.828125"
     inkscape:cy="19.861897"
     inkscape:window-width="1920"
     inkscape:window-height="1017"
     inkscape:window-x="1072"
     inkscape:window-y="239"
     inkscape:window-maximized="1"
     inkscape:current-layer="layer1" />
  <defs
     id="defs1" />
  <g
     inkscape:label="Camada 1"
     inkscape:groupmode="layer"
     id="layer1"
     transform="translate(-3.9135566,-34.536129)">
    <g
       id="g71"
       transform="translate(-16.367786,23.397705)">
      <path
         style="fill:#474d47;fill-opacity:1;stroke:#000000;stroke-width:0.529167;stroke-linecap:round;stroke-linejoin:round;stroke-dasharray:none"
         d="m 20.545918,16.9139 c 0,0 3.813837,-5.460164 6.706812,-5.510461 3.301093,-0.05739 7.866906,6.018003 7.866906,6.018003 0,0 -5.37247,3.673933 -8.374448,3.407785 C 24.31068,20.613389 20.545918,16.9139 20.545918,16.9139 Z"
         id="path60"
         sodipodi:nodetypes="cscsc" />
      <path
         style="fill:#e5e5e5;fill-opacity:1;stroke:#000000;stroke-width:0.264583;stroke-linecap:round;stroke-linejoin:round;stroke-dasharray:none"
         d="m 20.866699,16.790771 c 0,0 4.830126,-3.826725 7.63916,-3.614502 2.486115,0.187827 6.203614,4.178467 6.203614,4.178467 0,0 -3.663096,2.11278 -5.690918,2.15332 -2.863698,0.05725 -8.151856,-2.717285 -8.151856,-2.717285 z"
         id="path61"
         sodipodi:nodetypes="cscsc" />
      <path
         style="fill:none;fill-opacity:1;stroke:#000000;stroke-width:0.264583;stroke-linecap:round;stroke-linejoin:round;stroke-dasharray:none"
         d="M 25.045165,14.047851 24.58374,13.201904"
         id="path62" />
      <path
         style="fill:none;fill-opacity:1;stroke:#000000;stroke-width:0.264583;stroke-linecap:round;stroke-linejoin:round;stroke-dasharray:none"
         d="M 26.801148,13.342896 26.390991,12.355957"
         id="path63" />
      <path
         style="fill:none;fill-opacity:1;stroke:#000000;stroke-width:0.264583;stroke-linecap:round;stroke-linejoin:round;stroke-dasharray:none"
         d="m 28.339234,13.137817 0.153808,-0.871582"
         id="path64" />
      <path
         style="fill:none;fill-opacity:1;stroke:#000000;stroke-width:0.264583;stroke-linecap:round;stroke-linejoin:round;stroke-dasharray:none"
         d="m 29.941406,13.586426 0.256347,-0.34607"
         id="path65" />
      <path
         style="fill:none;fill-opacity:1;stroke:#000000;stroke-width:0.264583;stroke-linecap:round;stroke-linejoin:round;stroke-dasharray:none"
         d="M 24.108267,18.344035 23.890749,18.83345"
         id="path66" />
      <path
         style="fill:none;fill-opacity:1;stroke:#000000;stroke-width:0.264583;stroke-linecap:round;stroke-linejoin:round;stroke-dasharray:none"
         d="M 25.358996,18.724691 25.177731,19.30474"
         id="path67" />
      <path
         style="fill:none;fill-opacity:1;stroke:#000000;stroke-width:0.264583;stroke-linecap:round;stroke-linejoin:round;stroke-dasharray:none"
         d="m 26.845371,19.250361 -0.199393,0.906325"
         id="path68" />
      <path
         style="fill:none;fill-opacity:1;stroke:#000000;stroke-width:0.264583;stroke-linecap:round;stroke-linejoin:round;stroke-dasharray:none"
         d="m 28.349871,19.540385 -0.01812,0.525669"
         id="path69" />
      <path
         style="fill:none;fill-opacity:1;stroke:#000000;stroke-width:0.264583;stroke-linecap:round;stroke-linejoin:round;stroke-dasharray:none"
         d="m 29.473715,19.540385 0.03625,0.271898"
         id="path70" />
      <ellipse
         style="fill:#282828;fill-opacity:1;stroke:#000000;stroke-width:0.264583;stroke-linecap:round;stroke-linejoin:round;stroke-dasharray:none"
         id="ellipse70"
         cx="28.150482"
         cy="16.277611"
         rx="2.9546223"
         ry="2.8639896" />
      <path
         style="fill:#e2ede2;fill-opacity:1;stroke:#000000;stroke-width:0.264583;stroke-linecap:round;stroke-linejoin:round;stroke-dasharray:none"
         d="m 27.588559,16.513257 c 0.647939,0.837019 0.241946,1.542297 0.126883,2.283941 0.585041,-0.569304 1.306979,-1.042779 0.906328,-2.302068 0.614314,-0.670127 1.335102,-0.902523 2.102676,-0.942579 -0.823653,-0.430076 -1.634002,-0.68497 -2.356448,0.217518 -1.077433,-0.162369 -1.566549,-0.768751 -1.740146,-1.61326 -0.03962,0.87866 -0.777072,1.938008 0.960707,2.356448 z"
         id="path71"
         sodipodi:nodetypes="ccccccc" />
    </g>
  </g>
</svg>
