<?xml version="1.0" encoding="UTF-8" standalone="no"?>
<!-- Created with Inkscape (http://www.inkscape.org/) -->

<svg
   width="150"
   height="100"
   viewBox="0 0 39.687499 26.458333"
   version="1.1"
   id="svg1"
   inkscape:version="1.3.2 (091e20e, 2023-11-25, custom)"
   sodipodi:docname="plantaBARREIRAcompleto.svg"
   xmlns:inkscape="http://www.inkscape.org/namespaces/inkscape"
   xmlns:sodipodi="http://sodipodi.sourceforge.net/DTD/sodipodi-0.dtd"
   xmlns="http://www.w3.org/2000/svg"
   xmlns:svg="http://www.w3.org/2000/svg">
  <sodipodi:namedview
     id="namedview1"
     pagecolor="#ffffff"
     bordercolor="#000000"
     borderopacity="0.25"
     inkscape:showpageshadow="2"
     inkscape:pageopacity="0.0"
     inkscape:pagecheckerboard="0"
     inkscape:deskcolor="#d1d1d1"
     inkscape:document-units="px"
     inkscape:zoom="1.82456"
     inkscape:cx="6.0288509"
     inkscape:cy="98.379885"
     inkscape:window-width="1920"
     inkscape:window-height="1017"
     inkscape:window-x="1072"
     inkscape:window-y="239"
     inkscape:window-maximized="1"
     inkscape:current-layer="layer1" />
  <defs
     id="defs1" />
  <g
     inkscape:label="Camada 1"
     inkscape:groupmode="layer"
     id="layer1">
    <path
       id="path2"
       style="fill:#0d8f04;fill-opacity:1;stroke:#000000;stroke-width:0.529167;stroke-linecap:round;stroke-linejoin:round"
       inkscape:transform-center-x="5.1772585"
       inkscape:transform-center-y="-5.2986813"
       d="m 17.319246,4.6693074 c -0.717063,-0.00266 -1.286107,0.5143862 -1.317749,1.5921508 -0.0029,0.1316528 0.0025,0.2635441 0.01602,0.3942912 -1.121374,1.1368928 -2.660979,2.9728238 -2.990515,4.7578486 -0.537972,2.914087 0.859753,8.027442 1.617989,10.47688 -0.0054,0.01803 -0.008,0.03752 -0.01292,0.05581 a 1.2659625,1.1068862 33.977163 0 0 -0.09043,0.04444 C 12.666379,21.05727 9.8736736,19.50008 8.7285562,18.002343 8.0640548,17.133223 7.7533633,15.583027 7.6097614,14.479044 a 1.8205256,1.5804543 34.331884 0 0 -0.3808553,-2.286165 1.8205256,1.5804543 34.331884 0 0 -2.4494628,0.0093 1.8205256,1.5804543 34.331884 0 0 0.3343465,2.348693 1.8205256,1.5804543 34.331884 0 0 0.263033,0.185002 c 0.040062,1.453723 0.2715202,3.587042 1.2149129,4.741313 1.540107,1.884369 5.6837943,3.345268 7.7230423,3.974951 a 1.2659625,1.1068862 33.977163 0 0 0.28267,0.328662 1.2659625,1.1068862 33.977163 0 0 1.034562,0.317293 1.1068862,1.2659625 40.487848 0 0 1.064018,-0.355534 1.1068862,1.2659625 40.487848 0 0 0.311092,-1.511535 c 1.140077,-1.757321 3.00402,-4.3558 4.62194,-5.323706 0.938862,-0.561668 2.51454,-0.694605 3.627685,-0.712102 a 1.5804543,1.8205256 40.842569 0 0 2.314588,-0.118855 1.5804543,1.8205256 40.842569 0 0 0.268201,-2.434994 1.5804543,1.8205256 40.842569 0 0 -2.370915,0.06615 1.5804543,1.8205256 40.842569 0 0 -0.213941,0.240295 c -1.448889,-0.125031 -3.595002,-0.137217 -4.848799,0.66921 -1.78903,1.150685 -3.481652,4.313741 -4.451925,6.397542 -0.0059,-0.0024 -0.01159,-0.0055 -0.01757,-0.0078 -0.417859,-2.520184 -0.908206,-6.399543 -0.432015,-8.639266 0.276328,-1.299688 1.306802,-2.7720698 2.088762,-3.7449906 0.841864,0.012725 1.531796,-0.9079654 1.568896,-2.0949625 0.03649,-1.2319293 -0.668612,-1.653423 -1.527555,-1.8252116 -0.107349,-0.02147 -0.212789,-0.032692 -0.315226,-0.033073 z" />
    <path
       style="fill:#693512;fill-opacity:1;stroke:#000000;stroke-width:0.529167;stroke-linecap:round;stroke-linejoin:round"
       d="m 10.260475,25.037042 c 0,0 2.219568,-2.285076 3.381213,-2.2994 0.734012,-0.0091 1.999511,0.922852 1.999511,0.922852 0,0 1.649867,-1.232459 2.563477,-1.07666 0.95418,0.162717 2.697115,2.564544 2.697115,2.564544"
       id="path1"
       sodipodi:nodetypes="cscsc" />
    <g
       id="g18">
      <path
         style="fill:#474d47;fill-opacity:1;stroke:#000000;stroke-width:0.52916666;stroke-linecap:round;stroke-linejoin:round;stroke-dasharray:none"
         d="m 20.545918,16.9139 c 0,0 3.813837,-5.460164 6.706812,-5.510461 3.301093,-0.05739 7.866906,6.018003 7.866906,6.018003 0,0 -5.37247,3.673933 -8.374448,3.407785 C 24.31068,20.613389 20.545918,16.9139 20.545918,16.9139 Z"
         id="path4"
         sodipodi:nodetypes="cscsc" />
      <path
         style="fill:#e5e5e5;fill-opacity:1;stroke:#000000;stroke-width:0.264583;stroke-linecap:round;stroke-linejoin:round;stroke-dasharray:none"
         d="m 20.866699,16.790771 c 0,0 4.830126,-3.826725 7.63916,-3.614502 2.486115,0.187827 6.203614,4.178467 6.203614,4.178467 0,0 -3.663096,2.11278 -5.690918,2.15332 -2.863698,0.05725 -8.151856,-2.717285 -8.151856,-2.717285 z"
         id="path7"
         sodipodi:nodetypes="cscsc" />
      <path
         style="fill:none;fill-opacity:1;stroke:#000000;stroke-width:0.264583;stroke-linecap:round;stroke-linejoin:round;stroke-dasharray:none"
         d="M 25.045165,14.047851 24.58374,13.201904"
         id="path8" />
      <path
         style="fill:none;fill-opacity:1;stroke:#000000;stroke-width:0.264583;stroke-linecap:round;stroke-linejoin:round;stroke-dasharray:none"
         d="M 26.801148,13.342896 26.390991,12.355957"
         id="path9" />
      <path
         style="fill:none;fill-opacity:1;stroke:#000000;stroke-width:0.264583;stroke-linecap:round;stroke-linejoin:round;stroke-dasharray:none"
         d="m 28.339234,13.137817 0.153808,-0.871582"
         id="path10" />
      <path
         style="fill:none;fill-opacity:1;stroke:#000000;stroke-width:0.264583;stroke-linecap:round;stroke-linejoin:round;stroke-dasharray:none"
         d="m 29.941406,13.586426 0.256347,-0.34607"
         id="path11" />
      <path
         style="fill:none;fill-opacity:1;stroke:#000000;stroke-width:0.264583;stroke-linecap:round;stroke-linejoin:round;stroke-dasharray:none"
         d="M 24.108267,18.344035 23.890749,18.83345"
         id="path12" />
      <path
         style="fill:none;fill-opacity:1;stroke:#000000;stroke-width:0.264583;stroke-linecap:round;stroke-linejoin:round;stroke-dasharray:none"
         d="M 25.358996,18.724691 25.177731,19.30474"
         id="path13" />
      <path
         style="fill:none;fill-opacity:1;stroke:#000000;stroke-width:0.264583;stroke-linecap:round;stroke-linejoin:round;stroke-dasharray:none"
         d="m 26.845371,19.250361 -0.199393,0.906325"
         id="path14" />
      <path
         style="fill:none;fill-opacity:1;stroke:#000000;stroke-width:0.264583;stroke-linecap:round;stroke-linejoin:round;stroke-dasharray:none"
         d="m 28.349871,19.540385 -0.01812,0.525669"
         id="path15" />
      <path
         style="fill:none;fill-opacity:1;stroke:#000000;stroke-width:0.264583;stroke-linecap:round;stroke-linejoin:round;stroke-dasharray:none"
         d="m 29.473715,19.540385 0.03625,0.271898"
         id="path16" />
      <ellipse
         style="fill:#282828;fill-opacity:1;stroke:#000000;stroke-width:0.264583;stroke-linecap:round;stroke-linejoin:round;stroke-dasharray:none"
         id="path17"
         cx="28.150482"
         cy="16.277611"
         rx="2.9546223"
         ry="2.8639896" />
      <path
         style="fill:#e2ede2;fill-opacity:1;stroke:#000000;stroke-width:0.264583;stroke-linecap:round;stroke-linejoin:round;stroke-dasharray:none"
         d="m 27.588559,16.513257 c 0.647939,0.837019 0.241946,1.542297 0.126883,2.283941 0.585041,-0.569304 1.306979,-1.042779 0.906328,-2.302068 0.614314,-0.670127 1.335102,-0.902523 2.102676,-0.942579 -0.823653,-0.430076 -1.634002,-0.68497 -2.356448,0.217518 -1.077433,-0.162369 -1.566549,-0.768751 -1.740146,-1.61326 -0.03962,0.87866 -0.777072,1.938008 0.960707,2.356448 z"
         id="path18"
         sodipodi:nodetypes="ccccccc" />
    </g>
    <g
       id="g30"
       transform="translate(-8.9721678,-10.100097)">
      <path
         style="fill:#474d47;fill-opacity:1;stroke:#000000;stroke-width:0.529167;stroke-linecap:round;stroke-linejoin:round;stroke-dasharray:none"
         d="m 20.545918,16.9139 c 0,0 3.813837,-5.460164 6.706812,-5.510461 3.301093,-0.05739 7.866906,6.018003 7.866906,6.018003 0,0 -5.37247,3.673933 -8.374448,3.407785 C 24.31068,20.613389 20.545918,16.9139 20.545918,16.9139 Z"
         id="path19"
         sodipodi:nodetypes="cscsc" />
      <path
         style="fill:#e5e5e5;fill-opacity:1;stroke:#000000;stroke-width:0.264583;stroke-linecap:round;stroke-linejoin:round;stroke-dasharray:none"
         d="m 20.866699,16.790771 c 0,0 4.830126,-3.826725 7.63916,-3.614502 2.486115,0.187827 6.203614,4.178467 6.203614,4.178467 0,0 -3.663096,2.11278 -5.690918,2.15332 -2.863698,0.05725 -8.151856,-2.717285 -8.151856,-2.717285 z"
         id="path20"
         sodipodi:nodetypes="cscsc" />
      <path
         style="fill:none;fill-opacity:1;stroke:#000000;stroke-width:0.264583;stroke-linecap:round;stroke-linejoin:round;stroke-dasharray:none"
         d="M 25.045165,14.047851 24.58374,13.201904"
         id="path21" />
      <path
         style="fill:none;fill-opacity:1;stroke:#000000;stroke-width:0.264583;stroke-linecap:round;stroke-linejoin:round;stroke-dasharray:none"
         d="M 26.801148,13.342896 26.390991,12.355957"
         id="path22" />
      <path
         style="fill:none;fill-opacity:1;stroke:#000000;stroke-width:0.264583;stroke-linecap:round;stroke-linejoin:round;stroke-dasharray:none"
         d="m 28.339234,13.137817 0.153808,-0.871582"
         id="path23" />
      <path
         style="fill:none;fill-opacity:1;stroke:#000000;stroke-width:0.264583;stroke-linecap:round;stroke-linejoin:round;stroke-dasharray:none"
         d="m 29.941406,13.586426 0.256347,-0.34607"
         id="path24" />
      <path
         style="fill:none;fill-opacity:1;stroke:#000000;stroke-width:0.264583;stroke-linecap:round;stroke-linejoin:round;stroke-dasharray:none"
         d="M 24.108267,18.344035 23.890749,18.83345"
         id="path25" />
      <path
         style="fill:none;fill-opacity:1;stroke:#000000;stroke-width:0.264583;stroke-linecap:round;stroke-linejoin:round;stroke-dasharray:none"
         d="M 25.358996,18.724691 25.177731,19.30474"
         id="path26" />
      <path
         style="fill:none;fill-opacity:1;stroke:#000000;stroke-width:0.264583;stroke-linecap:round;stroke-linejoin:round;stroke-dasharray:none"
         d="m 26.845371,19.250361 -0.199393,0.906325"
         id="path27" />
      <path
         style="fill:none;fill-opacity:1;stroke:#000000;stroke-width:0.264583;stroke-linecap:round;stroke-linejoin:round;stroke-dasharray:none"
         d="m 28.349871,19.540385 -0.01812,0.525669"
         id="path28" />
      <path
         style="fill:none;fill-opacity:1;stroke:#000000;stroke-width:0.264583;stroke-linecap:round;stroke-linejoin:round;stroke-dasharray:none"
         d="m 29.473715,19.540385 0.03625,0.271898"
         id="path29" />
      <ellipse
         style="fill:#282828;fill-opacity:1;stroke:#000000;stroke-width:0.264583;stroke-linecap:round;stroke-linejoin:round;stroke-dasharray:none"
         id="ellipse29"
         cx="28.150482"
         cy="16.277611"
         rx="2.9546223"
         ry="2.8639896" />
      <path
         style="fill:#e2ede2;fill-opacity:1;stroke:#000000;stroke-width:0.264583;stroke-linecap:round;stroke-linejoin:round;stroke-dasharray:none"
         d="m 27.588559,16.513257 c 0.647939,0.837019 0.241946,1.542297 0.126883,2.283941 0.585041,-0.569304 1.306979,-1.042779 0.906328,-2.302068 0.614314,-0.670127 1.335102,-0.902523 2.102676,-0.942579 -0.823653,-0.430076 -1.634002,-0.68497 -2.356448,0.217518 -1.077433,-0.162369 -1.566549,-0.768751 -1.740146,-1.61326 -0.03962,0.87866 -0.777072,1.938008 0.960707,2.356448 z"
         id="path30"
         sodipodi:nodetypes="ccccccc" />
    </g>
    <g
       id="g42"
       transform="translate(-20.148925,-4.1528315)">
      <path
         style="fill:#474d47;fill-opacity:1;stroke:#000000;stroke-width:0.529167;stroke-linecap:round;stroke-linejoin:round;stroke-dasharray:none"
         d="m 20.545918,16.9139 c 0,0 3.813837,-5.460164 6.706812,-5.510461 3.301093,-0.05739 7.866906,6.018003 7.866906,6.018003 0,0 -5.37247,3.673933 -8.374448,3.407785 C 24.31068,20.613389 20.545918,16.9139 20.545918,16.9139 Z"
         id="path31"
         sodipodi:nodetypes="cscsc" />
      <path
         style="fill:#e5e5e5;fill-opacity:1;stroke:#000000;stroke-width:0.264583;stroke-linecap:round;stroke-linejoin:round;stroke-dasharray:none"
         d="m 20.866699,16.790771 c 0,0 4.830126,-3.826725 7.63916,-3.614502 2.486115,0.187827 6.203614,4.178467 6.203614,4.178467 0,0 -3.663096,2.11278 -5.690918,2.15332 -2.863698,0.05725 -8.151856,-2.717285 -8.151856,-2.717285 z"
         id="path32"
         sodipodi:nodetypes="cscsc" />
      <path
         style="fill:none;fill-opacity:1;stroke:#000000;stroke-width:0.264583;stroke-linecap:round;stroke-linejoin:round;stroke-dasharray:none"
         d="M 25.045165,14.047851 24.58374,13.201904"
         id="path33" />
      <path
         style="fill:none;fill-opacity:1;stroke:#000000;stroke-width:0.264583;stroke-linecap:round;stroke-linejoin:round;stroke-dasharray:none"
         d="M 26.801148,13.342896 26.390991,12.355957"
         id="path34" />
      <path
         style="fill:none;fill-opacity:1;stroke:#000000;stroke-width:0.264583;stroke-linecap:round;stroke-linejoin:round;stroke-dasharray:none"
         d="m 28.339234,13.137817 0.153808,-0.871582"
         id="path35" />
      <path
         style="fill:none;fill-opacity:1;stroke:#000000;stroke-width:0.264583;stroke-linecap:round;stroke-linejoin:round;stroke-dasharray:none"
         d="m 29.941406,13.586426 0.256347,-0.34607"
         id="path36" />
      <path
         style="fill:none;fill-opacity:1;stroke:#000000;stroke-width:0.264583;stroke-linecap:round;stroke-linejoin:round;stroke-dasharray:none"
         d="M 24.108267,18.344035 23.890749,18.83345"
         id="path37" />
      <path
         style="fill:none;fill-opacity:1;stroke:#000000;stroke-width:0.264583;stroke-linecap:round;stroke-linejoin:round;stroke-dasharray:none"
         d="M 25.358996,18.724691 25.177731,19.30474"
         id="path38" />
      <path
         style="fill:none;fill-opacity:1;stroke:#000000;stroke-width:0.264583;stroke-linecap:round;stroke-linejoin:round;stroke-dasharray:none"
         d="m 26.845371,19.250361 -0.199393,0.906325"
         id="path39" />
      <path
         style="fill:none;fill-opacity:1;stroke:#000000;stroke-width:0.264583;stroke-linecap:round;stroke-linejoin:round;stroke-dasharray:none"
         d="m 28.349871,19.540385 -0.01812,0.525669"
         id="path40" />
      <path
         style="fill:none;fill-opacity:1;stroke:#000000;stroke-width:0.264583;stroke-linecap:round;stroke-linejoin:round;stroke-dasharray:none"
         d="m 29.473715,19.540385 0.03625,0.271898"
         id="path41" />
      <ellipse
         style="fill:#282828;fill-opacity:1;stroke:#000000;stroke-width:0.264583;stroke-linecap:round;stroke-linejoin:round;stroke-dasharray:none"
         id="ellipse41"
         cx="28.150482"
         cy="16.277611"
         rx="2.9546223"
         ry="2.8639896" />
      <path
         style="fill:#e2ede2;fill-opacity:1;stroke:#000000;stroke-width:0.264583;stroke-linecap:round;stroke-linejoin:round;stroke-dasharray:none"
         d="m 27.588559,16.513257 c 0.647939,0.837019 0.241946,1.542297 0.126883,2.283941 0.585041,-0.569304 1.306979,-1.042779 0.906328,-2.302068 0.614314,-0.670127 1.335102,-0.902523 2.102676,-0.942579 -0.823653,-0.430076 -1.634002,-0.68497 -2.356448,0.217518 -1.077433,-0.162369 -1.566549,-0.768751 -1.740146,-1.61326 -0.03962,0.87866 -0.777072,1.938008 0.960707,2.356448 z"
         id="path42"
         sodipodi:nodetypes="ccccccc" />
    </g>
    <path
       style="fill:#d3d54e;fill-opacity:1;stroke:#000000;stroke-width:0.264583;stroke-linecap:round;stroke-linejoin:round;stroke-dasharray:none"
       d="m 37.286244,8.2294384 0.05915,-5.2173266 c 0.0086,-0.75897 -1.909901,-0.6142119 -1.944312,0.1600286 l -0.07251,1.6313864 c 0,0 -2.543299,-0.6013033 -3.262773,0.2175182 -0.767233,0.8731754 -0.726203,2.8017081 0.217517,3.4802909 1.289912,0.927513 5.002919,-0.2718975 5.002919,-0.2718975 z"
       id="path43"
       sodipodi:nodetypes="csscsscc" />
    <path
       style="fill:none;fill-opacity:1;stroke:#000000;stroke-width:0.264583;stroke-linecap:round;stroke-linejoin:round;stroke-dasharray:none"
       d="m 31.784848,5.7279791 c 0,0 1.359487,0.2356448 2.120802,0.135949"
       id="path44" />
    <path
       style="fill:none;fill-opacity:1;stroke:#000000;stroke-width:0.264583;stroke-linecap:round;stroke-linejoin:round;stroke-dasharray:none"
       d="m 31.730468,7.5406307 c 0,0 1.123844,0.3625305 2.002978,0.135949"
       id="path45" />
  </g>
</svg>
