<?xml version="1.0" encoding="UTF-8" standalone="no"?>
<!-- Created with Inkscape (http://www.inkscape.org/) -->

<svg
   width="37.91"
   height="50.379822"
   viewBox="0 0 10.030354 13.329661"
   version="1.1"
   id="svg1"
   inkscape:version="1.3.2 (091e20e, 2023-11-25, custom)"
   sodipodi:docname="plantaNOTEBOOKcompleto.svg"
   xmlns:inkscape="http://www.inkscape.org/namespaces/inkscape"
   xmlns:sodipodi="http://sodipodi.sourceforge.net/DTD/sodipodi-0.dtd"
   xmlns="http://www.w3.org/2000/svg"
   xmlns:svg="http://www.w3.org/2000/svg">
  <sodipodi:namedview
     id="namedview1"
     pagecolor="#ffffff"
     bordercolor="#000000"
     borderopacity="0.25"
     inkscape:showpageshadow="2"
     inkscape:pageopacity="0.0"
     inkscape:pagecheckerboard="0"
     inkscape:deskcolor="#d1d1d1"
     inkscape:document-units="px"
     inkscape:zoom="5.1606349"
     inkscape:cx="77.703617"
     inkscape:cy="38.07671"
     inkscape:window-width="1920"
     inkscape:window-height="1017"
     inkscape:window-x="1072"
     inkscape:window-y="239"
     inkscape:window-maximized="1"
     inkscape:current-layer="layer1" />
  <defs
     id="defs1" />
  <g
     inkscape:label="Camada 1"
     inkscape:groupmode="layer"
     id="layer1"
     transform="translate(8.093236,-48.092815)">
    <path
       id="path36"
       style="fill:#37c765;fill-opacity:1;stroke:#000000;stroke-width:0.529167;stroke-linecap:round;stroke-linejoin:round"
       d="m -0.59180411,48.360659 c -1.31528199,-0.05256 -2.43531829,0.547552 -2.50161429,1.34036 -0.0057,0.08474 10e-4,0.169745 0.02017,0.254007 -1.701786,0.725076 -4.0405066,1.897463 -4.554465,3.044697 -0.8390478,1.872879 1.2192841,5.173884 2.339237,6.755576 -0.07663,0.106056 -0.121571,0.219611 -0.132808,0.335564 -0.04611,0.55122 0.663298,1.027897 1.584515,1.064693 0.921204,0.03697 1.7056061,-0.37991 1.7520171,-0.931118 0.03948,-0.473037 -0.4814041,-0.90323 -1.2474311,-1.030238 -0.606021,-1.625148 -2.8465109,-4.177164 -2.107066,-5.616245 0.429092,-0.835083 3.5351683,-1.725202 4.72358129,-2.346795 1.269331,0.01337 2.31783001,-0.575462 2.38511001,-1.339463 0.06679,-0.792933 -0.94572201,-1.478482 -2.26124601,-1.531038 z"
       inkscape:transform-center-x="-0.68169421"
       inkscape:transform-center-y="-5.7296744"
       sodipodi:nodetypes="cccscccccsccc" />
  </g>
</svg>
