<?xml version="1.0" encoding="UTF-8" standalone="no"?>
<!-- Created with Inkscape (http://www.inkscape.org/) -->

<svg
   width="90.361214"
   height="64.395416"
   viewBox="0 0 23.908071 17.037954"
   version="1.1"
   id="svg1"
   inkscape:version="1.3.2 (091e20e, 2023-11-25, custom)"
   sodipodi:docname="plantaNOTEBOOKcompleto.svg"
   xmlns:inkscape="http://www.inkscape.org/namespaces/inkscape"
   xmlns:sodipodi="http://sodipodi.sourceforge.net/DTD/sodipodi-0.dtd"
   xmlns="http://www.w3.org/2000/svg"
   xmlns:svg="http://www.w3.org/2000/svg">
  <sodipodi:namedview
     id="namedview1"
     pagecolor="#ffffff"
     bordercolor="#000000"
     borderopacity="0.25"
     inkscape:showpageshadow="2"
     inkscape:pageopacity="0.0"
     inkscape:pagecheckerboard="0"
     inkscape:deskcolor="#d1d1d1"
     inkscape:document-units="px"
     inkscape:zoom="5.1606349"
     inkscape:cx="77.703617"
     inkscape:cy="38.07671"
     inkscape:window-width="1920"
     inkscape:window-height="1017"
     inkscape:window-x="1072"
     inkscape:window-y="239"
     inkscape:window-maximized="1"
     inkscape:current-layer="layer1" />
  <defs
     id="defs1" />
  <g
     inkscape:label="Camada 1"
     inkscape:groupmode="layer"
     id="layer1"
     transform="translate(-7.5796562,-35.572819)">
    <g
       id="g58"
       transform="translate(-4.9731444,34.299316)">
      <path
         style="fill:#353849;fill-opacity:1;stroke:#000000;stroke-width:0.264583;stroke-linecap:round;stroke-linejoin:round;stroke-dasharray:none"
         d="m 13.483886,2.8967285 -0.563965,8.4851075 10.202637,6.613769 -0.05127,-0.871582 -9.433593,-5.998535 0.615234,-8.4594724 z"
         id="path38"
         sodipodi:nodetypes="ccccccc" />
      <path
         style="fill:#202439;fill-opacity:1;stroke:#000000;stroke-width:0.264583;stroke-linecap:round;stroke-linejoin:round;stroke-dasharray:none"
         d="m 23.148193,18.02124 12.97119,-4.460449 v -0.666504 l -13.048095,4.229736 z"
         id="path39" />
      <path
         style="fill:#202439;fill-opacity:1;stroke:#000000;stroke-width:0.264583;stroke-linecap:round;stroke-linejoin:round;stroke-dasharray:none"
         d="M 14.20346,2.7091138 28.840889,1.5127637 27.608285,8.8721295 13.68712,11.119818 Z"
         id="path40"
         sodipodi:nodetypes="ccccc" />
      <path
         style="fill:#585c75;fill-opacity:1;stroke:#000000;stroke-width:0.264583;stroke-linecap:round;stroke-linejoin:round;stroke-dasharray:none"
         d="m 13.759626,11.083565 9.389536,6.054256 13.051091,-4.241605 -8.628221,-3.9515806 z"
         id="path41" />
      <g
         id="g48"
         transform="translate(-0.92285155,0.46142577)">
        <path
           style="fill:#bdbdbd;fill-opacity:1;stroke:#000000;stroke-width:0.264583;stroke-linecap:round;stroke-linejoin:round;stroke-dasharray:none"
           d="M 17.618974,11.347199 28.241111,9.3895356 34.621647,12.253525 24.434544,15.66131 Z"
           id="path42" />
        <path
           style="fill:none;fill-opacity:1;stroke:#000000;stroke-width:0.264583;stroke-linecap:round;stroke-linejoin:round;stroke-dasharray:none"
           d="m 19.448464,12.398537 10.097758,-2.3927"
           id="path43"
           sodipodi:nodetypes="cc" />
        <path
           style="fill:none;fill-opacity:1;stroke:#000000;stroke-width:0.264583;stroke-linecap:round;stroke-linejoin:round;stroke-dasharray:none"
           d="m 21.199951,13.573608 9.89502,-2.819824"
           id="path44" />
        <path
           style="fill:none;fill-opacity:1;stroke:#000000;stroke-width:0.264583;stroke-linecap:round;stroke-linejoin:round;stroke-dasharray:none"
           d="m 23.225097,14.816894 9.613037,-3.332519"
           id="path45"
           sodipodi:nodetypes="cc" />
        <path
           style="fill:none;fill-opacity:1;stroke:#000000;stroke-width:0.264583;stroke-linecap:round;stroke-linejoin:round;stroke-dasharray:none"
           d="m 20.482963,10.82153 6.416788,3.951581"
           id="path46" />
        <path
           style="fill:none;fill-opacity:1;stroke:#000000;stroke-width:0.264583;stroke-linecap:round;stroke-linejoin:round;stroke-dasharray:none"
           d="m 23.618851,10.277735 5.909244,3.661556"
           id="path47" />
        <path
           style="fill:none;fill-opacity:1;stroke:#000000;stroke-width:0.264583;stroke-linecap:round;stroke-linejoin:round;stroke-dasharray:none"
           d="m 26.609725,9.6795597 5.78236,3.2990263"
           id="path48" />
      </g>
      <path
         style="fill:#141416;fill-opacity:1;stroke:#000000;stroke-width:0.264583;stroke-linecap:round;stroke-linejoin:round;stroke-dasharray:none"
         d="M 14.765625,10.228271 15.175781,3.383789 27.685547,2.2558594 26.788329,8.2543945 Z"
         id="path49" />
      <path
         id="path50"
         style="fill:#0029ff;fill-opacity:1;stroke:#000000;stroke-width:0.264583;stroke-linecap:round;stroke-linejoin:round;stroke-dasharray:none"
         d="m 21.392666,4.2591381 c -1.030834,9.061e-4 -1.869427,0.7675265 -1.881818,1.7203093 l 1.30799,-0.3373224 c 0,0 -0.204498,-0.7500991 0.115329,-0.7915319 0.34645,-0.044882 0.526008,0.7852136 0.526008,0.7852136 0,0 0.600172,-0.334215 0.832614,-0.1723468 0.422732,0.2943842 0.481644,0.9388739 0.176925,1.3538671 -0.317471,0.4323588 -1.539767,0.4254122 -1.539767,0.4254122 l -0.22375,-0.3308777 -0.796094,0.233557 c 0.107382,0.4389081 0.942095,0.596128 1.482563,0.5964597 1.04049,9.32e-5 1.884006,-0.7795931 1.883928,-1.7413701 7.8e-5,-0.961777 -0.843438,-1.7414632 -1.883928,-1.74137 z"
         sodipodi:nodetypes="cccscsscccccc" />
      <path
         style="fill:none;fill-opacity:1;stroke:#000000;stroke-width:0.264583;stroke-linecap:round;stroke-linejoin:round;stroke-dasharray:none"
         d="M 15.625057,9.2445233 16.85766,7.6131369 17.32895,8.4832096 18.452794,7.721896"
         id="path51" />
      <path
         style="fill:none;fill-opacity:1;stroke:#000000;stroke-width:0.264583;stroke-linecap:round;stroke-linejoin:round;stroke-dasharray:none"
         d="M 17.093305,7.9937937 17.727733,7.3774921 17.492088,6.7793171"
         id="path52" />
      <path
         style="fill:none;fill-opacity:1;stroke:#000000;stroke-width:0.264583;stroke-linecap:round;stroke-linejoin:round;stroke-dasharray:none"
         d="M 16.531383,4.2959845 18.035884,4.984792 18.88783,4.1509722 v 1.4863744"
         id="path53" />
      <path
         style="fill:none;fill-opacity:1;stroke:#000000;stroke-width:0.264583;stroke-linecap:round;stroke-linejoin:round;stroke-dasharray:none"
         d="M 17.292697,4.6403881 16.585762,5.4923345"
         id="path54" />
      <path
         style="fill:none;fill-opacity:1;stroke:#000000;stroke-width:0.264583;stroke-linecap:round;stroke-linejoin:round;stroke-dasharray:none"
         d="M 26.990384,2.9002426 26.065931,3.8609481 25.068972,3.7340624 25.304617,5.1116777 23.67323,5.0029186"
         id="path55" />
      <path
         style="fill:none;fill-opacity:1;stroke:#000000;stroke-width:0.264583;stroke-linecap:round;stroke-linejoin:round;stroke-dasharray:none"
         d="M 26.247196,7.9212876 25.685274,6.489293 24.035761,7.8306551"
         id="path56" />
      <path
         style="fill:none;fill-opacity:1;stroke:#000000;stroke-width:0.264583;stroke-linecap:round;stroke-linejoin:round;stroke-dasharray:none"
         d="M 24.833328,7.1599739 23.927002,6.1267625"
         id="path57" />
      <path
         style="fill:none;fill-opacity:1;stroke:#000000;stroke-width:0.529167;stroke-linecap:round;stroke-linejoin:round;stroke-dasharray:none"
         d="M 23.122558,18.046875 12.817383,11.330566 13.381347,2.8710937 14.20166,2.7172851 28.864745,1.5380859 l -1.127929,7.3828126 8.356933,3.8964845 0.102539,0.820312 z"
         id="path58" />
    </g>
  </g>
</svg>
