<?xml version="1.0" encoding="UTF-8" standalone="no"?>
<!-- Created with Inkscape (http://www.inkscape.org/) -->

<svg
   width="34.537369"
   height="34.543015"
   viewBox="0 0 9.1380119 9.1395058"
   version="1.1"
   id="svg1"
   inkscape:version="1.3.2 (091e20e, 2023-11-25, custom)"
   sodipodi:docname="plantaNOTEBOOKcompleto.svg"
   xmlns:inkscape="http://www.inkscape.org/namespaces/inkscape"
   xmlns:sodipodi="http://sodipodi.sourceforge.net/DTD/sodipodi-0.dtd"
   xmlns="http://www.w3.org/2000/svg"
   xmlns:svg="http://www.w3.org/2000/svg">
  <sodipodi:namedview
     id="namedview1"
     pagecolor="#ffffff"
     bordercolor="#000000"
     borderopacity="0.25"
     inkscape:showpageshadow="2"
     inkscape:pageopacity="0.0"
     inkscape:pagecheckerboard="0"
     inkscape:deskcolor="#d1d1d1"
     inkscape:document-units="px"
     inkscape:zoom="5.1606349"
     inkscape:cx="77.703617"
     inkscape:cy="38.07671"
     inkscape:window-width="1920"
     inkscape:window-height="1017"
     inkscape:window-x="1072"
     inkscape:window-y="239"
     inkscape:window-maximized="1"
     inkscape:current-layer="layer1" />
  <defs
     id="defs1" />
  <g
     inkscape:label="Camada 1"
     inkscape:groupmode="layer"
     id="layer1"
     transform="translate(-38.069508,-36.721584)">
    <path
       id="path59"
       style="color:#000000;fill:#00ddff;fill-opacity:1;stroke:#000000;stroke-width:0.264583;stroke-linecap:round;stroke-linejoin:round;stroke-dasharray:none;stroke-opacity:1"
       d="m 42.605179,36.85389 a 0.2645835,0.2645835 0 0 0 -0.264066,0.265616 v 0.885218 l -0.43925,-0.54312 a 0.2645835,0.2645835 0 0 0 -0.371037,-0.04134 0.2645835,0.2645835 0 0 0 -0.04082,0.373104 l 0.851111,1.052132 v 1.707906 l -1.133785,-1.18029 -0.114722,-1.348755 a 0.2645835,0.2645835 0 0 0 -0.288355,-0.240296 0.2645835,0.2645835 0 0 0 -0.240295,0.285254 l 0.05943,0.696082 -0.660425,-0.687297 a 0.2645835,0.2645835 0 0 0 -0.374137,-0.0088 0.2645835,0.2645835 0 0 0 -0.0062,0.374138 l 0.608231,0.633036 -0.790649,-0.08682 a 0.2645835,0.2645835 0 0 0 -0.291972,0.234095 0.2645835,0.2645835 0 0 0 0.233061,0.290938 l 1.422652,0.15813 1.280542,1.332735 -1.785938,0.03307 -1.068151,-0.831474 a 0.2645835,0.2645835 0 0 0 -0.372071,0.04806 0.2645835,0.2645835 0 0 0 0.04599,0.370004 l 0.551388,0.429431 -0.95343,0.01757 a 0.2645835,0.2645835 0 0 0 -0.26045,0.268717 0.2645835,0.2645835 0 0 0 0.270268,0.258899 l 0.877983,-0.01654 -0.600997,0.520898 a 0.2645835,0.2645835 0 0 0 -0.02584,0.373621 0.2645835,0.2645835 0 0 0 0.371553,0.02636 l 1.082105,-0.936377 1.761649,-0.03307 -1.245402,1.152384 -1.350822,0.08992 a 0.2645835,0.2645835 0 0 0 -0.245463,0.283187 0.2645835,0.2645835 0 0 0 0.280603,0.24598 l 0.697115,-0.04651 -0.699699,0.647506 a 0.2645835,0.2645835 0 0 0 -0.01602,0.374137 0.2645835,0.2645835 0 0 0 0.374137,0.01292 l 0.644405,-0.596346 -0.101802,0.789099 a 0.2645835,0.2645835 0 0 0 0.228926,0.296106 0.2645835,0.2645835 0 0 0 0.295073,-0.227893 l 0.184484,-1.419035 1.357024,-1.255737 v 1.786971 l -0.851109,1.051628 a 0.2645835,0.2645835 0 0 0 0.04082,0.373104 0.2645835,0.2645835 0 0 0 0.371037,-0.03876 l 0.43925,-0.543119 v 0.952913 a 0.2645835,0.2645835 0 0 0 0.264066,0.265617 0.2645835,0.2645835 0 0 0 0.26355,-0.265617 v -0.877983 l 0.50953,0.610816 a 0.2645835,0.2645835 0 0 0 0.373103,0.03307 0.2645835,0.2645835 0 0 0 0.03307,-0.371037 l -0.915706,-1.099158 v -1.895491 l 1.362191,1.417484 0.09974,1.42627 a 0.2645835,0.2645835 0 0 0 0.28267,0.24598 0.2645835,0.2645835 0 0 0 0.181385,-0.09043 0.2645835,0.2645835 0 0 0 0.0646,-0.19172 l -0.05633,-0.794783 0.560689,0.583427 a 0.2645835,0.2645835 0 0 0 0.374137,0.0093 0.2645835,0.2645835 0 0 0 0.0057,-0.374655 l -0.613399,-0.638204 0.693497,0.08733 a 0.2645835,0.2645835 0 0 0 0.296106,-0.227377 0.2645835,0.2645835 0 0 0 -0.228926,-0.297656 l -1.342554,-0.168465 -1.287777,-1.33997 1.919263,-0.03617 1.114661,0.895552 a 0.2645835,0.2645835 0 0 0 0.372587,-0.04031 0.2645835,0.2645835 0 0 0 0.05684,-0.194303 0.2645835,0.2645835 0 0 0 -0.09715,-0.177767 l -0.621151,-0.498677 0.808736,-0.01499 a 0.2645835,0.2645835 0 0 0 0.260966,-0.2682 0.2645835,0.2645835 0 0 0 -0.270784,-0.258899 l -0.885217,0.01654 0.535367,-0.449585 a 0.2645835,0.2645835 0 0 0 0.03411,-0.371553 0.2645835,0.2645835 0 0 0 -0.373621,-0.03411 l -1.036112,0.870748 -1.766301,0.03307 1.344104,-1.243852 1.42782,-0.07338 a 0.2645835,0.2645835 0 0 0 0.251148,-0.277503 0.2645835,0.2645835 0 0 0 -0.08682,-0.182934 0.2645835,0.2645835 0 0 0 -0.190686,-0.06821 l -0.795817,0.04134 0.594279,-0.549837 a 0.2645835,0.2645835 0 0 0 0.01602,-0.373621 0.2645835,0.2645835 0 0 0 -0.374137,-0.01344 l -0.649573,0.600997 0.100252,-0.69143 a 0.2645835,0.2645835 0 0 0 -0.222209,-0.299724 0.2645835,0.2645835 0 0 0 -0.301273,0.223243 l -0.193787,1.339453 -1.363224,1.261421 v -1.919779 l 0.915706,-1.097091 a 0.2645835,0.2645835 0 0 0 -0.03307,-0.373104 0.2645835,0.2645835 0 0 0 -0.193269,-0.06046 0.2645835,0.2645835 0 0 0 -0.179834,0.09353 l -0.50953,0.611849 v -0.809253 a 0.2645835,0.2645835 0 0 0 -0.26355,-0.265616 z" />
  </g>
</svg>
