<?xml version="1.0" encoding="UTF-8" standalone="no"?>
<!-- Created with Inkscape (http://www.inkscape.org/) -->

<svg
   width="150"
   height="100"
   viewBox="0 0 39.687499 26.458333"
   version="1.1"
   id="svg1"
   inkscape:version="1.3.2 (091e20e, 2023-11-25, custom)"
   sodipodi:docname="plantaNOTEBOOKcompleto.svg"
   xmlns:inkscape="http://www.inkscape.org/namespaces/inkscape"
   xmlns:sodipodi="http://sodipodi.sourceforge.net/DTD/sodipodi-0.dtd"
   xmlns="http://www.w3.org/2000/svg"
   xmlns:svg="http://www.w3.org/2000/svg">
  <sodipodi:namedview
     id="namedview1"
     pagecolor="#ffffff"
     bordercolor="#000000"
     borderopacity="0.25"
     inkscape:showpageshadow="2"
     inkscape:pageopacity="0.0"
     inkscape:pagecheckerboard="0"
     inkscape:deskcolor="#d1d1d1"
     inkscape:document-units="px"
     inkscape:zoom="2.5803175"
     inkscape:cx="66.658465"
     inkscape:cy="57.551058"
     inkscape:window-width="1920"
     inkscape:window-height="1017"
     inkscape:window-x="1072"
     inkscape:window-y="239"
     inkscape:window-maximized="1"
     inkscape:current-layer="layer1" />
  <defs
     id="defs1" />
  <g
     inkscape:label="Camada 1"
     inkscape:groupmode="layer"
     id="layer1">
    <path
       id="path2"
       style="fill:#37c765;fill-opacity:1;stroke:#000000;stroke-width:0.529167;stroke-linecap:round;stroke-linejoin:round"
       d="M 11.815422,12.21564 C 10.50014,12.16308 9.3801039,12.763192 9.3138079,13.556 c -0.0057,0.08474 10e-4,0.169745 0.02017,0.254007 -1.701786,0.725076 -4.0405066,1.897463 -4.554465,3.044697 -0.8390478,1.872879 1.2192841,5.173884 2.339237,6.755576 -0.07663,0.106056 -0.121571,0.219611 -0.132808,0.335564 -0.04611,0.55122 0.663298,1.027897 1.584515,1.064693 0.921204,0.03697 1.7056061,-0.37991 1.7520171,-0.931118 0.03948,-0.473037 -0.4814041,-0.90323 -1.2474311,-1.030238 -0.606021,-1.625148 -2.8465109,-4.177164 -2.107066,-5.616245 0.429092,-0.835083 3.5351681,-1.725202 4.7235811,-2.346795 1.269331,0.01337 2.31783,-0.575462 2.38511,-1.339463 0.06679,-0.792933 -0.945722,-1.478482 -2.261246,-1.531038 z"
       inkscape:transform-center-x="-0.68169421"
       inkscape:transform-center-y="-5.7296744"
       sodipodi:nodetypes="cccscccccsccc" />
    <path
       style="fill:#93572e;fill-opacity:1;stroke:#000000;stroke-width:0.529167;stroke-linecap:round;stroke-linejoin:round"
       d="m 2.1378313,25.814945 c 0,0 2.6553627,-2.732165 4.0450863,-2.749291 0.8781293,-0.01088 2.3920983,1.103413 2.3920983,1.103413 0,0 1.9738051,-1.473597 3.0667951,-1.287315 1.141525,0.194554 3.226671,3.066313 3.226671,3.066313"
       id="path1"
       sodipodi:nodetypes="cscsc" />
    <g
       id="g23"
       transform="translate(-4.5629882,0.5126953)">
      <path
         style="fill:#353849;fill-opacity:1;stroke:#000000;stroke-width:0.264583;stroke-linecap:round;stroke-linejoin:round;stroke-dasharray:none"
         d="m 13.483886,2.8967285 -0.563965,8.4851075 10.202637,6.613769 -0.05127,-0.871582 -9.433593,-5.998535 0.615234,-8.4594724 z"
         id="path3"
         sodipodi:nodetypes="ccccccc" />
      <path
         style="fill:#202439;fill-opacity:1;stroke:#000000;stroke-width:0.264583;stroke-linecap:round;stroke-linejoin:round;stroke-dasharray:none"
         d="m 23.148193,18.02124 12.97119,-4.460449 v -0.666504 l -13.048095,4.229736 z"
         id="path4" />
      <path
         style="fill:#202439;fill-opacity:1;stroke:#000000;stroke-width:0.264583;stroke-linecap:round;stroke-linejoin:round;stroke-dasharray:none"
         d="M 14.20346,2.7091138 28.840889,1.5127637 27.608285,8.8721295 13.68712,11.119818 Z"
         id="path5"
         sodipodi:nodetypes="ccccc" />
      <path
         style="fill:#585c75;fill-opacity:1;stroke:#000000;stroke-width:0.264583;stroke-linecap:round;stroke-linejoin:round;stroke-dasharray:none"
         d="m 13.759626,11.083565 9.389536,6.054256 13.051091,-4.241605 -8.628221,-3.9515806 z"
         id="path6" />
      <g
         id="g13"
         transform="translate(-0.92285155,0.46142577)">
        <path
           style="fill:#bdbdbd;fill-opacity:1;stroke:#000000;stroke-width:0.264583;stroke-linecap:round;stroke-linejoin:round;stroke-dasharray:none"
           d="M 17.618974,11.347199 28.241111,9.3895356 34.621647,12.253525 24.434544,15.66131 Z"
           id="path7" />
        <path
           style="fill:none;fill-opacity:1;stroke:#000000;stroke-width:0.264583;stroke-linecap:round;stroke-linejoin:round;stroke-dasharray:none"
           d="m 19.448464,12.398537 10.097758,-2.3927"
           id="path8"
           sodipodi:nodetypes="cc" />
        <path
           style="fill:none;fill-opacity:1;stroke:#000000;stroke-width:0.264583;stroke-linecap:round;stroke-linejoin:round;stroke-dasharray:none"
           d="m 21.199951,13.573608 9.89502,-2.819824"
           id="path9" />
        <path
           style="fill:none;fill-opacity:1;stroke:#000000;stroke-width:0.264583;stroke-linecap:round;stroke-linejoin:round;stroke-dasharray:none"
           d="m 23.225097,14.816894 9.613037,-3.332519"
           id="path10"
           sodipodi:nodetypes="cc" />
        <path
           style="fill:none;fill-opacity:1;stroke:#000000;stroke-width:0.264583;stroke-linecap:round;stroke-linejoin:round;stroke-dasharray:none"
           d="m 20.482963,10.82153 6.416788,3.951581"
           id="path11" />
        <path
           style="fill:none;fill-opacity:1;stroke:#000000;stroke-width:0.264583;stroke-linecap:round;stroke-linejoin:round;stroke-dasharray:none"
           d="m 23.618851,10.277735 5.909244,3.661556"
           id="path12" />
        <path
           style="fill:none;fill-opacity:1;stroke:#000000;stroke-width:0.264583;stroke-linecap:round;stroke-linejoin:round;stroke-dasharray:none"
           d="m 26.609725,9.6795597 5.78236,3.2990263"
           id="path13" />
      </g>
      <path
         style="fill:#141416;fill-opacity:1;stroke:#000000;stroke-width:0.264583;stroke-linecap:round;stroke-linejoin:round;stroke-dasharray:none"
         d="M 14.765625,10.228271 15.175781,3.383789 27.685547,2.2558594 26.788329,8.2543945 Z"
         id="path14" />
      <path
         id="path15"
         style="fill:#0029ff;fill-opacity:1;stroke:#000000;stroke-width:0.264583;stroke-linecap:round;stroke-linejoin:round;stroke-dasharray:none"
         d="m 21.392666,4.2591381 c -1.030834,9.061e-4 -1.869427,0.7675265 -1.881818,1.7203093 l 1.30799,-0.3373224 c 0,0 -0.204498,-0.7500991 0.115329,-0.7915319 0.34645,-0.044882 0.526008,0.7852136 0.526008,0.7852136 0,0 0.600172,-0.334215 0.832614,-0.1723468 0.422732,0.2943842 0.481644,0.9388739 0.176925,1.3538671 -0.317471,0.4323588 -1.539767,0.4254122 -1.539767,0.4254122 l -0.22375,-0.3308777 -0.796094,0.233557 c 0.107382,0.4389081 0.942095,0.596128 1.482563,0.5964597 1.04049,9.32e-5 1.884006,-0.7795931 1.883928,-1.7413701 7.8e-5,-0.961777 -0.843438,-1.7414632 -1.883928,-1.74137 z"
         sodipodi:nodetypes="cccscsscccccc" />
      <path
         style="fill:none;fill-opacity:1;stroke:#000000;stroke-width:0.264583;stroke-linecap:round;stroke-linejoin:round;stroke-dasharray:none"
         d="M 15.625057,9.2445233 16.85766,7.6131369 17.32895,8.4832096 18.452794,7.721896"
         id="path16" />
      <path
         style="fill:none;fill-opacity:1;stroke:#000000;stroke-width:0.264583;stroke-linecap:round;stroke-linejoin:round;stroke-dasharray:none"
         d="M 17.093305,7.9937937 17.727733,7.3774921 17.492088,6.7793171"
         id="path17" />
      <path
         style="fill:none;fill-opacity:1;stroke:#000000;stroke-width:0.264583;stroke-linecap:round;stroke-linejoin:round;stroke-dasharray:none"
         d="M 16.531383,4.2959845 18.035884,4.984792 18.88783,4.1509722 v 1.4863744"
         id="path18" />
      <path
         style="fill:none;fill-opacity:1;stroke:#000000;stroke-width:0.264583;stroke-linecap:round;stroke-linejoin:round;stroke-dasharray:none"
         d="M 17.292697,4.6403881 16.585762,5.4923345"
         id="path19" />
      <path
         style="fill:none;fill-opacity:1;stroke:#000000;stroke-width:0.264583;stroke-linecap:round;stroke-linejoin:round;stroke-dasharray:none"
         d="M 26.990384,2.9002426 26.065931,3.8609481 25.068972,3.7340624 25.304617,5.1116777 23.67323,5.0029186"
         id="path20" />
      <path
         style="fill:none;fill-opacity:1;stroke:#000000;stroke-width:0.264583;stroke-linecap:round;stroke-linejoin:round;stroke-dasharray:none"
         d="M 26.247196,7.9212876 25.685274,6.489293 24.035761,7.8306551"
         id="path21" />
      <path
         style="fill:none;fill-opacity:1;stroke:#000000;stroke-width:0.264583;stroke-linecap:round;stroke-linejoin:round;stroke-dasharray:none"
         d="M 24.833328,7.1599739 23.927002,6.1267625"
         id="path22" />
      <path
         style="fill:none;fill-opacity:1;stroke:#000000;stroke-width:0.529167;stroke-linecap:round;stroke-linejoin:round;stroke-dasharray:none"
         d="M 23.122558,18.046875 12.817383,11.330566 13.381347,2.8710937 14.20166,2.7172851 28.864745,1.5380859 l -1.127929,7.3828126 8.356933,3.8964845 0.102539,0.820312 z"
         id="path23" />
    </g>
    <path
       id="path24"
       style="color:#000000;fill:#00ddff;stroke-linecap:round;stroke-linejoin:round;stroke:#000000;stroke-opacity:1;fill-opacity:1;stroke-width:0.26458333;stroke-dasharray:none"
       d="M 33.427933 1.734261 A 0.2645835 0.2645835 0 0 0 33.163867 1.9998779 L 33.163867 2.8850952 L 32.724617 2.3419759 A 0.2645835 0.2645835 0 0 0 32.35358 2.3006347 A 0.2645835 0.2645835 0 0 0 32.312756 2.6737386 L 33.163867 3.7258707 L 33.163867 5.4337768 L 32.030086 4.2534871 L 31.915364 2.9047322 A 0.2645835 0.2645835 0 0 0 31.627009 2.6644368 A 0.2645835 0.2645835 0 0 0 31.386714 2.9496907 L 31.446142 3.6457722 L 30.785717 2.9584757 A 0.2645835 0.2645835 0 0 0 30.41158 2.9496907 A 0.2645835 0.2645835 0 0 0 30.405379 3.3238281 L 31.01361 3.9568643 L 30.222961 3.8700479 A 0.2645835 0.2645835 0 0 0 29.930989 4.1041422 A 0.2645835 0.2645835 0 0 0 30.16405 4.3950805 L 31.586702 4.5532104 L 32.867244 5.8859455 L 31.081306 5.9190184 L 30.013155 5.0875447 A 0.2645835 0.2645835 0 0 0 29.641084 5.1356037 A 0.2645835 0.2645835 0 0 0 29.687076 5.505607 L 30.238464 5.9350381 L 29.285034 5.9526081 A 0.2645835 0.2645835 0 0 0 29.024584 6.2213256 A 0.2645835 0.2645835 0 0 0 29.294852 6.4802245 L 30.172835 6.463688 L 29.571838 6.9845865 A 0.2645835 0.2645835 0 0 0 29.546 7.3582071 A 0.2645835 0.2645835 0 0 0 29.917553 7.384562 L 30.999658 6.4481851 L 32.761307 6.4151122 L 31.515905 7.5674966 L 30.165083 7.6574136 A 0.2645835 0.2645835 0 0 0 29.91962 7.9406004 A 0.2645835 0.2645835 0 0 0 30.200223 8.1865802 L 30.897338 8.1400715 L 30.197639 8.7875771 A 0.2645835 0.2645835 0 0 0 30.18162 9.1617145 A 0.2645835 0.2645835 0 0 0 30.555757 9.1746336 L 31.200162 8.5782876 L 31.09836 9.3673867 A 0.2645835 0.2645835 0 0 0 31.327286 9.6634927 A 0.2645835 0.2645835 0 0 0 31.622359 9.4355996 L 31.806843 8.0165648 L 33.163867 6.7608275 L 33.163867 8.5477985 L 32.312756 9.5994139 A 0.2645835 0.2645835 0 0 0 32.35358 9.9725177 A 0.2645835 0.2645835 0 0 0 32.724617 9.9337604 L 33.163867 9.3906411 L 33.163867 10.343554 A 0.2645835 0.2645835 0 0 0 33.427933 10.609171 A 0.2645835 0.2645835 0 0 0 33.691483 10.343554 L 33.691483 9.4655719 L 34.201013 10.076387 A 0.2645835 0.2645835 0 0 0 34.574116 10.10946 A 0.2645835 0.2645835 0 0 0 34.607189 9.7384235 L 33.691483 8.6392658 L 33.691483 6.7437743 L 35.053674 8.1612588 L 35.153409 9.5875283 A 0.2645835 0.2645835 0 0 0 35.436079 9.8335081 A 0.2645835 0.2645835 0 0 0 35.617464 9.7430744 A 0.2645835 0.2645835 0 0 0 35.682059 9.5513548 L 35.625732 8.7565713 L 36.186421 9.3399982 A 0.2645835 0.2645835 0 0 0 36.560558 9.3493 A 0.2645835 0.2645835 0 0 0 36.566243 8.9746458 L 35.952844 8.3364419 L 36.646341 8.4237751 A 0.2645835 0.2645835 0 0 0 36.942447 8.1963988 A 0.2645835 0.2645835 0 0 0 36.713521 7.8987425 L 35.370967 7.7302774 L 34.08319 6.3903075 L 36.002453 6.354134 L 37.117114 7.2496865 A 0.2645835 0.2645835 0 0 0 37.489701 7.2093789 A 0.2645835 0.2645835 0 0 0 37.546545 7.0150756 A 0.2645835 0.2645835 0 0 0 37.449393 6.8373086 L 36.828242 6.3386311 L 37.636978 6.3236449 A 0.2645835 0.2645835 0 0 0 37.897944 6.0554442 A 0.2645835 0.2645835 0 0 0 37.62716 5.7965453 L 36.741943 5.8130818 L 37.27731 5.3634968 A 0.2645835 0.2645835 0 0 0 37.311417 4.9919433 A 0.2645835 0.2645835 0 0 0 36.937796 4.9578368 L 35.901684 5.8285847 L 34.135383 5.8616576 L 35.479487 4.6178059 L 36.907307 4.5444254 A 0.2645835 0.2645835 0 0 0 37.158455 4.2669229 A 0.2645835 0.2645835 0 0 0 37.071638 4.0839884 A 0.2645835 0.2645835 0 0 0 36.880952 4.0157755 L 36.085135 4.0571166 L 36.679414 3.5072794 A 0.2645835 0.2645835 0 0 0 36.695434 3.1336588 A 0.2645835 0.2645835 0 0 0 36.321297 3.1202229 L 35.671724 3.7212198 L 35.771976 3.0297892 A 0.2645835 0.2645835 0 0 0 35.549767 2.7300659 A 0.2645835 0.2645835 0 0 0 35.248494 2.953308 L 35.054707 4.2927611 L 33.691483 5.5541828 L 33.691483 3.6344034 L 34.607189 2.5373128 A 0.2645835 0.2645835 0 0 0 34.574116 2.1642089 A 0.2645835 0.2645835 0 0 0 34.380847 2.1037475 A 0.2645835 0.2645835 0 0 0 34.201013 2.1972819 L 33.691483 2.8091308 L 33.691483 1.9998779 A 0.2645835 0.2645835 0 0 0 33.427933 1.734261 z " />
  </g>
</svg>
